<?xml version="1.0" encoding="UTF-8" standalone="no"?>
<!-- Created with Inkscape (http://www.inkscape.org/) -->

<svg
   width="210mm"
   height="297mm"
   viewBox="0 0 210 297"
   version="1.1"
   id="svg5"
   xml:space="preserve"
   inkscape:version="1.2 (dc2aedaf03, 2022-05-15)"
   sodipodi:docname="Anat-TEMP.svg"
   inkscape:export-filename="Anat-InsertionLames.pdf"
   inkscape:export-xdpi="360"
   inkscape:export-ydpi="360"
   xmlns:inkscape="http://www.inkscape.org/namespaces/inkscape"
   xmlns:sodipodi="http://sodipodi.sourceforge.net/DTD/sodipodi-0.dtd"
   xmlns="http://www.w3.org/2000/svg"
   xmlns:svg="http://www.w3.org/2000/svg"><sodipodi:namedview
     id="namedview7"
     pagecolor="#ffffff"
     bordercolor="#000000"
     borderopacity="0.25"
     inkscape:showpageshadow="2"
     inkscape:pageopacity="0.0"
     inkscape:pagecheckerboard="0"
     inkscape:deskcolor="#d1d1d1"
     inkscape:document-units="mm"
     showgrid="false"
     inkscape:zoom="1"
     inkscape:cx="274.99999"
     inkscape:cy="154.5"
     inkscape:window-width="1920"
     inkscape:window-height="1018"
     inkscape:window-x="-8"
     inkscape:window-y="-8"
     inkscape:window-maximized="1"
     inkscape:current-layer="layer1" /><defs
     id="defs2"><inkscape:path-effect
       effect="fillet_chamfer"
       id="path-effect3542"
       is_visible="true"
       lpeversion="1"
       nodesatellites_param="F,0,0,1,0,0,0,1 @ F,0,0,1,0,0.52916667,0,1 @ F,0,0,1,0,0.52916667,0,1 @ F,0,0,1,0,0.52916667,0,1 @ F,0,0,1,0,0.52916667,0,1 @ F,0,0,1,0,0.52916667,0,1 @ F,0,0,1,0,0.52916667,0,1 @ F,0,0,1,0,0.52916667,0,1 @ F,0,0,1,0,0.52916667,0,1"
       unit="px"
       method="auto"
       mode="F"
       radius="2"
       chamfer_steps="1"
       flexible="false"
       use_knot_distance="true"
       apply_no_radius="true"
       apply_with_radius="true"
       only_selected="false"
       hide_knots="false" /><inkscape:path-effect
       effect="fillet_chamfer"
       id="path-effect3536"
       is_visible="true"
       lpeversion="1"
       nodesatellites_param="F,0,0,1,0,0,0,1 @ F,0,0,1,0,0.52916667,0,1 @ F,0,0,1,0,0.52916667,0,1 @ F,0,0,1,0,0.52916667,0,1 @ F,0,0,1,0,0.52916667,0,1 @ F,0,0,1,0,0.52916667,0,1 @ F,0,0,1,0,0.52916667,0,1 @ F,0,0,1,0,0.52916667,0,1 @ F,0,0,1,0,0.52916667,0,1"
       unit="px"
       method="auto"
       mode="F"
       radius="2"
       chamfer_steps="1"
       flexible="false"
       use_knot_distance="true"
       apply_no_radius="true"
       apply_with_radius="true"
       only_selected="false"
       hide_knots="false" /><inkscape:path-effect
       effect="fillet_chamfer"
       id="path-effect3530"
       is_visible="true"
       lpeversion="1"
       nodesatellites_param="F,0,0,1,0,0,0,1 @ F,0,0,1,0,0.52916667,0,1 @ F,0,0,1,0,0.52916667,0,1 @ F,0,0,1,0,0.52916667,0,1 @ F,0,0,1,0,0.52916667,0,1 @ F,0,0,1,0,0.52916667,0,1 @ F,0,0,1,0,0.52916667,0,1 @ F,0,0,1,0,0.52916667,0,1 @ F,0,0,1,0,0.52916667,0,1"
       unit="px"
       method="auto"
       mode="F"
       radius="2"
       chamfer_steps="1"
       flexible="false"
       use_knot_distance="true"
       apply_no_radius="true"
       apply_with_radius="true"
       only_selected="false"
       hide_knots="false" /><inkscape:path-effect
       effect="fillet_chamfer"
       id="path-effect3524"
       is_visible="true"
       lpeversion="1"
       nodesatellites_param="F,0,0,1,0,0,0,1 @ F,0,0,1,0,0.52916667,0,1 @ F,0,0,1,0,0.52916667,0,1 @ F,0,0,1,0,0.52916667,0,1 @ F,0,0,1,0,0.52916667,0,1 @ F,0,0,1,0,0.52916667,0,1 @ F,0,0,1,0,0.52916667,0,1 @ F,0,0,1,0,0.52916667,0,1 @ F,0,0,1,0,0.52916667,0,1"
       unit="px"
       method="auto"
       mode="F"
       radius="2"
       chamfer_steps="1"
       flexible="false"
       use_knot_distance="true"
       apply_no_radius="true"
       apply_with_radius="true"
       only_selected="false"
       hide_knots="false" /><inkscape:path-effect
       effect="fillet_chamfer"
       id="path-effect3518"
       is_visible="true"
       lpeversion="1"
       nodesatellites_param="F,0,0,1,0,0,0,1 @ F,0,0,1,0,0.52916667,0,1 @ F,0,0,1,0,0.52916667,0,1 @ F,0,0,1,0,0.52916667,0,1 @ F,0,0,1,0,0.52916667,0,1 @ F,0,0,1,0,0.52916667,0,1 @ F,0,0,1,0,0.52916667,0,1 @ F,0,0,1,0,0.52916667,0,1 @ F,0,0,1,0,0.52916667,0,1"
       unit="px"
       method="auto"
       mode="F"
       radius="2"
       chamfer_steps="1"
       flexible="false"
       use_knot_distance="true"
       apply_no_radius="true"
       apply_with_radius="true"
       only_selected="false"
       hide_knots="false" /><inkscape:path-effect
       effect="fillet_chamfer"
       id="path-effect3512"
       is_visible="true"
       lpeversion="1"
       nodesatellites_param="F,0,0,1,0,0,0,1 @ F,0,0,1,0,0.52916667,0,1 @ F,0,0,1,0,0.52916667,0,1 @ F,0,0,1,0,0.52916667,0,1 @ F,0,0,1,0,0.52916667,0,1 @ F,0,0,1,0,0.52916667,0,1 @ F,0,0,1,0,0.52916667,0,1 @ F,0,0,1,0,0.52916667,0,1 @ F,0,0,1,0,0.52916667,0,1"
       unit="px"
       method="auto"
       mode="F"
       radius="2"
       chamfer_steps="1"
       flexible="false"
       use_knot_distance="true"
       apply_no_radius="true"
       apply_with_radius="true"
       only_selected="false"
       hide_knots="false" /><inkscape:path-effect
       effect="fillet_chamfer"
       id="path-effect3504"
       is_visible="true"
       lpeversion="1"
       nodesatellites_param="F,0,0,1,0,0,0,1 @ F,0,0,1,0,0.52916667,0,1 @ F,0,0,1,0,0.52916667,0,1 @ F,0,0,1,0,0.52916667,0,1 @ F,0,0,1,0,0.52916667,0,1 @ F,0,0,1,0,0.52916667,0,1"
       unit="px"
       method="bezier"
       mode="F"
       radius="2"
       chamfer_steps="1"
       flexible="false"
       use_knot_distance="true"
       apply_no_radius="true"
       apply_with_radius="true"
       only_selected="false"
       hide_knots="false" /><inkscape:path-effect
       effect="fillet_chamfer"
       id="path-effect3452"
       is_visible="true"
       lpeversion="1"
       nodesatellites_param="F,0,0,1,0,0,0,1 @ F,0,0,1,0,0.52916667,0,1 @ F,0,0,1,0,0.52916667,0,1 @ F,0,0,1,0,0.52916667,0,1 @ F,0,0,1,0,0.52916667,0,1 @ F,0,0,1,0,0.52916667,0,1 @ F,0,0,1,0,0.52916667,0,1 @ F,0,0,1,0,0,0,1"
       unit="px"
       method="auto"
       mode="F"
       radius="2"
       chamfer_steps="1"
       flexible="false"
       use_knot_distance="true"
       apply_no_radius="true"
       apply_with_radius="true"
       only_selected="false"
       hide_knots="false" /><inkscape:path-effect
       effect="fillet_chamfer"
       id="path-effect3444"
       is_visible="true"
       lpeversion="1"
       nodesatellites_param="F,0,0,1,0,0,0,1 @ F,0,0,1,0,0.52916667,0,1 @ F,0,0,1,0,0.52916667,0,1 @ F,0,0,1,0,0.52916667,0,1 @ F,0,0,1,0,0.52916667,0,1 @ F,0,0,1,0,0.52916667,0,1 @ F,0,0,1,0,0,0,1"
       unit="px"
       method="auto"
       mode="F"
       radius="2"
       chamfer_steps="1"
       flexible="false"
       use_knot_distance="true"
       apply_no_radius="true"
       apply_with_radius="true"
       only_selected="false"
       hide_knots="false" /><inkscape:path-effect
       effect="fillet_chamfer"
       id="path-effect3438"
       is_visible="true"
       lpeversion="1"
       nodesatellites_param="F,0,0,1,0,0,0,1 @ F,0,0,1,0,0.52916667,0,1 @ F,0,0,1,0,0.52916667,0,1 @ F,0,0,1,0,0.52916667,0,1 @ F,0,0,1,0,0.52916667,0,1 @ F,0,0,1,0,0.52916667,0,1 @ F,0,0,1,0,0,0,1"
       unit="px"
       method="auto"
       mode="F"
       radius="2"
       chamfer_steps="1"
       flexible="false"
       use_knot_distance="true"
       apply_no_radius="true"
       apply_with_radius="true"
       only_selected="false"
       hide_knots="false" /><inkscape:path-effect
       effect="fillet_chamfer"
       id="path-effect3430"
       is_visible="true"
       lpeversion="1"
       nodesatellites_param="F,0,0,1,0,0,0,1 @ F,0,0,1,0,0.52916667,0,1 @ F,0,0,1,0,0.52916667,0,1 @ F,0,0,1,0,0.52916667,0,1 @ F,0,0,1,0,0.52916667,0,1 @ F,0,0,1,0,0.52916667,0,1 @ F,0,0,1,0,0.52916667,0,1 @ F,0,0,1,0,0.52916667,0,1 @ F,0,0,1,0,0.52916667,0,1"
       unit="px"
       method="auto"
       mode="F"
       radius="2"
       chamfer_steps="1"
       flexible="false"
       use_knot_distance="true"
       apply_no_radius="true"
       apply_with_radius="true"
       only_selected="false"
       hide_knots="false" /><inkscape:path-effect
       effect="fillet_chamfer"
       id="path-effect3428"
       is_visible="true"
       lpeversion="1"
       nodesatellites_param="F,0,0,1,0,0,0,1 @ F,0,0,1,0,0.52916667,0,1 @ F,0,0,1,0,0.52916667,0,1 @ F,0,0,1,0,0.52916667,0,1 @ F,0,0,1,0,0.52916667,0,1 @ F,0,0,1,0,0.52916667,0,1 @ F,0,0,1,0,0.52916667,0,1"
       unit="px"
       method="auto"
       mode="F"
       radius="2"
       chamfer_steps="1"
       flexible="false"
       use_knot_distance="true"
       apply_no_radius="true"
       apply_with_radius="true"
       only_selected="false"
       hide_knots="false" /><inkscape:path-effect
       effect="fillet_chamfer"
       id="path-effect3426"
       is_visible="true"
       lpeversion="1"
       nodesatellites_param="F,0,0,1,0,0,0,1 @ F,0,0,1,0,0.52916667,0,1 @ F,0,0,1,0,0.52916667,0,1 @ F,0,0,1,0,0.52916667,0,1 @ F,0,0,1,0,0.52916667,0,1 @ F,0,0,1,0,0.52916667,0,1"
       unit="px"
       method="auto"
       mode="F"
       radius="2"
       chamfer_steps="1"
       flexible="false"
       use_knot_distance="true"
       apply_no_radius="true"
       apply_with_radius="true"
       only_selected="false"
       hide_knots="false" /><inkscape:path-effect
       effect="fillet_chamfer"
       id="path-effect3424"
       is_visible="true"
       lpeversion="1"
       nodesatellites_param="F,0,0,1,0,0,0,1 @ F,0,0,1,0,0.52916667,0,1 @ F,0,0,1,0,0.52916667,0,1 @ F,0,0,1,0,0.52916667,0,1 @ F,0,0,1,0,0.52916667,0,1 @ F,0,0,1,0,0.52916667,0,1"
       unit="px"
       method="bezier"
       mode="F"
       radius="2"
       chamfer_steps="1"
       flexible="false"
       use_knot_distance="true"
       apply_no_radius="true"
       apply_with_radius="true"
       only_selected="false"
       hide_knots="false" /></defs><g
     inkscape:label="Calque 1"
     inkscape:groupmode="layer"
     id="layer1"><g
       id="g2784"
       transform="matrix(2.0000006,0,0,2.009077,-157.16161,62.661648)"
       inkscape:export-filename=".\g2784.pdf"
       inkscape:export-xdpi="360"
       inkscape:export-ydpi="360"><path
         style="fill:#87cdde;stroke:#000000;stroke-width:0.1;stroke-linecap:butt;stroke-linejoin:round;stroke-dasharray:none;stroke-dashoffset:0"
         d="m 90.736459,-23.351111 c -0.430794,0.518651 -8.175139,0.08717 -10.841046,-0.963514 3.829382,-3.58897 9.712444,-1.800894 10.778319,-1.083948 z"
         id="path1956"
         sodipodi:nodetypes="cccc" /><path
         style="fill:#ffffff;stroke:#000000;stroke-width:0.2;stroke-linecap:square;stroke-linejoin:round;stroke-dasharray:none"
         d="m 92.32465,-30.093789 c -3.70771,0 -11.35759,2.971773 -12.64388,5.965724 5.2948,-3.782273 11.07369,-1.704508 11.07369,0.07233 v 5.708177"
         id="path1730"
         sodipodi:nodetypes="ccsc" /><path
         style="fill:#ffffff;stroke:#000000;stroke-width:0.2;stroke-linecap:butt;stroke-linejoin:round;stroke-dasharray:0.4, 0.4;stroke-dashoffset:0"
         d="m 92.3246,-30.078127 v 11.730574 h -1.469429"
         id="path1891"
         sodipodi:nodetypes="ccc" /></g><g
       id="g2794"
       transform="matrix(2.0000006,0,0,2.009077,-153.20892,62.661648)"><path
         style="fill:#87cdde;stroke:#000000;stroke-width:0.1;stroke-linecap:butt;stroke-linejoin:round;stroke-dasharray:none;stroke-dashoffset:0"
         d="m 111.53021,-24.314625 c 3.82938,-3.58897 9.23303,-1.485182 10.29891,-0.768236 -0.80304,2.724758 -7.7384,1.69254 -10.29891,0.768236 z"
         id="path2763"
         sodipodi:nodetypes="ccc" /><path
         style="fill:#ffffff;stroke:#000000;stroke-width:0.2;stroke-linecap:square;stroke-linejoin:round;stroke-dasharray:none"
         d="m 123.92637,-30.093789 c -3.70771,0 -11.35759,2.971773 -12.64388,5.965724 5.2948,-3.782273 11.07369,-1.704508 11.07369,0.07233 v 5.708177"
         id="path2759"
         sodipodi:nodetypes="ccsc" /><path
         style="fill:#ffffff;stroke:#000000;stroke-width:0.2;stroke-linecap:butt;stroke-linejoin:round;stroke-dasharray:0.4, 0.4;stroke-dashoffset:0"
         d="m 123.92632,-30.078127 v 11.730574 h -1.46942"
         id="path2761"
         sodipodi:nodetypes="ccc" /></g><g
       id="g2789"
       transform="matrix(2.0000006,0,0,2.009077,-153.89191,62.661648)"><path
         style="fill:#87cdde;stroke:#000000;stroke-width:0.1;stroke-linecap:butt;stroke-linejoin:round;stroke-dasharray:none;stroke-dashoffset:0"
         d="m 105.89064,-23.909217 c -0.38871,0.126845 -0.22087,0.682016 -0.48017,0.708709 -1.36476,0.140495 -2.87993,0.04728 -4.10218,-0.04386 -2.323263,-0.173234 -4.925741,-0.544916 -6.258695,-1.070258 3.829382,-3.58897 9.712445,-1.800894 10.778315,-1.083948 z"
         id="path2765"
         sodipodi:nodetypes="cssccc" /><path
         style="fill:#ffffff;stroke:#000000;stroke-width:0.2;stroke-linecap:square;stroke-linejoin:round;stroke-dasharray:none"
         d="m 107.47883,-30.093789 c -3.70771,0 -11.357588,2.971773 -12.643878,5.965724 5.294798,-3.782273 11.073688,-1.704508 11.073688,0.07233 v 5.708177"
         id="path2767"
         sodipodi:nodetypes="ccsc" /><path
         style="fill:#ffffff;stroke:#000000;stroke-width:0.2;stroke-linecap:butt;stroke-linejoin:round;stroke-dasharray:0.4, 0.4;stroke-dashoffset:0"
         d="m 107.47878,-30.078127 v 11.730574 h -1.46943"
         id="path2769"
         sodipodi:nodetypes="ccc" /></g><g
       id="g2799"
       transform="matrix(2.0000006,0,0,2.009077,-151.93619,62.661648)"><path
         style="fill:#87cdde;stroke:#000000;stroke-width:0.1;stroke-linecap:butt;stroke-linejoin:round;stroke-dasharray:none;stroke-dashoffset:0"
         d="m 138.49085,-19.299679 c -1.14078,-5.313065 -5.77464,-3.217737 -10.84105,-5.014946 3.82938,-3.58897 9.96049,-1.883576 10.77832,-0.05869 z"
         id="path2771"
         sodipodi:nodetypes="cccc" /><path
         style="fill:#ffffff;stroke:#000000;stroke-width:0.2;stroke-linecap:square;stroke-linejoin:round;stroke-dasharray:none"
         d="m 140.07904,-30.093789 c -3.70771,0 -11.35759,2.971773 -12.64388,5.965724 5.2948,-3.782273 11.07369,-1.704508 11.07369,0.07233 v 5.708177"
         id="path2773"
         sodipodi:nodetypes="ccsc" /><path
         style="fill:#ffffff;stroke:#000000;stroke-width:0.2;stroke-linecap:butt;stroke-linejoin:round;stroke-dasharray:0.4, 0.4;stroke-dashoffset:0"
         d="m 140.07899,-30.078127 v 11.730574 h -1.46943"
         id="path2775"
         sodipodi:nodetypes="ccc" /></g><g
       id="g4528"
       transform="matrix(2.0000006,0,0,2.009077,-150.72603,62.661648)"><path
         style="fill:#87cdde;stroke:#000000;stroke-width:0.1;stroke-linecap:butt;stroke-linejoin:round;stroke-dasharray:none;stroke-dashoffset:0"
         d="m 153.91347,-23.402873 c -0.37303,0.181582 -1.11768,0.281395 -1.88509,0.260349 -2.62033,-0.07186 -6.47005,-0.492423 -8.19459,-1.172101 3.82938,-3.58897 9.08686,-1.619652 10.15274,-0.902706 0.007,0.971406 0.0233,1.063565 -0.0731,1.814458 z"
         id="path4331"
         sodipodi:nodetypes="csccc" /><path
         id="path4520"
         style="opacity:1;fill:#ffffff;fill-opacity:1;stroke:#000000;stroke-width:0.2;stroke-linecap:butt;stroke-linejoin:round;stroke-dasharray:none;stroke-dashoffset:0"
         d="m 156.26281,-30.09377 c -3.7077,0 -11.35738,2.971579 -12.64367,5.965527 4.00174,-2.858591 8.27919,-2.3695 10.13013,-1.193209 0.004,0.472567 0.0139,1.750281 0.0139,1.971973 0,0.264583 0.39223,0.239779 0.39223,0 0,-0.166372 0.0201,-1.064982 0.0186,-1.652612 0.33333,0.301574 0.51883,0.628684 0.51883,0.946195 v 5.708179"
         sodipodi:nodetypes="cccsscsc" /><path
         style="fill:#ffffff;stroke:#000000;stroke-width:0.2;stroke-linecap:butt;stroke-linejoin:round;stroke-dasharray:0.4, 0.4;stroke-dashoffset:0"
         d="m 156.26297,-30.078127 v 11.730574 h -1.46942"
         id="path4335"
         sodipodi:nodetypes="ccc" /></g><g
       id="g3551"
       transform="matrix(2.0436912,0,0,2.0436912,-30.804394,-18.302562)"
       style="stroke-width:0.24465536;stroke-dasharray:none"><g
         id="g3546"
         style="stroke-width:0.24465536;stroke-dasharray:none"><path
           style="fill:none;stroke:#000000;stroke-width:0.24465536;stroke-linejoin:round;stroke-dasharray:none;stroke-dashoffset:0.397499"
           d="m 25.466145,38.374273 0,-2.496919 c 0,-0.292251 0.231913,-0.577846 0.516009,-0.646368 3.252561,-0.784491 5.172374,-2.135399 7.045091,-3.506324 0.235356,-0.172292 0.189124,-0.315944 -0.103089,-0.320622 L 16.420635,31.13986 c -0.292213,-0.0047 -0.358314,0.155821 -0.141139,0.35137 1.809396,1.62922 3.950795,2.876553 7.023764,3.779045 0.280438,0.08236 0.509239,0.380974 0.509239,0.673225 v 2.430859"
           id="path2831"
           sodipodi:nodetypes="cccccc"
           inkscape:path-effect="#path-effect3424"
           inkscape:original-d="m 25.466145,38.374273 v -3.026086 c 3.827191,-0.816844 5.875075,-2.389892 7.98711,-3.935677 L 15.891536,31.13139 c 1.988072,1.898197 4.342522,3.308181 7.920963,4.282943 v 2.960026" /><path
           style="fill:none;stroke:#000000;stroke-width:0.24465536;stroke-linejoin:round;stroke-dasharray:none;stroke-dashoffset:0"
           d="m 23.837146,38.324793 h 1.628999"
           id="path3355"
           sodipodi:nodetypes="cc" /></g></g><g
       id="g3555"
       transform="matrix(2.0436912,0,0,2.0436912,-108.73541,-18.302562)"
       style="stroke-width:0.24465536;stroke-dasharray:none"><path
         style="fill:none;stroke:#000000;stroke-width:0.24465536;stroke-linejoin:round;stroke-dasharray:none;stroke-dashoffset:0.397499"
         d="m 84.170571,38.374273 v -3.571788 a 0.52633567,0.52633567 135.15367 0 1 0.529159,-0.526328 l 6.390912,0.03428 c 0.292246,0.0016 0.398991,-0.195146 0.233201,-0.435815 -5.246982,-7.616756 -10.573817,-6.856432 -15.96026,0.0032 -0.180486,0.22985 -0.08637,0.418173 0.205879,0.417257 l 6.418299,-0.0201 a 0.52751169,0.52751169 44.910263 0 1 0.529164,0.527509 l 0,3.571874"
         id="path3357"
         sodipodi:nodetypes="cccccc"
         inkscape:path-effect="#path-effect3426"
         inkscape:original-d="m 84.170571,38.374273 v -4.100955 l 7.44923,0.03996 C 86.172318,26.07276 80.638251,26.918377 75.040298,34.296738 l 7.476627,-0.02342 v 4.101041" /><path
         style="fill:none;stroke:#000000;stroke-width:0.24465536;stroke-linejoin:round;stroke-dasharray:none;stroke-dashoffset:0"
         d="m 82.541572,38.324793 h 1.628999"
         id="path3359"
         sodipodi:nodetypes="cc" /></g><g
       id="g3559"
       transform="matrix(2.0436912,0,0,2.0436912,-118.87702,-18.302562)"
       style="stroke-width:0.24465536;stroke-dasharray:none"><path
         style="fill:none;stroke:#000000;stroke-width:0.24465536;stroke-linejoin:round;stroke-dasharray:none;stroke-dashoffset:0.397499"
         d="m 109.98881,38.374273 v -3.571788 a 0.52551174,0.52551174 135.19855 0 1 0.52915,-0.525499 l 4.70713,0.03262 c 0.29224,0.002 0.53401,-0.233244 0.53174,-0.525479 -0.0293,-3.771389 -1.11586,-7.805947 -5.92475,-8.079396 -0.29177,-0.01659 -0.76609,-0.01647 -1.05785,-2.87e-4 -4.86364,0.26973 -6.69862,4.272638 -6.85262,8.063249 -0.0119,0.292 0.2262,0.528177 0.51845,0.527112 l 5.36594,-0.01956 a 0.52724108,0.52724108 44.895563 0 1 0.52916,0.527238 v 3.571874"
         id="path3415"
         sodipodi:nodetypes="ccczccc"
         inkscape:path-effect="#path-effect3428"
         inkscape:original-d="m 109.98881,38.374273 v -4.100955 l 5.76543,0.03996 c 0.0694,-4.046655 -0.95368,-8.623266 -6.45111,-8.623266 -5.49742,0 -7.39223,4.535502 -7.39223,8.606726 l 6.42426,-0.02342 v 4.101041" /><path
         style="fill:none;stroke:#000000;stroke-width:0.24465536;stroke-linejoin:round;stroke-dasharray:none;stroke-dashoffset:0"
         d="m 108.35981,38.324793 h 1.629"
         id="path3417"
         sodipodi:nodetypes="cc" /></g><g
       id="g3563"
       transform="matrix(2.0436912,0,0,2.0436912,101.29811,-43.311169)"
       style="stroke-width:0.24465536;stroke-dasharray:none"><path
         style="fill:none;stroke:#000000;stroke-width:0.24465536;stroke-linejoin:round;stroke-dasharray:none;stroke-dashoffset:0.397499"
         d="m 22.610167,50.611252 v -2.636345 a 0.52506398,0.52506398 135.22297 0 1 0.529151,-0.525048 l 4.075704,0.03172 c 0.292242,0.0023 0.535422,-0.233006 0.522424,-0.524921 -0.129131,-2.900188 -1.777413,-3.613977 -2.996937,-4.891381 -0.201586,-0.211154 -0.49521,-0.583777 -0.663948,-0.822354 -0.830609,-1.174388 -1.070735,-2.016589 -1.840762,-2.260941 -0.277336,-0.08801 -0.766468,-0.08426 -1.04237,0.0081 -0.853132,0.285703 -1.30065,1.295775 -2.204373,2.513341 -0.173245,0.233408 -0.470329,0.601618 -0.672028,0.812994 -1.194119,1.251402 -2.606016,1.872314 -2.764493,4.624368 -0.01678,0.29142 0.222238,0.527309 0.514486,0.526046 l 4.360334,-0.01885 a 0.5268845,0.5268845 44.876182 0 1 0.529162,0.52688 v 2.636431"
         id="path3419"
         sodipodi:nodetypes="cccszsccc"
         inkscape:path-effect="#path-effect3430"
         inkscape:original-d="M 22.610167,50.611252 V 47.44574 l 5.134006,0.03996 c 0.06279,-3.661075 -2.060219,-4.180461 -3.351131,-5.818753 -1.290911,-1.638292 -1.339599,-2.757741 -2.67903,-2.757741 -1.33943,0 -1.728309,1.37943 -3.047044,3.010515 -1.318734,1.631086 -3.129109,2.040504 -3.129109,5.549439 l 5.418658,-0.02342 v 3.165598" /><path
         style="fill:none;stroke:#000000;stroke-width:0.24465536;stroke-linejoin:round;stroke-dasharray:none;stroke-dashoffset:0"
         d="m 20.981167,50.561772 h 1.629"
         id="path3421"
         sodipodi:nodetypes="cc" /></g><g
       id="g3567"
       transform="matrix(2.0436912,0,0,2.0436912,-74.376591,-12.452424)"
       style="stroke-width:0.244655;stroke-dasharray:none"><path
         style="fill:none;stroke:#000000;stroke-width:0.244655;stroke-linejoin:round;stroke-dasharray:none;stroke-dashoffset:0.397499"
         d="m 46.822996,50.628581 v -3.571788 a 0.52633567,0.52633567 135.15367 0 1 0.529159,-0.526328 l 6.390912,0.03428 c 0.292246,0.0016 0.390517,-0.189302 0.21487,-0.422875 -2.452058,-3.260691 -5.948954,-6.571082 -7.276513,-7.458339 -0.240757,-0.160906 -0.701103,-0.161586 -0.945292,-0.0054 -1.398964,0.894932 -5.227048,4.307391 -7.719204,7.454828 -0.181377,0.229068 -0.08729,0.417319 0.204959,0.416403 l 6.418299,-0.0201 a 0.52751169,0.52751169 44.910263 0 1 0.529164,0.527509 l 0,3.571874"
         id="path3432"
         sodipodi:nodetypes="ccczccc"
         inkscape:path-effect="#path-effect3438"
         inkscape:original-d="m 46.822996,50.628581 v -4.100955 l 7.44923,0.03996 c -2.854501,-3.941504 -7.449952,-8.114336 -8.06185,-8.114336 -0.611898,0 -5.660791,4.332319 -8.517653,8.097796 l 7.476627,-0.02342 v 4.101041" /><path
         style="fill:none;stroke:#000000;stroke-width:0.244655;stroke-linejoin:round;stroke-dasharray:none;stroke-dashoffset:0"
         d="m 45.193997,50.579101 h 1.628999"
         id="path3434"
         sodipodi:nodetypes="cc" /></g><g
       id="g3571"
       transform="matrix(2.0436912,0,0,2.0436912,-106.00828,-12.452424)"
       style="stroke-width:0.244655;stroke-dasharray:none"><path
         style="fill:none;stroke:#000000;stroke-width:0.244655;stroke-linejoin:round;stroke-dasharray:none;stroke-dashoffset:0.397499"
         d="m 82.74402,50.628581 v -3.571788 a 0.52582523,0.52582523 135.18147 0 1 0.529156,-0.525815 l 5.249902,0.03326 c 0.292245,0.0019 0.400809,-0.195793 0.244861,-0.442957 -1.143482,-1.81232 -2.48582,-4.124863 -3.547494,-5.608679 -0.168947,-0.236124 -0.54649,-0.460195 -0.836239,-0.498293 -1.6268,-0.213898 -2.454319,-0.111655 -4.05037,-0.01295 -0.291533,0.01803 -0.695944,0.197875 -0.890407,0.415983 -1.275067,1.430105 -2.916079,3.969024 -4.191412,5.710145 -0.172338,0.235281 -0.07844,0.422669 0.21381,0.421557 l 5.095384,-0.01939 a 0.52715658,0.52715658 44.890971 0 1 0.529163,0.527153 v 3.571874"
         id="path3446"
         sodipodi:nodetypes="cccccccc"
         inkscape:path-effect="#path-effect3452"
         inkscape:original-d="m 82.74402,50.628581 v -4.100955 l 6.308214,0.03996 c -1.311495,-2.036898 -2.959008,-4.933562 -4.144296,-6.477727 -2.178847,-0.339786 -2.961732,-0.171977 -5.102097,-0.05801 -1.414698,1.413204 -3.440746,4.636463 -4.869177,6.519201 l 6.15371,-0.02342 v 4.101041" /><path
         style="fill:none;stroke:#000000;stroke-width:0.244655;stroke-linejoin:round;stroke-dasharray:none;stroke-dashoffset:0"
         d="M 81.115021,50.579101 H 82.74402"
         id="path3448"
         sodipodi:nodetypes="cc" /></g><g
       id="g3575"
       transform="matrix(2.0436912,0,0,2.0436912,0.16773016,-37.155252)"
       style="stroke-width:0.244655;stroke-dasharray:none"><path
         style="fill:none;stroke:#000000;stroke-width:0.244655;stroke-linejoin:round;stroke-dasharray:none;stroke-dashoffset:0.397499"
         d="m 51.395311,62.715939 v -2.898008 c 0,-0.292251 0.231863,-0.577983 0.5164,-0.644664 3.303102,-0.774081 5.369505,-1.966683 7.135026,-4.039055 0.189514,-0.222452 0.124292,-0.301967 -0.139788,-0.176794 -5.430551,2.574067 -10.968837,2.520215 -16.605749,-0.01106 -0.2666,-0.119717 -0.361691,-0.01637 -0.198338,0.225916 1.6346,2.424394 3.99529,3.183107 7.128428,4.043215 0.281776,0.07735 0.510375,0.376341 0.510375,0.668592 v 2.831948"
         id="path3498"
         sodipodi:nodetypes="cccccc"
         inkscape:path-effect="#path-effect3504"
         inkscape:original-d="m 51.395311,62.715939 v -3.427175 c 3.827191,-0.816844 6.056976,-2.124822 7.98711,-4.563576 -5.736696,2.884795 -11.594195,2.825291 -17.561719,-4.87e-4 1.723489,2.923457 4.342522,3.655447 7.920963,4.630209 v 3.361115" /><path
         style="fill:none;stroke:#000000;stroke-width:0.244655;stroke-linejoin:round;stroke-dasharray:none;stroke-dashoffset:0"
         d="m 49.766312,62.666459 h 1.628999"
         id="path3500"
         sodipodi:nodetypes="cc" /></g><g
       id="g3579"
       transform="matrix(2.0436912,0,0,2.0436912,42.46331,-59.122286)"
       style="stroke-width:0.244655;stroke-dasharray:none"><path
         style="fill:none;stroke:#000000;stroke-width:0.244655;stroke-linejoin:round;stroke-dasharray:none;stroke-dashoffset:0"
         d="m 49.575885,73.415164 h 1.629"
         id="path3508"
         sodipodi:nodetypes="cc" /><path
         style="fill:none;stroke:#000000;stroke-width:0.244655;stroke-linejoin:round;stroke-dasharray:none;stroke-dashoffset:0.397499"
         d="M 49.556958,73.464644 V 70.828291 A 0.52620455,0.52620455 44.839188 0 0 49.0278,70.302094 l -6.067401,0.03406 c -0.292246,0.0016 -0.539816,-0.237993 -0.473958,-0.521973 0.47532,-2.049576 3.883612,-3.141914 5.609108,-3.738122 0.276034,-0.09538 0.725083,-0.255905 0.971267,-0.412439 0.396487,-0.252103 0.585333,-0.535672 0.85823,-0.696294 0.248523,-0.146277 0.768573,-0.139914 1.000962,0.02854 0.29482,0.213704 0.509497,0.602076 1.118737,0.896914 0.262504,0.127037 0.721834,0.251415 1.00227,0.333676 1.608292,0.471763 4.84726,1.539851 5.332514,3.572138 0.06767,0.283408 -0.175504,0.523227 -0.467753,0.522281 l -6.172004,-0.01997 a 0.52745686,0.52745686 135.09271 0 0 -0.529164,0.527454 l 0,2.636433"
         id="path3526"
         sodipodi:nodetypes="cccszzccc"
         inkscape:path-effect="#path-effect3530"
         inkscape:original-d="m 49.556958,73.464644 v -3.16552 l -7.125717,0.04 c -0.04515,-2.63238 4.609001,-3.85292 6.162328,-4.44084 1.035557,-0.391948 1.053007,-1.060383 1.837333,-1.060383 0.784326,0 0.728826,0.842204 2.107731,1.241693 1.378905,0.39948 5.902307,1.59935 5.902307,4.24299 l -7.230332,-0.0234 v 3.1656" /></g></g></svg>
