<?xml version="1.0" encoding="UTF-8" standalone="no"?>
<!-- Created with Inkscape (http://www.inkscape.org/) -->

<svg
   width="160mm"
   height="48mm"
   viewBox="0 0 160 48"
   version="1.1"
   id="svg5"
   xml:space="preserve"
   inkscape:version="1.1.2 (0a00cf5339, 2022-02-04)"
   sodipodi:docname="anat-toplames.svg"
   inkscape:export-filename="Anat-InsertionLames.pdf"
   inkscape:export-xdpi="360"
   inkscape:export-ydpi="360"
   xmlns:inkscape="http://www.inkscape.org/namespaces/inkscape"
   xmlns:sodipodi="http://sodipodi.sourceforge.net/DTD/sodipodi-0.dtd"
   xmlns="http://www.w3.org/2000/svg"
   xmlns:svg="http://www.w3.org/2000/svg"><sodipodi:namedview
     id="namedview7"
     pagecolor="#ffffff"
     bordercolor="#000000"
     borderopacity="0.25"
     inkscape:showpageshadow="2"
     inkscape:pageopacity="0.0"
     inkscape:pagecheckerboard="0"
     inkscape:deskcolor="#d1d1d1"
     inkscape:document-units="mm"
     showgrid="false"
     inkscape:zoom="0.70710678"
     inkscape:cx="364.8671"
     inkscape:cy="96.873629"
     inkscape:window-width="1883"
     inkscape:window-height="1062"
     inkscape:window-x="37"
     inkscape:window-y="0"
     inkscape:window-maximized="1"
     inkscape:current-layer="layer1"
     inkscape:pageshadow="2"
     inkscape:snap-global="false" /><defs
     id="defs2"><rect
       x="802.13354"
       y="612.43866"
       width="63.554272"
       height="43.472282"
       id="rect57112" /><rect
       x="808.32562"
       y="620.8114"
       width="80.540253"
       height="28.767313"
       id="rect50658" /><rect
       x="563.56409"
       y="620.13263"
       width="54.44722"
       height="34.648232"
       id="rect25085" /><rect
       x="156.27058"
       y="563.56409"
       width="91.216774"
       height="33.58757"
       id="rect3751" /><rect
       x="802.13354"
       y="612.43866"
       width="83.180931"
       height="25.420862"
       id="rect59502" /><rect
       x="802.13354"
       y="612.43866"
       width="98.543716"
       height="47.714924"
       id="rect69919" /><rect
       x="802.13354"
       y="612.43866"
       width="104.83438"
       height="36.768047"
       id="rect69921" /><rect
       x="802.13354"
       y="612.43866"
       width="80.168564"
       height="47.81216"
       id="rect73663" /><rect
       x="802.13354"
       y="612.43866"
       width="104.83438"
       height="36.768047"
       id="rect73665" /></defs><g
     inkscape:label="Calque 1"
     inkscape:groupmode="layer"
     id="layer1"><g
       id="g45051"
       transform="translate(3.0002226,0.71600161)"
       inkscape:export-filename="anat-insertionslames.pdf"
       inkscape:export-xdpi="360"
       inkscape:export-ydpi="360" /><text
       xml:space="preserve"
       transform="scale(0.26458333)"
       id="text3749"
       style="font-style:normal;font-variant:normal;font-weight:normal;font-stretch:normal;font-size:24px;font-family:'Liberation Sans';-inkscape-font-specification:'Liberation Sans';white-space:pre;shape-inside:url(#rect3751);display:inline;fill:#000000;stroke:none;stroke-width:1.88976;stroke-linejoin:round;stroke-dasharray:0.999999, 3" /><text
       xml:space="preserve"
       transform="scale(0.26458333)"
       id="text25083"
       style="font-style:normal;font-variant:normal;font-weight:normal;font-stretch:normal;font-size:24px;font-family:'Liberation Sans';-inkscape-font-specification:'Liberation Sans';text-align:end;white-space:pre;shape-inside:url(#rect25085);display:inline;fill:#ff2a2a;fill-opacity:1;stroke:none;stroke-width:1.88976;stroke-linejoin:round;stroke-dasharray:none" /><path
       id="path47849"
       style="fill:none;stroke:#149cb8;stroke-width:0.404423;stroke-linecap:butt;stroke-linejoin:miter;stroke-miterlimit:4;stroke-dasharray:none;stroke-opacity:1"
       inkscape:transform-center-x="3.1979177"
       inkscape:transform-center-y="11.913479"
       d="m 19.051458,24.914093 -3.619301,14.530305 m 2.676015,-14.894549 -6.543045,13.46913 M 17.26306,24.000653 8.0865753,35.833711 M 15.968149,22.389008 2.7084393,29.346668 M 15.622377,21.47024 1.2381703,25.632398 M 15.464258,20.500677 0.53668879,21.682502 M 15.620052,18.961737 1.075289,15.401016 M 15.9134,18.154934 2.2202909,12.094587 M 16.416573,17.311783 4.2181396,8.6268943 M 17.06189,16.600241 6.799985,5.6950918 M 17.816816,16.042482 9.8452787,3.3663847 M 18.662869,15.638342 13.266331,1.670286 m 6.31301,23.3429 -2.007292,14.839143 M 18.568213,24.741445 13.434308,38.80815 M 17.668686,24.279594 9.7394817,36.982221 M 16.88631,23.644205 6.5112271,34.441738 M 16.335749,22.98625 4.2262887,31.794771 M 15.76889,21.904793 1.848414,27.422889 M 15.539703,21.070367 0.86215816,24.036637 M 15.467281,19.973795 0.49838995,19.572193 M 15.523071,19.433779 0.69198715,17.367917 M 15.784763,18.459929 1.6974935,13.382744 M 16.161695,17.688624 3.1853549,10.21576 M 16.751111,16.903336 5.5383172,6.9785074 M 17.374671,16.33495 8.0439997,4.6230983 M 18.277605,15.78905 11.689648,2.3418301 M 19.109736,15.490687 15.062252,1.0737926 M 19.759744,15.368794 17.703658,0.53634503"
       inkscape:export-filename="/home/ekr/projects/champis/anat-toplames.pdf"
       inkscape:export-xdpi="360"
       inkscape:export-ydpi="360" /><path
       id="path48373"
       style="fill:none;stroke:#149cb8;stroke-width:0.404423;stroke-linecap:round;stroke-linejoin:miter;stroke-miterlimit:4;stroke-dasharray:none;stroke-opacity:1"
       inkscape:transform-center-x="-3.2708816"
       inkscape:transform-center-y="17.379052"
       d="m 26.994019,40.014038 -0.864423,-4.85997 m 4.107945,3.884391 -2.056157,-5.639323 m 0.43434,6.226656 -3.98591,-14.44845 m 9.427237,12.108844 -2.401129,-3.875817 m 0.848894,4.705662 -6.874288,-13.314833 M 36.677499,35.242233 33.860694,32.031631 M 35.346826,36.348946 26.333354,24.3442 m 13.180605,7.799193 -4.22908,-3.177115 m 3.185406,4.536441 -11.344454,-9.876076 m 14.374936,5.485065 -4.202408,-2.096517 m 3.316894,3.577403 -12.965705,-7.71203 m 15.302692,2.243808 -4.180579,-1.070638 m 3.648874,2.69747 -14.311563,-4.835957 m 15.420996,-0.64644 -5.089388,-0.312295 m 4.937517,2.04551 L 28.344114,20.96636 M 24.373703,0.28769577 24.076301,5.0785795 M 26.074897,0.47473121 24.0543,15.175005 M 27.51078,0.67962192 26.599262,4.8667226 M 29.19139,1.1104637 24.847383,15.364841 M 31.030947,1.7708255 29.283538,5.7899693 M 32.579472,2.4500132 25.702151,15.728053 M 34.112821,3.3156903 31.425654,7.4287715 M 35.52726,4.3495973 26.443883,16.21059 M 36.764389,5.3034891 33.369361,9.0021785 M 38.007463,6.5412252 27.062417,16.782899 M 39.564704,8.1487553 35.442159,11.14941 M 40.551505,9.5816962 27.664582,17.587417 m 13.725191,-6.479126 -4.058777,1.987222 m 4.788346,-0.402219 -14.067909,5.679644 m 14.64135,-4.004241 -4.895195,1.427056 m 5.338351,0.255424 -14.836736,3.167914 m 15.096386,-1.556016 -5.293228,0.626683 m 5.382726,1.085329 -15.088803,0.684334 M 25.255587,40.21906 23.768838,25.120915"
       sodipodi:nodetypes="cccccccccccccccccccccccccccccccccccccccccccccccccccccccccccccccccccc"
       inkscape:export-filename="/home/ekr/projects/champis/anat-toplames.pdf"
       inkscape:export-xdpi="360"
       inkscape:export-ydpi="360" /><path
       id="path46379"
       style="opacity:1;fill:none;fill-opacity:1;stroke:#000000;stroke-width:0.505527;stroke-linecap:round;stroke-linejoin:round;stroke-miterlimit:4;stroke-dasharray:none"
       d="M 23.507075,0.25276375 V 15.395749 a 4.8507134,4.8264461 0 0 1 4.176687,2.412281 4.8507134,4.8264461 0 0 1 0,4.826139 4.8507134,4.8264461 0 0 1 -4.176687,2.412281 V 40.189436 A 19.968377,19.968377 0 0 0 43.475664,20.221362 19.968377,19.968377 0 0 0 23.507075,0.25276375 Z"
       inkscape:export-filename="/home/ekr/projects/champis/anat-toplames.pdf"
       inkscape:export-xdpi="360"
       inkscape:export-ydpi="360" /><path
       id="path47157"
       style="opacity:1;fill:none;fill-opacity:1;stroke:#000000;stroke-width:0.505527;stroke-linecap:round;stroke-linejoin:round;stroke-miterlimit:4;stroke-dasharray:none"
       d="M 20.221362,0.25276375 V 15.395749 a 4.8507134,4.8264461 0 0 0 -4.176696,2.412281 4.8507134,4.8264461 0 0 0 0,4.826139 4.8507134,4.8264461 0 0 0 4.176696,2.412281 V 40.189436 A 19.968377,19.968377 0 0 1 0.25276375,20.221362 19.968377,19.968377 0 0 1 20.221362,0.25276375 Z"
       inkscape:export-filename="/home/ekr/projects/champis/anat-toplames.pdf"
       inkscape:export-xdpi="360"
       inkscape:export-ydpi="360" /><text
       xml:space="preserve"
       transform="scale(0.26458333)"
       id="text50656"
       style="font-size:10.6667px;line-height:1.25;font-family:sans-serif;letter-spacing:0px;word-spacing:0px;white-space:pre;shape-inside:url(#rect50658);display:inline" /><text
       xml:space="preserve"
       transform="matrix(0.26750884,0,0,0.26750884,-211.10493,-121.36866)"
       id="text57110"
       style="font-style:normal;font-variant:normal;font-weight:normal;font-stretch:normal;font-size:13.3333px;line-height:1.25;font-family:'Liberation Sans';-inkscape-font-specification:'Liberation Sans';text-align:end;letter-spacing:0px;word-spacing:0px;white-space:pre;shape-inside:url(#rect57112);display:inline"
       x="37.067825"
       y="0"
       inkscape:export-filename="/home/ekr/projects/champis/anat-toplames.pdf"
       inkscape:export-xdpi="360"
       inkscape:export-ydpi="360"><tspan
         x="814.56133"
         y="624.44948"
         id="tspan850">Simples  </tspan></text><text
       xml:space="preserve"
       transform="matrix(0.26750884,0,0,0.26750884,-191.32331,-121.32687)"
       id="text59500"
       style="font-style:normal;font-variant:normal;font-weight:normal;font-stretch:normal;font-size:13.3333px;line-height:1.25;font-family:'Liberation Sans';-inkscape-font-specification:'Liberation Sans';text-align:start;letter-spacing:0px;word-spacing:0px;white-space:pre;shape-inside:url(#rect59502);display:inline"
       x="-0.9453162"
       y="0"
       inkscape:export-filename="/home/ekr/projects/champis/anat-toplames.pdf"
       inkscape:export-xdpi="360"
       inkscape:export-ydpi="360"><tspan
         x="802.13281"
         y="624.44948"
         id="tspan852"> Inégales</tspan></text><text
       xml:space="preserve"
       transform="matrix(0.26750884,0,0,0.26750884,-163.90703,-121.36866)"
       id="text69913"
       style="font-style:normal;font-variant:normal;font-weight:normal;font-stretch:normal;font-size:13.3333px;line-height:1.25;font-family:'Liberation Sans';-inkscape-font-specification:'Liberation Sans';text-align:end;letter-spacing:0px;word-spacing:0px;white-space:pre;shape-inside:url(#rect69919);display:inline"
       x="37.067825"
       y="0"
       inkscape:export-filename="/home/ekr/projects/champis/anat-toplames.pdf"
       inkscape:export-xdpi="360"
       inkscape:export-ydpi="360"><tspan
         x="833.97868"
         y="624.44948"
         id="tspan854">Fourchues  </tspan></text><text
       xml:space="preserve"
       transform="matrix(0.26750884,0,0,0.26750884,-133.69305,-121.32687)"
       id="text69917"
       style="font-style:normal;font-variant:normal;font-weight:normal;font-stretch:normal;font-size:13.3333px;line-height:1.25;font-family:'Liberation Sans';-inkscape-font-specification:'Liberation Sans';text-align:start;letter-spacing:0px;word-spacing:0px;white-space:pre;shape-inside:url(#rect69921);display:inline"
       x="-0.9453162"
       y="0"
       inkscape:export-filename="/home/ekr/projects/champis/anat-toplames.pdf"
       inkscape:export-xdpi="360"
       inkscape:export-ydpi="360"><tspan
         x="802.13281"
         y="624.44948"
         id="tspan856"> Anastomosées</tspan></text><text
       xml:space="preserve"
       transform="matrix(0.26750884,0,0,0.26750884,-99.278099,-121.32687)"
       id="text73657"
       style="font-style:normal;font-variant:normal;font-weight:normal;font-stretch:normal;font-size:13.3333px;line-height:1.25;font-family:'Liberation Sans';-inkscape-font-specification:'Liberation Sans';text-align:end;letter-spacing:0px;word-spacing:0px;white-space:pre;shape-inside:url(#rect73663);display:inline"
       x="37.067825"
       y="0"
       inkscape:export-filename="/home/ekr/projects/champis/anat-toplames.pdf"
       inkscape:export-xdpi="360"
       inkscape:export-ydpi="360"><tspan
         x="805.96178"
         y="624.44948"
         id="tspan858">Interveinées  </tspan></text><text
       xml:space="preserve"
       transform="matrix(0.26750884,0,0,0.26750884,-75.051747,-121.32687)"
       id="text73661"
       style="font-style:normal;font-variant:normal;font-weight:normal;font-stretch:normal;font-size:13.3333px;line-height:1.25;font-family:'Liberation Sans';-inkscape-font-specification:'Liberation Sans';text-align:start;letter-spacing:0px;word-spacing:0px;white-space:pre;shape-inside:url(#rect73665);display:inline"
       x="-0.9453162"
       y="0"
       inkscape:export-filename="/home/ekr/projects/champis/anat-toplames.pdf"
       inkscape:export-xdpi="360"
       inkscape:export-ydpi="360"><tspan
         x="802.13281"
         y="624.44948"
         id="tspan860"> Collariées</tspan></text><path
       id="path82843"
       style="fill:none;stroke:#149cb8;stroke-width:0.404423;stroke-linecap:round;stroke-linejoin:miter;stroke-miterlimit:4;stroke-dasharray:none;stroke-opacity:1"
       inkscape:transform-center-x="18.311011"
       inkscape:transform-center-y="2.4685582"
       d="M 61.405477,23.120538 C 60.460624,23.10699 59.194862,22.591796 58.00961,22.247349 m 15.132531,10.846266 c -0.257355,0.662172 -1.509256,4.79515 -1.110838,6.214543 m 4.280067,-14.473322 -3.110133,8.184618 c -0.910073,2.323884 -2.021042,3.938108 -3.100962,5.518471 M 65.285004,25.32531 c -0.660918,0.260569 -4.54546,2.147121 -5.317179,3.403248 m 13.532746,-6.682875 -8.120993,3.272681 c -2.324147,0.909395 -4.263607,1.189508 -6.157135,1.46944 M 69.552352,15.235709 c -0.61177,-0.36118 -7.583625,-4.01971 -9.305465,-4.08186 m 13.589314,6.567088 -7.57304,-4.394337 c -2.145857,-1.274336 -3.55889,-2.632024 -4.943543,-3.953586 m 8.489695,23.652759 c -0.386275,0.596251 -1.675494,3.172272 -1.573185,4.642966 m -2.624037,-8.677528 c -0.581893,0.407577 -2.744069,2.310993 -3.201492,3.71248 m 11.600545,-9.655221 -8.510582,6.027487 c -2.047897,1.42645 -2.491498,1.200499 -4.2675,1.914396 m 1.621685,-11.322878 c -0.709884,-0.02791 -3.583146,0.177997 -4.795697,1.016507 M 73.13746,20.022639 62.714675,19.667404 c -2.49353,-0.104533 -2.709805,-0.552937 -4.55553,-1.059982 m 8.564371,-8.517953 C 66.195006,9.6147072 63.852185,7.9386375 62.383584,7.8097681 M 74.410593,16.928269 66.615757,9.9999806 C 64.76341,8.3274192 64.883271,7.8442249 63.786496,6.2755093 m 7.604787,0.2860685 C 71.080959,5.9224987 69.543688,3.4863567 68.232256,2.8129018 M 75.929908,15.795278 71.325251,6.4380468 C 70.240872,4.1902142 70.53418,3.7879551 70.110355,1.9213618 M 76.003867,34.08623 c -0.105969,0.702493 -0.227457,4.685067 0.399044,6.048669 m 0.900781,-15.024408 -1.33873,9.282444 c -0.378651,2.466817 -0.847903,3.627015 -1.718342,5.448707 m -6.040217,-9.660761 c -0.501272,0.503446 -3.023364,3.744804 -3.32566,5.214678 m 9.686725,-11.679215 -6.573984,6.688698 c -1.765487,1.763982 -2.989604,2.4414 -4.76955,3.394311 m 3.47841,-11.250942 c -0.696992,0.137625 -6.992814,1.835736 -8.064534,2.886123 m 14.586611,-4.261686 -7.446941,1.568655 c -2.44968,0.477108 -5.406345,0.308959 -7.450773,0.531533 m 6.168338,-6.482342 c -0.688166,-0.17653 -4.729603,-0.619262 -6.149613,-0.133985 m 14.94771,2.335521 -9.099301,-2.271279 c -2.41583,-0.62637 -3.522583,-1.210619 -5.24683,-2.260966 M 70.061076,9.626304 C 69.634177,9.0584236 66.531334,5.5338484 65.107988,4.9160622 M 75.118757,16.285479 69.888246,9.4007978 C 68.393732,7.4020391 67.056386,5.4504463 66.751633,3.781727 m 7.462855,2.9985323 C 74.020699,6.0967544 72.335479,2.2827843 71.43124,1.3624393 M 76.739987,15.490889 74.123169,6.484879 C 73.448592,4.0820614 73.396442,2.8316468 73.436298,0.81307134 M 75.36226,24.364078 69.73776,33.1462 c -1.362399,2.091048 -1.858383,2.048199 -3.236363,3.376739"
       sodipodi:nodetypes="cccccccccccccccccccccccccccccccccccccccccccccccccccccccccccccccccccccccc"
       inkscape:export-filename="/home/ekr/projects/champis/anat-toplames.pdf"
       inkscape:export-xdpi="360"
       inkscape:export-ydpi="360" /><path
       id="path49021"
       style="opacity:1;fill:none;fill-opacity:1;stroke:#000000;stroke-width:0.505527;stroke-linecap:round;stroke-linejoin:round;stroke-miterlimit:4;stroke-dasharray:none"
       d="M 77.851614,0.25296596 V 15.395951 a 4.8507134,4.8264461 0 0 0 -4.176697,2.412281 4.8507134,4.8264461 0 0 0 0,4.826139 4.8507134,4.8264461 0 0 0 4.176697,2.412281 V 40.189638 A 19.968377,19.968377 0 0 1 57.883015,20.221565 19.968377,19.968377 0 0 1 77.851614,0.25296596 Z"
       inkscape:export-filename="/home/ekr/projects/champis/anat-toplames.pdf"
       inkscape:export-xdpi="360"
       inkscape:export-ydpi="360" /><path
       id="ellipse69084"
       style="opacity:1;fill:#ff00ff;stroke:#149cb8;stroke-width:0.404423;stroke-linecap:round;stroke-linejoin:round;stroke-miterlimit:4;stroke-dasharray:none;stroke-opacity:1"
       inkscape:transform-center-x="0.020770131"
       inkscape:transform-center-y="-0.042707419"
       d="m 146.34234,20.663346 13.12037,1.031683 m -13.32798,-3.182009 12.78873,-3.119768 m -13.14663,1.997757 12.00217,-5.301184 m -12.68812,4.141269 10.69187,-7.6059488 m -11.60119,6.6589928 9.02148,-9.5883385 m -10.02406,8.7873285 6.98131,-11.1140842 m -8.163,10.6141672 4.74474,-12.3090729 m -0.39371,18.3144889 13.15372,-0.349644 m -13.12887,-0.490049 12.93355,-1.791674 m -13.3529,0.458302 12.34761,-4.438773 m -12.9003,3.400195 11.41363,-6.564257 m -12.15118,5.437141 9.80007,-8.6717449 m -10.68992,7.9276579 8.18631,-10.2810953 m -9.45654,9.6069523 5.81376,-11.8865119 m -6.93578,11.4737079 3.56614,-12.7409466 m -4.43498,12.4924386 1.79684,-13.02985586 m -0.88719,26.18187786 3.15652,12.71837 m -1.85393,-13.215072 5.71725,11.790533 m -4.38485,-12.327374 7.86061,10.143683 m -6.20553,-12.546986 11.57888,6.065716 m -11.01822,-7.311409 12.48726,3.600961 m -18.05834,1.27374 1.73984,12.93423 m -0.30984,-13.251551 4.44311,12.207351 m -3.16707,-12.825673 6.85842,11.001201 m -5.76234,-11.892791 8.98762,9.354572 m -8.22344,-10.280559 10.50634,7.635968 m -9.63373,-9.11569 12.00942,4.748116 m -11.84078,-5.964519 12.82694,2.581198"
       sodipodi:nodetypes="cccccccccccccccccccccccccccccccccccccccccccccccccccccccc"
       inkscape:export-filename="/home/ekr/projects/champis/anat-toplames.pdf"
       inkscape:export-xdpi="360"
       inkscape:export-ydpi="360" /><path
       style="opacity:1;fill:none;fill-opacity:1;stroke:#000000;stroke-width:0.5;stroke-linecap:butt;stroke-linejoin:round;stroke-miterlimit:4;stroke-dasharray:none;stroke-dashoffset:0"
       id="path89789"
       sodipodi:type="arc"
       sodipodi:cx="139.77139"
       sodipodi:cy="20.230453"
       sodipodi:rx="6.6780648"
       sodipodi:ry="6.6780648"
       sodipodi:start="4.712389"
       sodipodi:end="1.5707963"
       sodipodi:arc-type="arc"
       d="m 139.77139,13.552389 a 6.6780648,6.6780648 0 0 1 6.67807,6.678064 6.6780648,6.6780648 0 0 1 -6.67807,6.678065"
       sodipodi:open="true"
       inkscape:export-filename="/home/ekr/projects/champis/anat-toplames.pdf"
       inkscape:export-xdpi="360"
       inkscape:export-ydpi="360" /><path
       id="path102228"
       style="fill:none;stroke:#149cb8;stroke-width:0.404423;stroke-linecap:butt;stroke-linejoin:miter;stroke-miterlimit:4;stroke-dasharray:none;stroke-opacity:1"
       d="m 134.02339,37.686827 c -0.11482,-1.508335 2.3468,-7.213872 2.3468,-7.213872 M 133.07845,9.5570264 C 132.84372,7.683659 130.34343,7.0059575 129.40294,3.2146251 m -3.82893,15.1216219 c -3.30549,-0.450376 -5.65876,1.336182 -6.96643,1.354867 m -1.68173,-0.091 c 1.59148,0.06147 2.75134,2.052992 5.14452,1.986111 m 4.87329,-8.01563 c -1.24183,-0.849763 -1.17415,-3.049904 -3.42406,-5.0655876 m 2.02317,-2.3356833 c 0.6356,0.7298012 2.07158,4.3394769 3.17477,5.5083389 0.75861,0.803771 2.33152,3.443509 3.03041,4.104973 M 127.02868,4.8485034 c 1.5356,2.7088442 3.54013,4.8881676 6.55805,8.7902506 m -2.91523,15.570127 c -1.17975,1.845917 -1.54011,5.895272 -2.28455,7.532678 m -0.26623,-7.850676 c -2.1314,2.056349 -2.80046,1.090456 -7.61332,2.882261 m 3.09129,-15.072302 c 1.48925,0.337541 2.99877,1.807325 5.24998,2.173236 m 2.7747,-1.648548 c -2.1087,-1.183625 -3.07173,-0.717871 -5.81704,-1.892163 m -0.0283,5.912227 c -1.095,0.122348 -3.75696,1.982602 -5.27496,2.305634 m 14.81992,1.363097 -3.6193,14.530306 m 2.67601,-14.894549 c -2.47718,4.315687 -4.56691,8.859033 -6.54304,13.46913 m 5.69793,-14.018326 c -2.82818,4.238209 -3.20976,2.243768 -6.44314,5.965732 m 5.14823,-7.577377 c -4.2477,2.626443 -8.71266,4.865277 -13.25971,6.957659 m 12.91394,-7.876427 c -4.87084,1.106491 -9.50799,3.186285 -14.17868,5.451073 m 11.37197,-6.077908 c -4.83266,0.587535 -7.20324,0.922711 -12.27898,0.839096 m 15.08336,-2.720764 c -4.7263,-1.510965 -9.5974,-2.637201 -14.54476,-3.560721 m 14.83811,2.753917 c -9.26172,-4.081192 -8.1489,-3.85879 -13.13815,-5.026015 m 13.64132,4.182864 c -7.04542,-5.430154 -8.19907,-4.138519 -12.36875,-6.566876 m 13.01407,5.855335 -10.2619,-10.9051497 M 134.08834,16.042714 126.1168,3.3666173 m 8.81759,12.2719567 c -2.94228,-7.961497 -1.53979,-7.1719828 -2.68323,-11.2979853 -0.23632,-0.8823596 0.37129,-2.3650343 0.43759,-3.60776496 m 1.69049,27.96921426 c -1.08107,7.679615 -0.0265,7.265193 -0.53567,11.150524 m 0.99616,-15.110885 c -1.7143,4.711951 -3.42338,9.383813 -5.1339,14.066705 m 4.23438,-14.528556 c -2.85768,4.089655 -5.44083,8.364222 -7.92921,12.702628 m 7.14683,-13.338016 -10.37508,10.797533 m 9.82452,-11.455489 c -3.87685,3.09156 -7.87595,6.064128 -12.10946,8.808521 m 10.00695,-8.343162 c -4.50851,1.95128 -5.0124,0.280953 -9.82525,2.072758 M 131.81122,21.0706 c -4.1017,0.89891 -8.20341,1.586328 -12.30512,2.755444 m 12.2327,-3.852016 c -4.9184,0.198308 -9.93221,-0.04833 -14.96889,-0.401602 m 15.02468,-0.138414 c -4.94369,-1.033118 -9.88739,-1.634647 -14.83108,-2.065863 m 8.91541,-2.013671 c -2.50038,-0.845851 -5.29443,0.817591 -7.58364,0.218732 m 14.13794,2.115647 -12.97634,-7.472865 m 13.56575,6.687577 -11.21279,-9.9248291 M 133.64619,16.335183 124.31552,4.6233308 M 134.54913,15.789283 C 132.05771,10.251774 129.54503,4.686805 129.06254,1.7442246 M 135.38126,15.49092 131.33377,1.0740252 m 4.6975,14.2950018 -2.05609,-14.83244943"
       inkscape:export-filename="/home/ekr/projects/champis/anat-toplames.pdf"
       inkscape:export-xdpi="360"
       inkscape:export-ydpi="360" /><path
       id="path69048"
       style="opacity:1;fill:none;fill-opacity:1;stroke:#000000;stroke-width:0.505527;stroke-linecap:round;stroke-linejoin:round;stroke-miterlimit:4;stroke-dasharray:none"
       d="M 136.49292,0.25296596 V 15.395951 a 4.8507134,4.8264461 0 0 0 -4.17669,2.412281 4.8507134,4.8264461 0 0 0 0,4.826139 4.8507134,4.8264461 0 0 0 4.17669,2.412281 v 15.142986 a 19.968377,19.968377 0 0 1 -19.9686,-19.968073 19.968377,19.968377 0 0 1 19.9686,-19.96859904 z"
       inkscape:export-filename="/home/ekr/projects/champis/anat-toplames.pdf"
       inkscape:export-xdpi="360"
       inkscape:export-ydpi="360" /><path
       id="path89629"
       style="opacity:1;fill:none;fill-opacity:1;stroke:#000000;stroke-width:0.505527;stroke-linecap:round;stroke-linejoin:round;stroke-miterlimit:4;stroke-dasharray:none"
       d="M 139.77864,0.25296596 V 15.395951 a 4.8507134,4.8264461 0 0 1 4.17669,2.412281 4.8507134,4.8264461 0 0 1 0,4.826139 4.8507134,4.8264461 0 0 1 -4.17669,2.412281 v 15.142986 a 19.968377,19.968377 0 0 0 19.9686,-19.968073 19.968377,19.968377 0 0 0 -19.9686,-19.96859904 z"
       inkscape:export-filename="/home/ekr/projects/champis/anat-toplames.pdf"
       inkscape:export-xdpi="360"
       inkscape:export-ydpi="360" /><path
       id="path118123"
       style="fill:none;stroke:#149cb8;stroke-width:0.404423;stroke-linecap:round;stroke-linejoin:miter;stroke-miterlimit:4;stroke-dasharray:none;stroke-opacity:1"
       inkscape:transform-center-x="-10.766545"
       inkscape:transform-center-y="6.0505567"
       d="m 88.695616,24.378152 c 0.413492,0.228387 1.310431,1.392721 1.310431,1.392721 m 4.021944,1.742233 c 0.612923,0.36393 1.138461,-0.537397 1.908744,-0.559074 m 0.661859,2.599549 c -0.452368,0.586029 -0.05702,1.071457 -0.05702,1.071457 m -0.03751,-1.673734 c 0.504507,0.283865 -0.07249,0.816156 -0.237477,0.929637 -0.165005,0.113481 -0.712634,0.115705 -0.712634,0.115705 m -5.34379,-4.749966 c 1.089667,0.604905 1.307974,0.112015 2.646654,0.53217 m 5.638443,4.335736 -13.089296,-7.670364 m 4.048585,2.65543 c 0.143752,0.213373 0.162821,0.414837 -0.220966,0.707538 m -2.99463,-12.493754 c 0.285543,-0.376285 0.765704,-1.725328 0.765704,-1.725328 M 90.86957,7.0571474 c 0.412946,-0.5810343 1.32221,0.035488 2.035248,-0.2567681 M 89.193399,8.4960635 C 88.54243,8.1435181 88.707182,7.5395631 88.707182,7.5395631 m 0.643791,1.5454108 C 89.697229,8.6210706 88.954072,8.3681749 88.75727,8.3312309 88.560437,8.2943273 88.058852,8.5141412 88.058852,8.5141412 m -0.771214,3.3815308 c 0.751205,-0.994466 1.26645,-0.543282 2.320184,-1.469723 M 93.00646,4.177758 84.034531,16.287501 M 83.69604,6.408716 C 83.927723,5.9329631 83.638612,5.3842423 83.553218,5.2480225 M 83.252641,7.3396974 C 83.52782,6.6551915 84.046472,6.4348215 84.046472,6.4348215 m -2.02996,6.0210165 c 0.07826,-0.465835 -0.223413,-1.238737 -0.223413,-1.238737 m 1.286984,-6.3425427 c 0.04823,-0.3154195 0.36666,-1.1885178 0.618656,-1.3518541 M 82.875102,2.8750615 c -0.100095,-0.31913 -0.0734,-1.307691 -0.0734,-1.307691 m 0.354709,2.8556093 C 83.248111,3.8514292 83.004628,3.097302 82.859188,2.8594812 82.713555,2.6217109 82.524245,2.5019006 82.524245,2.5019006 m -0.05591,6.8006326 c 0.09383,-0.6492503 1.672359,-3.7779663 1.672359,-3.7779663 M 83.722105,0.42448168 81.588795,15.444917 M 86.85901,7.2006467 C 86.86993,7.0706045 87.133987,6.6422702 87.28328,6.5818494 M 86.770755,8.0897399 C 86.769936,7.859593 86.467549,7.2162675 86.467549,7.2162675 m -1.081426,4.5774385 c 0.208803,-0.423703 1.027739,-0.988247 1.027739,-0.988247 M 89.194906,4.5186965 C 89.339972,4.2345289 89.592322,3.3401175 89.48334,3.060267 m 0.03155,1.9421698 C 89.782714,4.8021059 90.089236,4.385237 90.089236,4.385237 M 88.381662,6.093792 C 88.641656,5.5765858 89.279835,5.1070104 89.536977,4.9992115 89.794119,4.8913823 90.017785,4.904981 90.017785,4.904981 M 86.433487,9.7859398 C 86.736955,9.2043596 86.923313,6.4228607 86.923313,6.4228607 M 90.244616,2.5299069 83.252681,15.857711 m 8.797005,-1.517324 c 0.12895,-0.01961 0.53857,-0.311992 0.588789,-0.465015 m -1.469925,0.612973 c 0.229702,-0.01476 0.891934,0.243665 0.891934,0.243665 m -5.05847,1.746359 c 0.40869,-0.236851 0.916766,-1.091983 0.916766,-1.091983 m 7.865913,-4.265073 c 0.273784,-0.163862 1.149137,-0.475894 1.435691,-0.386042 m -2.772521,0.596746 c 0.181859,-0.280709 0.577132,-0.614621 0.577132,-0.614621 m -1.589645,1.81879 c 0.498512,-0.294237 0.924015,-0.962627 1.014363,-1.226351 0.09019,-0.263836 0.06167,-0.486056 0.06167,-0.486056 m -5.012265,4.115417 c 0.559842,-0.341909 3.322424,-0.715323 3.322424,-0.715323 M 97.962095,9.7436574 85.18201,17.590835 m 9.990144,1.202359 c 0.117879,-0.05601 0.62089,-0.04348 0.748253,0.0551 m -1.560921,0.316178 c 0.198461,-0.116555 0.602125,-0.701673 0.602125,-0.701673 m -4.499588,1.369729 c 0.471214,-0.03286 1.371246,0.390582 1.371246,0.390582 m 6.503665,-0.776422 c 0.318564,-0.01769 1.218425,-0.249862 1.40537,-0.484902 m -2.630599,1.059648 c 0.307907,0.130578 0.822414,0.18559 0.822414,0.18559 m -2.335855,-0.615421 c 0.577779,-0.03569 1.304759,0.279365 1.527343,0.447292 0.222615,0.167916 0.323468,0.368004 0.323468,0.368004 m -4.724953,-0.680006 c 0.655286,-0.03053 3.152506,-1.269635 3.152506,-1.269635 m 5.035632,0.910224 -14.985545,0.696194 m 8.244361,5.603217 c 0.09696,0.08725 0.582702,0.218753 0.732885,0.160577 m -1.405895,-0.748243 c 0.156977,0.16832 0.376972,0.844273 0.376972,0.844273 m -3.963849,-2.57693 c 0.442257,0.165925 1.46755,-0.003 1.46755,-0.003 m 6.012038,2.599205 c 0.300284,0.10786 1.096532,0.58705 1.208688,0.865627 m -2.219088,-1.765953 c 0.332375,-0.03731 0.84119,0.05672 0.84119,0.05672 M 94.807213,25.0227 c 0.543585,0.199017 1.330248,0.104392 1.591485,0.0071 0.261247,-0.09747 0.414988,-0.260459 0.414988,-0.260459 m -4.722627,-0.69592 c 0.619333,0.216224 2.659403,2.116071 2.659403,2.116071 m 5.086082,0.563887 -14.189083,-4.865783 m 4.761067,9.698737 c 0.112632,0.06592 0.385324,0.488795 0.375466,0.649574 m -1.139693,-1.112446 c 0.208014,0.09848 0.918858,0.102926 0.918858,0.102926 m -3.941606,-3.341382 c 0.292307,0.371058 0.448718,1.35334 0.448718,1.35334 m 4.301421,4.939459 c 0.1939,0.253381 0.892156,0.866637 1.191652,0.888911 m -1.479541,-0.355832 c 0.06531,0.328018 0.309343,0.784298 0.309343,0.784298 m -0.80563,-2.277265 c 0.354618,0.457544 0.503243,1.235795 0.489675,1.514291 -0.01355,0.278505 -0.122207,0.474468 -0.122207,0.474468 m -2.695832,-5.118638 c 0.394009,0.524486 2.823458,1.891648 2.823458,1.891648 m 1.803685,4.282483 -9.016788,-12.051537 m -0.736384,10.161326 c 0.06228,0.114704 0.07694,0.617645 -0.01466,0.750144 M 82.718489,33.5805 c 0.12707,0.191918 0.733158,0.563371 0.733158,0.563371 m -1.610644,-4.419098 c 0.05824,0.468766 -0.315986,1.390335 -0.315986,1.390335 m 1.126378,6.452273 c 0.03488,0.317148 0.315268,1.203158 0.560065,1.37714 M 82.011356,36.37496 c -0.113744,0.31453 -0.140932,0.831241 -0.140932,0.831241 m 0.488422,-2.365682 c 0.06683,0.575009 -0.208521,1.317944 -0.364183,1.549273 -0.155693,0.23132 -0.350008,0.34286 -0.350008,0.34286 m 0.423947,-4.754769 c 0.06592,0.652668 1.437966,3.079367 1.437966,3.079367 m -0.637057,5.077427 -1.48675,-15.098145 m 2.246761,-12.994358 c 0.145006,-0.449577 0.001,-1.912303 0.001,-1.912303 M 85.84125,4.559614 c 0.19756,-0.6849102 1.314859,-1.7235995 1.587895,-1.8486672 m -2.132653,1.9730778 c -0.05237,-0.3303326 0.03225,-0.594269 0.03225,-0.594269 m 0.02174,2.1666649 C 85.523829,5.7040902 85.392442,4.9227352 85.282944,4.6663311 85.173234,4.4099978 84.636525,3.7748012 84.636525,3.7748012 m -0.49835,6.5973998 c 0.199128,-0.6674592 0.770496,-1.9980406 1.299299,-2.4504987 m 1.406199,-6.7701088 -4.23453,14.3983825 m 1.07898,-4.553245 C 83.64667,10.742763 83.380954,10.507854 83.322565,10.40324 m 4.047838,3.929635 c 0.334518,-0.333527 1.70261,-0.870641 1.70261,-0.870641 m 3.956499,-4.501246 c 0.520249,-0.4873093 0.937502,-1.9546665 0.924783,-2.2547078 m -0.787957,2.7964827 c 0.318048,-0.1034817 0.514668,-0.298828 0.514668,-0.298828 m -1.939753,0.9655291 c 0.413158,-0.4054844 1.168853,-0.6436389 1.446974,-0.6627175 0.278193,-0.018806 1.087948,0.1704945 1.087948,0.1704945 m -5.649797,3.442952 c 0.503992,-0.480788 1.429413,-1.594568 1.592031,-2.271249 M 95.609345,6.5188606 84.659971,16.905985 m 3.614721,-3.101033 c 0.24504,-0.07856 0.575079,0.05136 0.694799,0.05581 m 0.1774,3.147714 c 0.431893,-0.191343 1.901606,-0.201989 1.901606,-0.201989 m 5.307787,-2.78252 c 0.660432,-0.268274 1.576258,-1.488317 1.672005,-1.772949 m -2.606586,2.715871 c 0.334003,0.01749 0.587616,-0.09433 0.587616,-0.09433 m -2.157009,0.205498 c 0.531108,-0.230309 1.321937,-0.181546 1.588401,-0.09959 0.266434,0.0822 0.954397,0.549389 0.954397,0.549389 m -5.640839,0.799149 c 0.642911,-0.268011 1.906257,-0.975731 2.300782,-1.54905 m 6.585379,-2.108226 -14.022735,5.790232 m 4.562678,-1.619915 c 0.25691,0.01456 0.518389,0.25422 0.628544,0.301305 m -1.136368,4.346726 c 0.46725,0.06936 1.886694,-0.311992 1.886694,-0.311992 m 5.857306,1.267694 c 0.708023,0.0826 1.915822,1.014535 2.08394,1.263366 M 97.2045,21.926793 c 0.317148,-0.106272 0.591529,-0.06562 0.591529,-0.06562 m -2.133785,0.376669 c 0.573269,0.08048 1.322523,-0.177238 1.557492,-0.327279 0.23495,-0.150173 0.77354,-0.783812 0.77354,-0.783812 m -6.589858,0.589891 c 0.691078,0.08705 2.097317,0.43254 2.630326,0.880034 M 100.94281,22.874022 85.8842,21.02943 m 4.829374,0.345629 c 0.243756,-0.0824 0.431883,-0.38319 0.525568,-0.457847 m -1.768966,6.557423 c 0.364082,0.300972 1.029984,1.611231 1.029984,1.611231 m 3.013779,1.9267 c 0.534981,0.471102 2.035602,0.745645 2.333035,0.704192 m -2.859179,-0.516024 c 0.133116,0.306826 0.346854,0.483629 0.346854,0.483629 m -1.147176,-1.838182 c 0.443258,0.372352 0.752813,1.101708 0.798442,1.376736 0.0455,0.275078 -0.06531,1.099302 -0.06531,1.099302 m -3.969137,-5.29342 c 0.526932,0.455542 1.724357,1.269827 2.413524,1.366768 m 4.827333,4.95064 -11.443276,-9.960701 m 5.333377,4.938609 c 0.101874,0.236304 0.004,0.577354 0.01112,0.696942 m -6.875977,-0.455239 c 0.111914,0.458919 1.000188,1.629895 1.000188,1.629895 m 1.033826,5.903077 c 0.190402,0.686922 -0.217488,2.156928 -0.384586,2.406447 m 0.783499,-2.797736 c 0.217984,0.253684 0.283773,0.523151 0.283773,0.523151 m -1.153242,-1.834381 c 0.141578,0.561309 0.662708,1.158146 0.890256,1.319217 0.22766,0.161011 1.017578,0.421004 1.017578,0.421004 m -3.030512,-5.881339 c 0.179908,0.672899 0.319818,1.813331 -0.295228,1.938399 m 2.819241,7.33354 -3.968045,-14.643048 m 1.500369,4.603393 c 0.168179,0.19472 0.517731,0.255575 0.622194,0.314207 m 0.547467,-1.830186 c 0.203667,0.426212 1.313232,1.390093 1.313232,1.390093 m 2.222647,5.565515 c 0.327249,0.633265 -0.60346,1.104853 -0.670381,1.872548 m 0.082,-4.058069 c 0.611629,-0.417102 1.072964,0.0061 1.072964,0.0061 m -1.668628,-0.135846 c 0.253705,0.520331 0.818997,-0.02437 0.941992,-0.182384 0.122985,-0.158049 0.157431,-0.704596 0.157431,-0.704596 m -2.673315,-2.190303 c 0.539753,1.123365 0.03488,1.312291 0.375567,2.673376 m 3.996567,5.883715 -6.887149,-13.517822 m 2.412686,4.197777 c 0.204536,0.156087 0.404554,0.186924 0.719316,-0.178967 m 3.268343,-10.284948 c 0.460375,-0.105776 1.905337,0.163023 1.905337,0.163023 m 6.333757,-1.333928 c 0.05409,0.738335 0.672424,0.836124 0.672424,0.836124 m -1.144699,-1.22166 c 0.565191,-0.125179 0.490565,0.656287 0.443389,0.850895 -0.04722,0.194619 -0.453611,0.561673 -0.453611,0.561673 M 93.310137,17.53431 c 1.21525,-0.276484 1.048991,-0.789282 2.326452,-1.369517 m 5.037861,-0.122864 -14.867519,3.020149 m 4.787385,-0.723391 c 0.249448,0.06299 0.398063,0.200351 0.307493,0.674446"
       inkscape:export-filename="/home/ekr/projects/champis/anat-toplames.pdf"
       inkscape:export-xdpi="360"
       inkscape:export-ydpi="360" /><path
       id="path49019"
       style="opacity:1;fill:none;fill-opacity:1;stroke:#000000;stroke-width:0.505527;stroke-linecap:round;stroke-linejoin:round;stroke-miterlimit:4;stroke-dasharray:none"
       d="M 81.137327,0.25296596 V 15.395951 a 4.8507134,4.8264461 0 0 1 4.176687,2.412281 4.8507134,4.8264461 0 0 1 0,4.826139 4.8507134,4.8264461 0 0 1 -4.176687,2.412281 V 40.189638 A 19.968377,19.968377 0 0 0 101.10592,20.221565 19.968377,19.968377 0 0 0 81.137327,0.25296596 Z"
       inkscape:export-filename="/home/ekr/projects/champis/anat-toplames.pdf"
       inkscape:export-xdpi="360"
       inkscape:export-ydpi="360" /></g></svg>
