<?xml version="1.0" encoding="UTF-8" standalone="no"?>
<!-- Created with Inkscape (http://www.inkscape.org/) -->

<svg
   width="160mm"
   height="52mm"
   viewBox="0 0 160 52"
   version="1.1"
   id="svg5"
   xml:space="preserve"
   inkscape:version="1.1.2 (0a00cf5339, 2022-02-04)"
   sodipodi:docname="anat-voilepartiel.svg"
   inkscape:export-filename="Anat-InsertionLames.pdf"
   inkscape:export-xdpi="360"
   inkscape:export-ydpi="360"
   xmlns:inkscape="http://www.inkscape.org/namespaces/inkscape"
   xmlns:sodipodi="http://sodipodi.sourceforge.net/DTD/sodipodi-0.dtd"
   xmlns="http://www.w3.org/2000/svg"
   xmlns:svg="http://www.w3.org/2000/svg"><sodipodi:namedview
     id="namedview7"
     pagecolor="#ffffff"
     bordercolor="#000000"
     borderopacity="0.25"
     inkscape:showpageshadow="2"
     inkscape:pageopacity="0.0"
     inkscape:pagecheckerboard="0"
     inkscape:deskcolor="#d1d1d1"
     inkscape:document-units="mm"
     showgrid="false"
     inkscape:zoom="1"
     inkscape:cx="366"
     inkscape:cy="153.5"
     inkscape:window-width="1883"
     inkscape:window-height="1062"
     inkscape:window-x="37"
     inkscape:window-y="0"
     inkscape:window-maximized="1"
     inkscape:current-layer="layer1"
     inkscape:pageshadow="2"
     inkscape:snap-global="false" /><defs
     id="defs2"><rect
       x="808.32562"
       y="620.8114"
       width="80.540253"
       height="28.767313"
       id="rect50658" /><rect
       x="563.56409"
       y="620.13263"
       width="54.44722"
       height="34.648232"
       id="rect25085" /><rect
       x="156.27058"
       y="563.56409"
       width="91.216774"
       height="33.58757"
       id="rect3751" /><rect
       x="21.270981"
       y="107.17227"
       width="140.03624"
       height="44.140839"
       id="rect3292" /><rect
       x="21.270981"
       y="107.17227"
       width="140.03624"
       height="44.140839"
       id="rect3294" /><rect
       x="21.270981"
       y="107.17227"
       width="140.03624"
       height="44.140839"
       id="rect3296" /><rect
       x="21.270981"
       y="107.17227"
       width="140.03624"
       height="44.140839"
       id="rect3298" /><rect
       x="21.270981"
       y="107.17227"
       width="140.03624"
       height="44.140839"
       id="rect3300" /><rect
       x="21.270981"
       y="107.17227"
       width="140.03624"
       height="44.140839"
       id="rect3302" /></defs><g
     inkscape:label="Calque 1"
     inkscape:groupmode="layer"
     id="layer1"><g
       id="g45051"
       transform="translate(3.0002226,0.71600161)"
       inkscape:export-filename="anat-insertionslames.pdf"
       inkscape:export-xdpi="360"
       inkscape:export-ydpi="360" /><text
       xml:space="preserve"
       transform="scale(0.26458333)"
       id="text3749"
       style="font-style:normal;font-variant:normal;font-weight:normal;font-stretch:normal;font-size:24px;font-family:'Liberation Sans';-inkscape-font-specification:'Liberation Sans';white-space:pre;shape-inside:url(#rect3751);display:inline;fill:#000000;stroke:none;stroke-width:1.88976;stroke-linejoin:round;stroke-dasharray:0.999999, 3" /><text
       xml:space="preserve"
       transform="scale(0.26458333)"
       id="text25083"
       style="font-style:normal;font-variant:normal;font-weight:normal;font-stretch:normal;font-size:24px;font-family:'Liberation Sans';-inkscape-font-specification:'Liberation Sans';text-align:end;white-space:pre;shape-inside:url(#rect25085);display:inline;fill:#ff2a2a;fill-opacity:1;stroke:none;stroke-width:1.88976;stroke-linejoin:round;stroke-dasharray:none" /><g
       id="g2717"
       style="fill:none;stroke:#000000"
       transform="matrix(0.80875743,0,0,0.80875743,-5.7309817,-175.77253)"
       inkscape:export-filename="anat-voilepartiel.pdf"
       inkscape:export-xdpi="360"
       inkscape:export-ydpi="360"><path
         style="fill:none;stroke:#000000;stroke-width:0.5;stroke-linecap:round;stroke-linejoin:round;stroke-dasharray:none"
         d="m 10.362181,219.83105 v 16.87445 c 0,1.49671 -3.2150892,6.87248 -3.0101572,7.56907 0.233208,0.7927 16.1505602,1.88403 16.5145802,1.2241 0.34889,-0.63248 -2.706381,-3.97068 -2.706381,-7.87864 v -17.81744"
         id="path3569"
         sodipodi:nodetypes="cssssc" /><path
         style="fill:none;stroke:#000000;stroke-width:0.5;stroke-linecap:round;stroke-linejoin:round;stroke-dasharray:none"
         d="m 10.376527,245.10042 v 24.57317"
         id="path3571"
         sodipodi:nodetypes="cc" /><path
         style="fill:none;stroke:#000000;stroke-width:0.5;stroke-linecap:round;stroke-linejoin:round;stroke-dasharray:none"
         d="m 21.171367,245.86109 v 23.8125"
         id="path3573"
         sodipodi:nodetypes="cc" /><path
         style="fill:none;stroke:#000000;stroke-width:0.5;stroke-linecap:round;stroke-linejoin:round;stroke-dasharray:0.5, 1.5;stroke-dashoffset:0"
         d="M 10.393164,269.64052 H 21.238516"
         id="path3575"
         sodipodi:nodetypes="cc" /><path
         style="fill:none;stroke:#000000;stroke-width:0.5;stroke-linecap:round;stroke-linejoin:round;stroke-dasharray:0.5, 1.5;stroke-dashoffset:0"
         d="M 10.368359,219.80477 H 21.189404"
         id="path3577"
         sodipodi:nodetypes="cc" /></g><g
       id="g2729"
       style="stroke:#000000"
       transform="matrix(0.80875743,0,0,0.80875743,-17.448448,-175.78589)"
       inkscape:export-filename="anat-voilepartiel.pdf"
       inkscape:export-xdpi="360"
       inkscape:export-ydpi="360"><path
         style="fill:none;stroke:#000000;stroke-width:0.5;stroke-linecap:round;stroke-linejoin:round;stroke-dasharray:0.5, 1.5;stroke-dashoffset:0"
         d="M 88.312952,219.83566 H 99.158304"
         id="path3585"
         sodipodi:nodetypes="cc" /><path
         style="fill:none;stroke:#000000;stroke-width:0.5;stroke-linecap:round;stroke-linejoin:round;stroke-dasharray:0.5, 1.5;stroke-dashoffset:0"
         d="M 88.288147,269.67141 H 99.109192"
         id="path3587"
         sodipodi:nodetypes="cc" /><path
         style="fill:none;stroke:#000000;stroke-width:0.499999;stroke-linecap:round;stroke-linejoin:round;stroke-dasharray:none;stroke-dashoffset:0"
         d="m 88.329232,232.27629 v 0.92972"
         id="path3591"
         sodipodi:nodetypes="cc" /><path
         style="fill:none;stroke:#000000;stroke-width:0.499999;stroke-linecap:round;stroke-linejoin:round;stroke-dasharray:none;stroke-dashoffset:0"
         d="m 99.110216,231.45474 v 0.96023"
         id="path3593"
         sodipodi:nodetypes="cc" /><path
         style="fill:none;stroke:#000000;stroke-width:0.5;stroke-linecap:round;stroke-linejoin:round;stroke-dasharray:none"
         d="m 88.281969,269.64513 v -29.73981 c 0,-1.49671 -2.915248,-5.56499 -2.48099,-6.14693 0.31543,-0.4227 16.310701,-1.59331 16.580721,-1.35639 0.54296,0.4764 -3.301689,2.68083 -3.301689,6.58879 v 30.6828"
         id="path3579"
         sodipodi:nodetypes="cssssc" /><path
         style="fill:none;stroke:#000000;stroke-width:0.5;stroke-linecap:round;stroke-linejoin:round;stroke-dasharray:none"
         d="m 99.132259,219.88137 v 5.41468 c 0,1.49671 3.336341,4.87661 3.175521,5.58469 -0.0663,0.29208 -15.898718,1.55845 -16.448434,1.45561 -0.710008,-0.13283 2.474871,-2.21781 2.474871,-6.12577 v -6.35767"
         id="path3589"
         sodipodi:nodetypes="cssssc" /></g><g
       id="g2772"
       style="fill:none;stroke:#000000"
       transform="matrix(0.80875743,0,0,0.80875743,-23.965851,-175.78603)"
       inkscape:export-filename="anat-voilepartiel.pdf"
       inkscape:export-xdpi="360"
       inkscape:export-ydpi="360"><g
         id="g2721"
         style="fill:none;stroke:#000000"><path
           style="fill:none;stroke:#000000;stroke-width:0.5;stroke-linecap:round;stroke-linejoin:round;stroke-dasharray:none"
           d="m 65.527803,269.64513 v -24.41507 c 0,-1.49671 -3.876547,-6.74019 -3.671615,-7.43678 0.233208,-0.7927 16.216702,-2.01632 16.580731,-1.35639 0.348887,0.63248 -2.111074,3.97068 -2.111074,7.87864 v 25.35806"
           id="path3549"
           sodipodi:nodetypes="cssssc" /><path
           style="fill:none;stroke:#000000;stroke-width:0.5;stroke-linecap:round;stroke-linejoin:round;stroke-dasharray:0.5, 1.5;stroke-dashoffset:0"
           d="M 65.533981,269.67141 H 76.355026"
           id="path3557"
           sodipodi:nodetypes="cc" /></g><path
         style="fill:none;stroke:#000000;stroke-width:0.5;stroke-linecap:round;stroke-linejoin:round;stroke-dasharray:none"
         d="M 65.481732,236.99189 V 219.836"
         id="path541"
         sodipodi:nodetypes="cc" /><path
         style="fill:none;stroke:#000000;stroke-width:0.5;stroke-linecap:round;stroke-linejoin:round;stroke-dasharray:none"
         d="M 76.276572,236.08511 V 219.836"
         id="path543"
         sodipodi:nodetypes="cc" /><path
         style="fill:none;stroke:#000000;stroke-width:0.5;stroke-linecap:round;stroke-linejoin:round;stroke-dasharray:0.5, 1.5;stroke-dashoffset:0"
         d="m 65.498372,219.86907 h 10.84535"
         id="path545"
         sodipodi:nodetypes="cc" /></g><g
       id="g2836"
       transform="matrix(0.80875743,0,0,0.80875743,-11.450287,-176.02782)"
       inkscape:export-filename="anat-voilepartiel.pdf"
       inkscape:export-xdpi="360"
       inkscape:export-ydpi="360"><path
         style="fill:none;stroke:#000000;stroke-width:0.5;stroke-linecap:round;stroke-linejoin:round;stroke-dasharray:none"
         d="M 113.29944,230.12673 V 219.80259"
         id="path775"
         sodipodi:nodetypes="cc" /><path
         style="fill:none;stroke:#000000;stroke-width:0.5;stroke-linecap:round;stroke-linejoin:round;stroke-dasharray:none"
         d="m 124.09428,229.84943 v -9.78959"
         id="path777"
         sodipodi:nodetypes="cc" /><path
         style="fill:none;stroke:#000000;stroke-width:0.5;stroke-linecap:round;stroke-linejoin:round;stroke-dasharray:0.5, 1.5;stroke-dashoffset:0"
         d="m 113.31608,219.83566 h 10.84535"
         id="path779"
         sodipodi:nodetypes="cc" /><path
         style="fill:none;stroke:#000000;stroke-width:0.5;stroke-linecap:round;stroke-linejoin:round;stroke-dasharray:none"
         d="M 113.29944,270.23879 V 251.75103"
         id="path781"
         sodipodi:nodetypes="cc" /><path
         style="fill:none;stroke:#000000;stroke-width:0.5;stroke-linecap:round;stroke-linejoin:round;stroke-dasharray:none"
         d="M 124.09428,270.2884 V 251.75103"
         id="path783"
         sodipodi:nodetypes="cc" /><path
         style="fill:none;stroke:#000000;stroke-width:0.5;stroke-linecap:round;stroke-linejoin:round;stroke-dasharray:0.5, 1.5;stroke-dashoffset:0"
         d="m 113.31608,251.7841 h 10.84535"
         id="path785"
         sodipodi:nodetypes="cc" /><path
         style="fill:none;stroke:#000000;stroke-width:0.5;stroke-linecap:round;stroke-linejoin:round;stroke-dasharray:0.5, 1.5;stroke-dashoffset:0"
         d="m 113.31608,270.30493 h 10.84535"
         id="path787"
         sodipodi:nodetypes="cc" /><path
         style="fill:none;stroke:#000000;stroke-width:0.5;stroke-linecap:round;stroke-linejoin:round;stroke-dasharray:none"
         d="m 113.29944,239.1838 v 6.49801"
         id="path789"
         sodipodi:nodetypes="cc" /><path
         style="fill:none;stroke:#000000;stroke-width:0.5;stroke-linecap:round;stroke-linejoin:round;stroke-dasharray:none"
         d="m 124.09428,239.25982 v 6.42199"
         id="path791"
         sodipodi:nodetypes="cc" /><path
         style="fill:none;stroke:#000000;stroke-width:0.5;stroke-linecap:round;stroke-linejoin:round;stroke-dasharray:0.5, 1.5;stroke-dashoffset:0"
         d="m 113.31608,245.64874 h 10.84535"
         id="path793"
         sodipodi:nodetypes="cc" /><path
         style="fill:none;stroke:#000000;stroke-width:0.499999;stroke-linecap:round;stroke-linejoin:round"
         d="m 124.15671,228.34171 c 0,0 3.06633,0.60804 3.06633,1.44261 0,0.83457 -2.61273,4.45069 -2.61273,4.78263 0,0.33194 1.95517,2.42761 1.95517,3.38644 0,0.95883 -3.99902,1.42655 -8.11497,1.42655 -3.88209,0 -8.2319,-0.59811 -8.2319,-1.09914 0,-0.50103 2.26845,-1.8475 2.26845,-3.11035 0,-1.26285 -3.43775,-2.40876 -3.43775,-4.09256 0,-1.19269 4.13933,-2.66602 4.13933,-2.66602"
         id="path795"
         sodipodi:nodetypes="cszzzzssc" /><path
         style="fill:none;stroke:#000000;stroke-width:0.499999;stroke-linecap:round;stroke-linejoin:round"
         d="m 113.04833,229.32393 c -0.74836,0.21048 -2.68713,1.2962 5.33316,1.2962 6.47681,0 7.17839,-1.15588 5.84538,-1.55345"
         id="path797"
         sodipodi:nodetypes="csc" /><path
         style="fill:none;stroke:#000000;stroke-width:0.499999;stroke-linecap:round;stroke-linejoin:round"
         d="m 110.43633,229.69389 c -2.08232,1.48683 0.39037,3.39082 7.82709,3.41858 7.52812,0.0281 8.98629,-3.54563 8.11497,-3.99902"
         id="path799"
         sodipodi:nodetypes="csc" /><path
         style="fill:none;stroke:#000000;stroke-width:0.499999;stroke-linecap:round;stroke-linejoin:round"
         d="m 112.27658,229.81504 v 2.4069"
         id="path801"
         sodipodi:nodetypes="cc" /><path
         style="fill:none;stroke:#000000;stroke-width:0.499999;stroke-linecap:round;stroke-linejoin:round"
         d="m 124.78389,229.50275 v 2.1749"
         id="path803" /><path
         style="fill:none;stroke:#000000;stroke-width:0.499999;stroke-linecap:round;stroke-linejoin:round"
         d="m 112.27658,234.5858 c 1.03129,1.01094 9.59266,1.3057 12.25431,-0.11693"
         id="path805"
         sodipodi:nodetypes="cc" /><path
         style="fill:none;stroke:#000000;stroke-width:0.499999;stroke-linecap:round;stroke-linejoin:round"
         d="m 125.02933,253.78577 v 9.16735 c 0,0 0.51451,-1.33301 0.81852,-1.33301 0.30402,0 1.2018,2.65689 1.66041,2.19828 0.38569,-0.38569 -1.3564,-4.13933 -1.3564,-5.44895 0,-1.40316 2.5257,-3.67161 2.31523,-4.49012 -0.21048,-0.81852 -1.98782,1.8475 -2.50232,1.77734 -0.51449,-0.0702 0.0702,-1.21608 -0.93544,-1.87089 z"
         id="path807"
         sodipodi:nodetypes="ccsssssc" /><path
         style="fill:none;stroke:#000000;stroke-width:0.499999;stroke-linecap:round;stroke-linejoin:round"
         d="m 112.31076,253.78577 v 9.16735 c 0,0 -0.51451,-1.33301 -0.81852,-1.33301 -0.30402,0 -1.2018,2.65689 -1.66041,2.19828 -0.38569,-0.38569 1.3564,-4.13933 1.3564,-5.44895 0,-1.40316 -2.5257,-3.67161 -2.31523,-4.49012 0.21048,-0.81852 1.98782,1.8475 2.50232,1.77734 0.51449,-0.0702 -0.0702,-1.21608 0.93544,-1.87089 z"
         id="path809"
         sodipodi:nodetypes="ccsssssc" /></g><g
       id="g2852"
       transform="matrix(0.80875743,0,0,0.80875743,-5.7309817,-172.84654)"
       inkscape:export-filename="anat-voilepartiel.pdf"
       inkscape:export-xdpi="360"
       inkscape:export-ydpi="360"><path
         style="fill:none;stroke:#000000;stroke-width:0.5;stroke-linecap:round;stroke-linejoin:round;stroke-dasharray:0.5, 1.5;stroke-dashoffset:0"
         d="M 184.74129,213.96864 V 268.2718"
         id="path1219"
         sodipodi:nodetypes="cc" /><path
         style="fill:none;stroke:#000000;stroke-width:0.499999;stroke-linecap:round;stroke-linejoin:round"
         d="m 184.64609,230.61744 c -13.08999,0.99942 -14.71933,4.28816 -17.72709,4.66328 -1.05939,0.13212 -2.74507,-3.20807 -2.84427,-5.09323 -0.13738,-2.61074 4.82865,-14.58515 20.60443,-14.58515 15.90807,0 19.73193,5.22855 19.97604,11.57552 0.11971,3.11252 -0.46302,3.90261 -1.78594,5.39088 1.63711,-2.94349 -0.23151,-6.61458 -5.06015,-8.00364 -4.82865,-1.38907 -6.56497,-1.0418 -6.8957,-0.51263 -0.33073,0.52917 0.21497,9.50846 0.21497,12.15429 0,2.64584 -0.0331,9.65729 3.00963,11.41016 3.04271,1.75286 4.66328,0.19844 5.35782,0.52917 0.69453,0.33072 2.44739,4.06796 -0.29766,8.23515 -2.74505,4.16719 -6.16791,10.5926 -15.13903,10.5926 -8.04508,0 -15.75107,-9.53427 -15.75107,-13.86682 0,-4.33255 0.49609,-5.02708 1.28984,-5.02708 0.79375,0 1.42213,0.92604 2.08359,1.19062 0.66146,0.26459 2.91042,1.28985 5.02709,-0.0331 2.11666,-1.32292 4.10104,-6.7138 4.13411,-8.6651 0.0331,-1.9513 -0.46302,-8.10287 -0.7276,-9.32656"
         id="path1285"
         sodipodi:nodetypes="csssscssssssssssssc" /><path
         style="fill:none;stroke:#000000;stroke-width:0.3;stroke-linecap:round;stroke-linejoin:round;stroke-dasharray:none"
         d="m 202.77004,232.58528 c -0.0661,-1.37253 -0.9095,-2.66237 -2.11666,-3.43959 -1.20716,-0.77721 -4.00183,-0.71106 -4.99401,-0.81028 -0.99219,-0.0992 -2.93523,0.0165 -4.78731,-2.43086"
         id="path1287"
         sodipodi:nodetypes="cssc" /><path
         id="path1874"
         style="fill:none;stroke:#000000;stroke-width:0.2;stroke-linecap:round;stroke-linejoin:round;stroke-dasharray:none"
         d="m 194.88792,239.12269 -3.49622,1.75396 m 8.32545,1.54348 -0.81852,5.75298 m -1.0056,0.23386 4.66552,-15.70376 -5.48403,15.77392 m -2.50231,-0.53788 8.0565,-15.28281 -6.86381,15.68037 m 0.44433,-7.23799 -3.13373,5.62435 6.50133,-8.25529 m -1.36808,-2.06966 -6.30256,7.82264 10.71083,-11.34224 -10.43019,12.16076 m -0.49111,-1.98782 3.80609,-4.44336 m -4.0427,3.32018 11.11249,-9.12813 -11.41015,5.55625 m 0.13229,1.9513 3.79937,-3.1304 m -3.83244,2.23744 11.29856,-6.62703 -9.97484,13.02331 m -1.45601,-9.50514 11.41015,-3.60495 -11.37708,4.33256 m 8.33438,11.04635 3.175,-15.47813 -11.44323,2.8112"
         sodipodi:nodetypes="ccccccccccccccccccccccccccccccccc" /><path
         id="path1957"
         style="fill:none;stroke:#000000;stroke-width:0.2;stroke-linecap:round;stroke-linejoin:round;stroke-dasharray:none"
         d="m 182.6147,241.47837 c 0.28112,-0.24805 0.56224,-0.46302 0.56224,-0.46302 m 0.41841,-2.31688 c 0.41341,0.19844 1.02526,0.3142 0.8599,0.47956 -0.16537,0.16537 -0.39688,0.39688 -0.39688,0.39688 m -1.39406,3.01141 c 0.71107,-0.33073 0.89297,-0.62839 0.89297,-0.62839 m -1.86031,1.42215 0.87643,-0.0827 m 0.96474,-3.25416 c 0.42995,-0.26458 0.678,-0.1819 0.678,-0.1819 m -0.77722,-1.14102 c 0.3142,0.21498 0.26459,0.62839 0.26459,0.62839 m -0.62839,-0.21497 c -0.21497,-0.62839 -0.52916,-0.51263 -0.52916,-0.51263 m 1.38906,-0.4961 c -0.81029,0.24805 -1.2237,-0.0827 -1.2237,-0.0827 m 0.11576,-0.31417 c 0.3638,0.31419 0.39687,0.47955 0.61184,0.26458 0.21498,-0.21497 0.46303,-0.64492 0.46303,-0.64492 m -0.38034,0.44648 c -0.72761,-0.84336 -0.95912,-1.28984 -0.95912,-1.28984 m 1.47175,-0.28112 c -0.41341,0.7276 -0.82683,1.15755 -0.82683,1.15755 m -0.0165,2.28203 c 0.3142,-0.16537 0.28112,-0.13229 0.33073,0.21497 0.0496,0.34727 -0.0331,0.61185 -0.0331,0.61185 m -1.07484,-4.74596 c 0.24805,0.56224 0.54571,0.44649 0.54571,0.44649 m 0.47955,0.21497 c -0.71106,0 -1.14101,0.7276 -1.14101,0.7276 m 0.16536,0.44649 c 0.24805,-0.64492 0.90951,-0.47956 0.90951,-0.47956 m -1.37253,0.4961 c 0.0331,-0.51264 -0.24804,-0.72761 -0.3638,-0.33073 -0.11575,0.39687 0.1819,0.28112 0.1819,0.28112 m 0.19844,0.76067 c -0.24805,-0.28112 -0.46302,-0.56224 -0.46302,-0.56224 m -0.11576,-0.77721 c 0.19844,-0.41341 0.3142,-1.02526 0.47956,-0.8599 0.16537,0.16537 0.39688,0.39688 0.39688,0.39688 m 0,2.9931 c -0.33073,-0.71107 -0.62839,-0.89297 -0.62839,-0.89297 m 0.84336,1.60404 c 0.13229,-0.66146 0.56224,-0.99219 0.56224,-0.99219 m -1.20716,1.33945 -0.0827,-0.87643 m 0.19845,-0.24805 c 0.0331,0.46302 0.33073,1.28985 0.33073,1.28985 m -1.4056,2.46393 c 0.21498,-0.38034 0.72761,-0.89297 0.77722,-1.09141 0.0496,-0.19844 0.0496,-0.19844 0.0496,-0.19844 l 0.14882,-0.81028 m 1.12449,0.16536 c -0.14882,-0.44648 -0.47955,-0.56224 -0.28112,-1.00872 0.19844,-0.44649 0.28112,-0.52917 0.28112,-0.52917 m -0.3638,5.09323 c -0.16536,-0.34726 -0.13229,-2.61276 0.0661,-2.87734 0.19843,-0.26459 0.19843,-0.26459 0.19843,-0.26459 m 0.77727,5.17592 c 0.11575,-0.34727 0.24804,-0.82683 0.24804,-0.82683 m -0.21497,-1.12448 c -0.23151,-0.76067 -0.44648,-1.12448 -0.3638,-1.4056 0.0827,-0.28112 0.19844,-0.64492 0.19844,-0.64492 m -1.88516,2.48047 c 0.0496,0.84336 0.0496,1.20716 0.0496,1.20716 m -1.30637,-0.14883 c 0.29766,-0.29765 0.33073,-0.52916 0.33073,-0.52916 m -2.38125,3.60495 c 0.38034,-0.36381 1.27331,-1.78594 1.27331,-1.78594" /><path
         style="fill:none;stroke:#000000;stroke-width:0.2;stroke-linecap:round;stroke-linejoin:round;stroke-dasharray:none"
         d="m 169.50233,248.10295 c -0.74269,0.74269 -0.10396,3.82873 0.71196,4.6876 0.81591,0.85886 2.7174,3.70801 4.36282,3.70801 1.64542,0 4.98123,-0.65483 5.63604,-0.60804 0.65481,0.0468 4.34981,0.0702 4.34981,0.0702"
         id="path1983"
         sodipodi:nodetypes="czzzc" /></g><g
       id="g2844"
       transform="matrix(0.80875743,0,0,0.80875743,-6.0593215,-175.56189)"
       inkscape:export-filename="anat-voilepartiel.pdf"
       inkscape:export-xdpi="360"
       inkscape:export-ydpi="360"><path
         style="fill:none;stroke:#000000;stroke-width:0.499999;stroke-linecap:round;stroke-linejoin:round"
         d="m 138.41015,224.66431 c -2.77812,-0.0331 -7.67291,4.26641 -7.54062,5.95313 0.13229,1.68672 1.9513,5.25858 5.09323,5.15937 3.14193,-0.0992 3.34036,-0.82682 4.89479,-1.25677 1.55443,-0.42995 3.5388,0.46302 4.69635,-0.16536 1.15755,-0.62838 2.34817,-2.3151 3.83646,-2.97656 1.48829,-0.66146 7.73906,-1.38906 7.73906,-3.30729 0,-1.91823 -3.40651,-5.19245 -7.60677,-3.07579"
         id="path610"
         sodipodi:nodetypes="czzzzzzc" /><path
         style="fill:none;stroke:#000000;stroke-width:0.499999;stroke-linecap:round;stroke-linejoin:round"
         d="m 138.44322,230.17096 c -0.76067,0.28112 -1.40559,1.33945 -0.0496,1.83554 1.35598,0.4961 6.26731,-0.11575 8.08632,-1.28984 1.81901,-1.17409 4.93687,-3.0203 4.87826,-3.83646 -0.0381,-0.53115 -2.01745,-0.52917 -2.01745,-0.52917"
         id="path771"
         sodipodi:nodetypes="csssc" /><path
         style="fill:none;stroke:#000000;stroke-width:0.499999;stroke-linecap:round;stroke-linejoin:round"
         d="m 152.61758,230.49323 c -1.77735,1.63703 -3.27406,12.72203 -3.08697,15.99608 0.18709,3.27405 1.74491,12.0086 1.74491,14.3237 0,2.3151 -1.12448,8.13594 -6.54844,8.33438 -5.42396,0.19844 -9.09129,-5.18873 -8.66511,-8.26823 0,0 2.05052,-12.82947 2.05052,-14.81667 0,-1.9872 -0.52526,-8.58704 -2.24895,-10.2526"
         id="path773"
         sodipodi:nodetypes="csssszc" /><path
         style="fill:none;stroke:#000000;stroke-width:0.5;stroke-linecap:round;stroke-linejoin:round;stroke-dasharray:none"
         d="M 138.501,230.12673 V 219.80259"
         id="path2812"
         sodipodi:nodetypes="cc" /><path
         style="fill:none;stroke:#000000;stroke-width:0.5;stroke-linecap:round;stroke-linejoin:round;stroke-dasharray:none"
         d="m 149.29584,228.75028 v -8.69044"
         id="path2814"
         sodipodi:nodetypes="cc" /><path
         style="fill:none;stroke:#000000;stroke-width:0.5;stroke-linecap:round;stroke-linejoin:round;stroke-dasharray:0.5, 1.5;stroke-dashoffset:0"
         d="m 138.51764,219.83566 h 10.84535"
         id="path2816"
         sodipodi:nodetypes="cc" /></g><text
       xml:space="preserve"
       transform="matrix(0.26389619,0,0,0.26389619,8.683973,17.593671)"
       id="text3270"
       style="font-style:normal;font-variant:normal;font-weight:normal;font-stretch:normal;font-size:13.3333px;line-height:1.25;font-family:'Liberation Sans';-inkscape-font-specification:'Liberation Sans';text-align:center;letter-spacing:0px;word-spacing:0px;white-space:pre;shape-inside:url(#rect3292);display:inline"
       x="27.320894"
       y="0"
       inkscape:export-filename="anat-voilepartiel.pdf"
       inkscape:export-xdpi="360"
       inkscape:export-ydpi="360"><tspan
         x="69.791721"
         y="119.1819"
         id="tspan781">Supère</tspan></text><text
       xml:space="preserve"
       transform="matrix(0.26389619,0,0,0.26389619,34.478137,17.491627)"
       id="text3274"
       style="font-size:13.3333px;line-height:1.25;font-family:sans-serif;text-align:center;letter-spacing:0px;word-spacing:0px;white-space:pre;shape-inside:url(#rect3294);display:inline"
       x="27.320894"
       y="0"
       inkscape:export-filename="anat-voilepartiel.pdf"
       inkscape:export-xdpi="360"
       inkscape:export-ydpi="360"><tspan
         x="75.361368"
         y="119.1819"
         id="tspan785"><tspan
           style="font-family:'Liberation Sans';-inkscape-font-specification:'Liberation Sans'"
           id="tspan783">Mixte</tspan></tspan></text><text
       xml:space="preserve"
       transform="matrix(0.26389619,0,0,0.26389619,-17.171765,17.593671)"
       id="text3278"
       style="font-style:normal;font-variant:normal;font-weight:normal;font-stretch:normal;font-size:13.3333px;line-height:1.25;font-family:'Liberation Sans';-inkscape-font-specification:'Liberation Sans';text-align:center;letter-spacing:0px;word-spacing:0px;white-space:pre;shape-inside:url(#rect3296);display:inline"
       x="27.320894"
       y="0"
       inkscape:export-filename="anat-voilepartiel.pdf"
       inkscape:export-xdpi="360"
       inkscape:export-ydpi="360"><tspan
         x="74.24158"
         y="119.1819"
         id="tspan787">Infère</tspan></text><text
       xml:space="preserve"
       transform="matrix(0.26389619,0,0,0.26389619,86.398974,17.572556)"
       id="text3282"
       style="font-size:13.3333px;line-height:1.25;font-family:sans-serif;text-align:center;letter-spacing:0px;word-spacing:0px;white-space:pre;shape-inside:url(#rect3298);display:inline"
       x="27.320894"
       y="0"
       inkscape:export-filename="anat-voilepartiel.pdf"
       inkscape:export-xdpi="360"
       inkscape:export-ydpi="360"><tspan
         x="70.91802"
         y="119.1819"
         id="tspan791"><tspan
           style="font-family:'Liberation Sans';-inkscape-font-specification:'Liberation Sans'"
           id="tspan789">Armille</tspan></tspan></text><text
       xml:space="preserve"
       transform="matrix(0.26389619,0,0,0.26389619,119.2721,17.491627)"
       id="text3286"
       style="font-size:13.3333px;line-height:1.25;font-family:sans-serif;text-align:center;letter-spacing:0px;word-spacing:0px;white-space:pre;shape-inside:url(#rect3300);display:inline"
       x="27.320894"
       y="0"
       inkscape:export-filename="anat-voilepartiel.pdf"
       inkscape:export-xdpi="360"
       inkscape:export-ydpi="360"><tspan
         x="69.798231"
         y="119.1819"
         id="tspan795"><tspan
           style="font-family:'Liberation Sans';-inkscape-font-specification:'Liberation Sans'"
           id="tspan793">Cortine</tspan></tspan></text><text
       xml:space="preserve"
       transform="matrix(0.26389619,0,0,0.26389619,60.460768,17.572556)"
       id="text3290"
       style="font-size:13.3333px;line-height:1.25;font-family:sans-serif;text-align:center;letter-spacing:0px;word-spacing:0px;white-space:pre;shape-inside:url(#rect3302);display:inline"
       x="27.320894"
       y="0"
       inkscape:export-filename="anat-voilepartiel.pdf"
       inkscape:export-xdpi="360"
       inkscape:export-ydpi="360"><tspan
         x="60.162839"
         y="119.1819"
         id="tspan799"><tspan
           style="font-family:'Liberation Sans';-inkscape-font-specification:'Liberation Sans'"
           id="tspan797">Coulissant</tspan></tspan></text><text
       xml:space="preserve"
       transform="scale(0.26458333)"
       id="text50656"
       style="font-size:10.6667px;line-height:1.25;font-family:sans-serif;letter-spacing:0px;word-spacing:0px;white-space:pre;shape-inside:url(#rect50658);display:inline" /></g></svg>
