<?xml version="1.0" encoding="UTF-8" standalone="no"?>
<!-- Created with Inkscape (http://www.inkscape.org/) -->

<svg
   width="160mm"
   height="43mm"
   viewBox="0 0 160 43"
   version="1.1"
   id="svg5"
   xml:space="preserve"
   inkscape:version="1.1.2 (0a00cf5339, 2022-02-04)"
   sodipodi:docname="anat-voilegeneral.svg"
   inkscape:export-filename="Anat-InsertionLames.pdf"
   inkscape:export-xdpi="360"
   inkscape:export-ydpi="360"
   xmlns:inkscape="http://www.inkscape.org/namespaces/inkscape"
   xmlns:sodipodi="http://sodipodi.sourceforge.net/DTD/sodipodi-0.dtd"
   xmlns="http://www.w3.org/2000/svg"
   xmlns:svg="http://www.w3.org/2000/svg"><sodipodi:namedview
     id="namedview7"
     pagecolor="#ffffff"
     bordercolor="#000000"
     borderopacity="0.25"
     inkscape:showpageshadow="2"
     inkscape:pageopacity="0.0"
     inkscape:pagecheckerboard="0"
     inkscape:deskcolor="#d1d1d1"
     inkscape:document-units="mm"
     showgrid="false"
     inkscape:zoom="1"
     inkscape:cx="213"
     inkscape:cy="164.5"
     inkscape:window-width="1883"
     inkscape:window-height="1062"
     inkscape:window-x="37"
     inkscape:window-y="0"
     inkscape:window-maximized="1"
     inkscape:current-layer="layer1"
     inkscape:pageshadow="2"
     inkscape:snap-global="false" /><defs
     id="defs2"><rect
       x="808.32562"
       y="620.8114"
       width="80.540253"
       height="28.767313"
       id="rect50658" /><marker
       style="overflow:visible"
       id="Scissors"
       refX="0"
       refY="0"
       orient="auto"
       inkscape:stockid="Scissors"
       markerWidth="15.249177"
       markerHeight="9.0857267"
       viewBox="0 0 15.249177 9.0857269"
       inkscape:isstock="true"
       inkscape:collect="always"
       preserveAspectRatio="xMidYMid"><path
         style="fill:context-stroke"
         d="M 9.0898857,-3.6061018 C 8.1198849,-4.7769976 6.3697607,-4.7358294 5.0623558,-4.2327734 l -8.2124046,3.0779029 c -2.3882933,-1.3067135 -4.7482873,-0.9325372 -4.7482873,-1.5687873 0,-0.4973164 0.4566662,-0.3883222 0.3883068,-1.6831941 -0.065635,-1.2432767 -1.3635771,-2.1630796 -2.5903987,-2.0816435 -1.227271,-0.00735 -2.499439,0.9331613 -2.510341,2.2300611 -0.09143,1.3063864 1.007209,2.5196896 2.306764,2.6052316 1.5223406,0.2266616 4.218258,-0.6955566 5.482945,1.57086006 -0.9422847,1.73825774 -2.6140244,1.74307674 -4.1255107,1.65607034 -1.2548743,-0.072235 -2.7620933,0.2873979 -3.3606483,1.5208605 -0.578367,1.1820862 -0.0112,2.8646022 1.316749,3.226412 1.3401912,0.4918277 3.1806689,-0.129711 3.4993722,-1.6707242 0.2456585,-1.187823 -0.5953659,-1.7459574 -0.2725074,-2.1771537 0.2436135,-0.32536 1.7907806,-0.1368452 4.5471053,-1.3748244 L 5.6763468,4.2330688 C 6.8000164,4.5467672 8.1730685,4.5362646 9.1684433,3.4313614 l -9.22008423,-3.48508362 z m -18.3078016,-1.900504 c 1.294559,0.7227998 1.1888392,2.6835702 -0.1564272,3.0632889 -1.2165179,0.423661 -2.7710269,-0.7589694 -2.3831779,-2.0774648 0.227148,-1.0818519 1.653387,-1.480632 2.5396051,-0.9858241 z m 0.056264,8.0173649 c 1.3508301,0.4988648 1.1214429,2.7844356 -0.2522207,3.091609 -0.9110594,0.3163391 -2.2135494,-0.1387976 -2.3056964,-1.2121394 -0.177609,-1.305055 1.356085,-2.4841482 2.5579171,-1.8794696 z"
         id="sizzorsPath"
         transform="scale(0.7)" /></marker><rect
       x="563.56409"
       y="620.13263"
       width="54.44722"
       height="34.648232"
       id="rect25085" /><rect
       x="156.27058"
       y="563.56409"
       width="91.216774"
       height="33.58757"
       id="rect3751" /><rect
       x="21.270981"
       y="107.17227"
       width="140.03624"
       height="44.140839"
       id="rect4915" /><rect
       x="21.270981"
       y="107.17227"
       width="140.03624"
       height="44.140839"
       id="rect4917" /><rect
       x="21.270981"
       y="107.17227"
       width="140.03624"
       height="44.140839"
       id="rect4919" /></defs><g
     inkscape:label="Calque 1"
     inkscape:groupmode="layer"
     id="layer1"><g
       id="g45051"
       transform="translate(3.0002226,0.71600161)"
       inkscape:export-filename="anat-insertionslames.pdf"
       inkscape:export-xdpi="360"
       inkscape:export-ydpi="360" /><text
       xml:space="preserve"
       transform="scale(0.26458333)"
       id="text3749"
       style="font-style:normal;font-variant:normal;font-weight:normal;font-stretch:normal;font-size:24px;font-family:'Liberation Sans';-inkscape-font-specification:'Liberation Sans';white-space:pre;shape-inside:url(#rect3751);display:inline;fill:#000000;stroke:none;stroke-width:1.88976;stroke-linejoin:round;stroke-dasharray:0.999999, 3" /><text
       xml:space="preserve"
       transform="scale(0.26458333)"
       id="text25083"
       style="font-style:normal;font-variant:normal;font-weight:normal;font-stretch:normal;font-size:24px;font-family:'Liberation Sans';-inkscape-font-specification:'Liberation Sans';text-align:end;white-space:pre;shape-inside:url(#rect25085);display:inline;fill:#ff2a2a;fill-opacity:1;stroke:none;stroke-width:1.88976;stroke-linejoin:round;stroke-dasharray:none" /><g
       id="g7529"
       transform="matrix(0.97611481,0,0,0.97611481,-3.1792985,-287.04444)"
       inkscape:export-filename="anat-voilegeneral.pdf"
       inkscape:export-xdpi="360"
       inkscape:export-ydpi="360"><path
         id="path1450"
         style="fill:none;stroke:#000000;stroke-width:0.5;stroke-linecap:round;stroke-linejoin:round;stroke-dasharray:none"
         d="m 23.624308,318.86891 c -1.987248,1.49688 -5.497192,-1.10976 -6.52953,-3.74222 -1.032335,-2.63247 -1.367845,-4.64552 -0.438742,-5.29073 0.929103,-0.64521 5.419767,0.36132 6.219828,5.49719 1.80659,-3.01959 -2.4518,-11.58798 -8.70521,-11.58798 -6.2534106,0 -10.5117993,8.56839 -8.7052101,11.58798 0.800061,-5.13587 5.2907251,-6.1424 6.2198281,-5.49719 0.929103,0.64521 0.593594,2.65826 -0.438743,5.29073 -1.032336,2.63246 -4.5422811,5.2391 -6.5295291,3.74222"
         sodipodi:nodetypes="cssczcssc" /><path
         id="path1452"
         style="fill:none;stroke:#000000;stroke-width:0.3;stroke-linecap:round;stroke-linejoin:round;stroke-dasharray:none"
         d="m 22.904804,315.35949 c -0.456233,0.365 -5.967524,-0.65695 -6.551501,-5.10979 m -10.9167985,5.10979 c 0.4562326,0.365 5.9675235,-0.65695 6.5515015,-5.10979" /><path
         style="fill:none;stroke:#000080;stroke-width:1.2;stroke-linecap:round;stroke-linejoin:round;stroke-dasharray:none"
         d="m 12.006255,302.96822 c -5.6572851,1.24096 -8.1491601,7.94973 -8.1491601,12.01797 0,4.06823 1.495106,12.73843 10.0359921,12.73843 8.540884,0 10.566465,-8.44732 10.566465,-13.34424 0,-4.89691 -3.43814,-10.57268 -8.584444,-11.48515"
         id="path1471"
         sodipodi:nodetypes="czzzc" /><path
         style="fill:none;stroke:#000080;stroke-width:0.5;stroke-linecap:butt;stroke-linejoin:round;stroke-dasharray:0, 5.5;stroke-dashoffset:0;marker-start:url(#Scissors)"
         d="m 13.892195,298.48395 v 1.85213"
         id="path1599"
         sodipodi:nodetypes="cc" /><path
         style="fill:#80b3ff;stroke:#000080;stroke-width:0.8;stroke-linecap:round;stroke-linejoin:round;stroke-dasharray:none;stroke-dashoffset:0"
         d="m 38.677546,318.86127 c 1.619525,-2.42669 -0.222613,-2.62624 -0.880224,-2.8395 -0.657612,-0.21328 -2.790406,-1.04863 -4.372229,-1.74181 -1.581819,-0.69315 -1.660277,1.16011 -1.567284,2.05435 0.05332,0.58942 0.340928,5.55263 0.340928,5.55263 l 3.464712,1.06325 z"
         id="path3276"
         sodipodi:nodetypes="csscccc" /><path
         style="fill:#ffffff;stroke:#000000;stroke-width:0.5;stroke-linecap:round;stroke-linejoin:round;stroke-dasharray:none;stroke-dashoffset:0"
         d="m 33.709862,309.90258 c 0,0.62839 -0.603246,8.97329 -0.980273,10.10438 -0.377028,1.13108 -0.552976,2.53865 -0.552976,2.53865 l 6.132995,0.0502 c 0,0 -0.502705,-2.76485 -0.502705,-3.0916 0,-0.32677 -0.150809,-8.47058 -0.07541,-9.12409 0.07541,-0.65354 -4.021637,-0.47759 -4.021637,-0.47759 z"
         id="path3274" /><path
         style="fill:#80b3ff;stroke:#000080;stroke-width:0.8;stroke-linecap:round;stroke-linejoin:round;stroke-dasharray:none;stroke-dashoffset:0"
         d="m 31.804792,316.22358 c -0.143713,3.20955 -2.217106,4.83904 -2.217106,6.77447 0,4.40589 4.027779,5.99604 5.430432,5.99604 1.40265,0 3.602802,-2.89465 3.602802,-4.81211 0,-1.91749 -0.448139,-4.50766 0.02943,-5.36228 -1.318892,1.74845 -2.115087,1.3949 -3.200058,1.34006 -0.804869,-0.0407 -1.666502,1.33174 -2.419819,0.56244 -0.419486,-0.42839 -0.839005,-2.99531 -1.225681,-4.49862 z"
         id="path3270"
         sodipodi:nodetypes="cssscsscc" /><path
         id="path3272"
         style="fill:#ffffff;stroke:#000000;stroke-width:0.5;stroke-linecap:round;stroke-linejoin:round;stroke-dasharray:none;stroke-dashoffset:0"
         d="m 34.122614,306.19697 c -0.116138,1.41946 -0.916199,2.91635 -1.354942,3.61318 -0.252995,0.40182 2.010175,0.65644 2.913936,0.65644 0.903764,0 3.331868,-0.0839 3.215563,-0.25641 -1.174281,-1.74207 -1.264613,-2.99378 -1.264613,-3.9874 M 23.130734,300.7783 c 0,-1.35366 8.372985,-5.00031 11.935048,-5.00031 4.955713,0 13.835186,4.47943 13.835186,5.21305 0,1.31067 -5.033704,5.26205 -13.068715,5.26205 -8.875113,0 -12.701519,-5.13226 -12.701519,-5.47479 z"
         sodipodi:nodetypes="cssscsssss" /></g><g
       id="g7555"
       transform="matrix(0.97611481,0,0,0.97611481,-1.4888185,-287.92479)"
       inkscape:export-filename="anat-voilegeneral.pdf"
       inkscape:export-xdpi="360"
       inkscape:export-ydpi="360"><path
         id="path1461"
         style="fill:none;stroke:#000000;stroke-width:0.5;stroke-linecap:round;stroke-linejoin:round;stroke-dasharray:none;stroke-opacity:1"
         d="m 78.466834,319.1588 c -1.987253,1.49688 -5.915925,-1.39965 -6.948264,-4.03211 -1.03234,-2.63247 -1.367843,-4.64552 -0.438743,-5.29073 0.929106,-0.64521 5.419766,0.36132 6.219826,5.49719 1.806594,-3.01959 -2.451794,-11.58798 -8.705207,-11.58798 -6.253413,0 -10.511801,8.56839 -8.705207,11.58798 0.800061,-5.13587 5.29072,-6.1424 6.219827,-5.49719 0.929098,0.64521 0.593587,2.65826 -0.438744,5.29073 -1.032339,2.63246 -5.025432,5.27131 -7.012685,3.77443"
         sodipodi:nodetypes="cssczcssc" /><path
         id="path1463"
         style="fill:none;stroke:#000000;stroke-width:0.3;stroke-linecap:round;stroke-linejoin:round;stroke-dasharray:none;stroke-opacity:1"
         d="m 77.328596,315.35949 c -0.456231,0.365 -5.967524,-0.65695 -6.551498,-5.10979 m -10.916802,5.10979 c 0.45623,0.365 5.967524,-0.65695 6.551499,-5.10979" /><path
         style="fill:none;stroke:#005500;stroke-width:0.5;stroke-linecap:butt;stroke-linejoin:round;stroke-dasharray:0, 55;stroke-dashoffset:0;marker-start:url(#Scissors)"
         d="m 53.621977,314.51387 14.537166,0.11884"
         id="path1837"
         sodipodi:nodetypes="cc" /><path
         id="path1855"
         style="fill:none;stroke:#005500;stroke-width:1.2;stroke-linecap:round;stroke-linejoin:round;stroke-dasharray:none;stroke-dashoffset:0"
         d="m 77.048396,307.98862 c 0.405907,0.41088 1.311736,2.72504 1.402982,3.18126 m -3.722858,-5.94371 c 0.632995,0.51098 1.058988,1.2188 1.369232,1.60205 m -4.53393,-3.81335 c 0.638724,0.20076 1.576242,0.70784 1.922983,1.10931 m -6.819516,-1.41145 c 0.875965,-0.25552 2.700896,-0.21904 3.011132,-0.0547 m -7.153725,2.40892 c 0.529224,-0.62049 1.131459,-1.14972 2.500153,-1.64245 m -5.018565,4.70832 c 0.364992,-0.80297 0.821231,-1.36869 1.167964,-1.75192 m -2.646148,6.4785 c 0.105971,-0.85773 0.393607,-2.46366 0.766466,-2.95639 m -0.904183,6.0322 c -0.619402,3.92288 1.020627,15.14735 9.561508,15.14735 8.540889,0 11.785721,-8.6447 10.675963,-17.2131"
         sodipodi:nodetypes="cccccccccccccccsc" /><path
         style="fill:none;stroke:#005500;stroke-width:0.5;stroke-linecap:butt;stroke-linejoin:round;stroke-dasharray:0, 55;stroke-dashoffset:0;marker-start:url(#Scissors)"
         d="m 83.03377,312.40554 -2.748221,-0.01"
         id="path1884"
         sodipodi:nodetypes="cc" /><path
         style="fill:none;stroke:#005500;stroke-width:0.25;stroke-linecap:butt;stroke-linejoin:round;stroke-dasharray:0, 27.5;stroke-dashoffset:0;marker-start:url(#Scissors)"
         d="m 79.160731,306.07616 -10.878877,5.12619"
         id="path1888"
         sodipodi:nodetypes="cc" /><path
         style="fill:none;stroke:#005500;stroke-width:0.25;stroke-linecap:butt;stroke-linejoin:round;stroke-dasharray:0, 27.5;stroke-dashoffset:0;marker-start:url(#Scissors)"
         d="m 75.934682,302.2049 -7.652828,7.8877"
         id="path1894"
         sodipodi:nodetypes="cc" /><path
         style="fill:none;stroke:#005500;stroke-width:0.25;stroke-linecap:butt;stroke-linejoin:round;stroke-dasharray:0, 27.5;stroke-dashoffset:0;marker-start:url(#Scissors)"
         d="M 71.418209,300.06279 68.35928,310.29907"
         id="path1900"
         sodipodi:nodetypes="cc" /><path
         style="fill:none;stroke:#005500;stroke-width:0.25;stroke-linecap:butt;stroke-linejoin:round;stroke-dasharray:0, 27.5;stroke-dashoffset:0;marker-start:url(#Scissors)"
         d="m 65.146763,300.01119 2.95444,10.23626"
         id="path1905"
         sodipodi:nodetypes="cc" /><path
         style="fill:none;stroke:#005500;stroke-width:0.25;stroke-linecap:butt;stroke-linejoin:round;stroke-dasharray:0, 27.5;stroke-dashoffset:0;marker-start:url(#Scissors)"
         d="m 59.727004,303.70179 5.302995,4.42937"
         id="path1909"
         sodipodi:nodetypes="cc" /><path
         style="fill:none;stroke:#005500;stroke-width:0.25;stroke-linecap:butt;stroke-linejoin:round;stroke-dasharray:0, 27.5;stroke-dashoffset:0;marker-start:url(#Scissors)"
         d="m 56.939691,307.75371 6.309535,2.6744"
         id="path1913"
         sodipodi:nodetypes="cc" /><path
         style="fill:#87de87;stroke:#165016;stroke-width:0.585261;stroke-linecap:round;stroke-linejoin:round;stroke-dasharray:none;stroke-dashoffset:0"
         d="m 96.059218,320.69617 c -0.377689,-1.0264 -1.808437,-0.67096 -3.31917,-0.67096 -1.727022,0 -3.094862,0.44415 -3.573691,1.26927 -0.651381,3.10942 1.604535,3.32794 3.089368,3.54286 0.690163,-0.12561 3.834921,-1.40284 3.803493,-4.14117 z"
         id="path3771"
         sodipodi:nodetypes="csccc" /><path
         style="fill:#ffffff;stroke:#000000;stroke-width:0.5;stroke-linecap:round;stroke-linejoin:round;stroke-dasharray:none;stroke-dashoffset:0"
         d="m 91.051242,309.90258 c 0,0.62839 -0.869845,11.0883 -1.24687,12.21938 -0.584498,2.75701 1.393225,3.66051 2.931792,4.88168 3.306517,-1.99631 2.578573,-5.14431 2.572075,-5.47323 -0.0064,-0.3267 -0.310758,-10.49674 -0.235337,-11.15025 0.07539,-0.65353 -4.021637,-0.47758 -4.021637,-0.47758 z"
         id="path3773"
         sodipodi:nodetypes="sccsscs" /><path
         id="path3777"
         style="fill:#ffffff;stroke:#000000;stroke-width:0.5;stroke-linecap:round;stroke-linejoin:round;stroke-dasharray:none;stroke-dashoffset:0"
         d="m 91.463992,306.19697 c -0.116139,1.41946 -0.916198,2.91635 -1.35494,3.61318 -0.252998,0.40182 2.010176,0.65644 2.913934,0.65644 0.903771,0 3.331869,-0.0839 3.215563,-0.25641 -1.174283,-1.74207 -1.264609,-2.99378 -1.264609,-3.9874 M 80.472116,300.7783 c 0,-1.35366 8.372981,-5.00031 11.935045,-5.00031 4.955709,0 13.835179,4.47943 13.835179,5.21305 0,1.31067 -5.03371,5.26205 -13.068713,5.26205 -8.87511,0 -12.701511,-5.13226 -12.701511,-5.47479 z"
         sodipodi:nodetypes="cssscsssss" /><path
         style="fill:#5fd35f;stroke:#005500;stroke-width:0.585261;stroke-linecap:round;stroke-linejoin:round;stroke-dasharray:none;stroke-dashoffset:0"
         d="m 89.199491,321.28897 c -0.801316,0.93457 -1.239568,0.85782 -1.239568,2.79324 0,3.17954 3.921134,4.91188 5.323787,4.91188 1.402647,0 3.602802,-2.89465 3.602802,-4.81211 0,-1.91749 -0.322456,-2.06956 -0.774908,-3.38916 -1.318892,1.74844 -1.45778,0.59882 -2.542751,0.54398 -0.804882,-0.0407 -1.826885,1.75703 -2.355041,1.75703 -0.525386,0 -1.703687,-0.64557 -2.014321,-1.80486 z"
         id="path3775"
         sodipodi:nodetypes="cssscssc" /><path
         id="path3854"
         style="fill:#217821;stroke:none;stroke-width:0.585262;stroke-linecap:round;stroke-linejoin:round;stroke-dasharray:none;stroke-dashoffset:0;stroke-opacity:1"
         d="m 91.514638,295.55222 c -0.52676,0.004 -0.829161,0.10959 -0.741192,0.36252 0.100539,0.28905 0.6587,0.69584 1.30696,0.4085 0.648259,-0.28732 0.344718,-0.73928 -0.32664,-0.76659 -0.08392,-0.004 -0.16388,-0.005 -0.239128,-0.005 z m 2.944177,0.0388 c -0.01946,1.1e-4 -0.03984,3.5e-4 -0.06086,0.002 -0.671358,0.0273 -1.067653,0.35669 -0.419388,0.64401 0.648265,0.28736 0.792673,0.2701 0.893216,-0.019 0.09739,-0.28 0.191636,-0.62951 -0.412937,-0.62625 z m -5.477438,0.5077 c -0.06309,0.002 -0.124123,0.0132 -0.181057,0.0363 -0.520556,0.21148 -0.779225,0.16945 -0.678685,0.4585 0.10054,0.28906 0.784516,0.67084 1.432775,0.3835 0.577349,-0.25589 -0.0592,-0.89169 -0.573033,-0.87829 z m 7.765917,0.14436 c -0.42892,-0.004 -0.551176,0.62272 0.05849,0.82588 0.672711,0.22417 1.192706,-0.0342 1.140808,-0.31375 -0.05191,-0.27956 -0.518579,-0.3287 -1.056934,-0.48955 -0.05044,-0.0151 -0.09797,-0.0222 -0.142342,-0.0226 z m -1.353737,0.38835 c -0.35763,0.006 -0.773253,0.14967 -1.136778,0.46696 -0.54106,0.47225 0.404,1.5062 0.762562,0.86458 0.358571,-0.6416 1.253706,-1.06722 0.844013,-1.24566 -0.134419,-0.0586 -0.295131,-0.0887 -0.469797,-0.0859 z m -3.908363,0.31614 c -0.240129,0.005 -0.353755,0.0823 -0.446804,0.22865 -0.186114,0.29271 -0.36567,0.66042 0.877081,0.63272 1.242748,-0.0276 1.976678,-0.36153 0.776673,-0.65248 -0.600002,-0.14551 -0.966812,-0.21352 -1.20695,-0.20889 z m -5.673408,0.13267 c -0.0615,7.9e-4 -0.121711,0.012 -0.178645,0.0351 -0.520555,0.21147 -0.703813,0.5844 -0.603273,0.87346 0.100541,0.28904 0.633691,-0.14657 1.28195,-0.20768 0.577364,-0.0544 7.19e-4,-0.70793 -0.500032,-0.70086 z m 14.270434,0.0891 c -0.494201,0.0154 -1.040653,0.6474 -0.47342,0.70087 0.64826,0.0611 1.18102,0.49632 1.28155,0.20727 0.10054,-0.28906 -0.0823,-0.66198 -0.60287,-0.87345 -0.0651,-0.0265 -0.13466,-0.0369 -0.20526,-0.0346 z m -1.674716,0.71942 c -0.251769,-1.2e-4 -0.416391,0.0879 -0.393179,0.18106 0.03171,0.12689 0.316387,0.14955 0.64481,0.22259 0.328441,0.073 0.461609,-0.26319 0.05118,-0.36494 -0.109005,-0.027 -0.211787,-0.0387 -0.302844,-0.0387 z m -9.224493,0.0182 c -0.151536,10e-5 -0.221026,0.0843 -0.277852,0.24761 -0.110201,0.31682 -0.216874,0.71508 0.518996,0.68512 0.735868,-0.03 1.170671,-0.39117 0.460116,-0.7061 -0.344172,-0.15255 -0.558916,-0.22671 -0.70126,-0.22663 z m 12.925979,0.3343 c -0.0646,0.003 -0.11057,0.042 -0.15123,0.13912 -0.11826,0.28227 0.13579,1.02283 0.81015,1.24203 0.67433,0.21922 0.53002,-0.93997 0.002,-1.13033 h -4.1e-4 c -0.34692,-0.12491 -0.53698,-0.25547 -0.66011,-0.25082 z m -19.321228,0.0907 c -0.130248,0.002 -0.279419,0.0416 -0.435521,0.13671 -0.665981,0.40575 -0.620572,0.977 -0.433897,1.08718 0.186753,0.11013 0.594018,-0.22864 1.11742,-0.56335 0.400718,-0.25624 0.177483,-0.66503 -0.248002,-0.66054 z m 9.870913,0.38108 c -0.536958,0.003 -0.787474,0.34615 -0.73796,0.52223 0.05876,0.20867 0.587307,0.24568 1.196856,0.36575 0.609544,0.12007 0.630664,-0.68394 -0.131048,-0.85128 -0.119021,-0.0261 -0.228419,-0.0373 -0.327848,-0.0366 z m 4.087815,0.0177 c -0.06744,-2.6e-4 -0.143869,0.0158 -0.226628,0.0537 -0.481522,0.21971 -0.633881,0.62531 -0.463345,0.75166 0.170563,0.12633 0.450341,-0.0842 0.826266,-0.27017 0.311316,-0.15399 0.188648,-0.53389 -0.136293,-0.53513 z m -10.622182,0.17139 c -0.297032,0.005 -0.48995,0.1476 -0.46213,0.2976 0.03876,0.20868 0.38731,0.24569 0.789167,0.36575 0.40184,0.12006 0.56466,-0.4327 0.0625,-0.60004 -0.141228,-0.0471 -0.273319,-0.0655 -0.389543,-0.0632 z m 13.797827,0.2734 c -0.140031,0.005 -0.348071,0.0865 -0.659322,0.29316 -0.866129,0.5748 -1.209339,1.183 -0.204449,0.89726 1.004896,-0.28572 1.185186,-0.41937 1.161776,-0.75006 -0.015,-0.21184 -0.0483,-0.44868 -0.298005,-0.44036 z m 4.541865,0.11533 c -0.0817,3e-4 -0.14289,0.0411 -0.17984,0.12944 -0.11827,0.28227 0.0252,0.9579 0.69965,1.17711 0.67432,0.21922 0.75032,-0.31998 0.26896,-0.78877 -0.33093,-0.32228 -0.60897,-0.51843 -0.78877,-0.51778 z m -20.925378,0.0557 c -0.07253,-5.9e-4 -0.11749,0.0404 -0.12662,0.14477 -0.03898,0.44515 0.252505,1.03881 0.872243,1.40172 0.61973,0.36288 1.299773,-0.86163 0.577467,-0.99765 -0.553011,-0.10418 -1.086129,-0.54692 -1.32309,-0.54884 z m 4.210809,0.63916 c -0.04172,0 -0.08458,0.003 -0.12864,0.007 -0.705029,0.0756 -0.5539,0.59891 0.07702,0.82991 v -4.1e-4 c 0.630951,0.23101 1.050288,0.2644 1.042819,-0.0415 -0.0073,-0.28682 -0.365523,-0.79516 -0.991199,-0.79523 z m 15.462469,0.20567 c -0.0715,0.004 -0.15827,0.0696 -0.25487,0.21896 -0.30159,0.46638 -0.30569,0.58006 -0.0944,0.6932 0.21133,0.11314 0.48057,0.23279 0.54159,-0.28994 0.0414,-0.3553 -0.0409,-0.62951 -0.19235,-0.62222 z m -5.941585,0.16976 c -0.182718,-0.002 -0.320144,0.10105 -0.289136,0.35367 0.08627,0.70291 -0.322145,1.46086 0.06287,1.43034 0.385055,-0.0305 0.803466,-0.39522 0.936368,-1.03556 0.08517,-0.41022 -0.384406,-0.74538 -0.710142,-0.74845 z m -6.428316,0.003 c -0.156843,1.1e-4 -0.321033,0.0302 -0.483095,0.10202 -0.648261,0.28733 0.233542,1.05348 0.754087,0.842 0.520555,-0.21147 0.779217,-0.16945 0.678678,-0.4585 -0.07538,-0.21679 -0.47912,-0.48587 -0.94967,-0.48552 z m 3.711986,0.1121 c -0.222735,0.004 -0.644134,0.25943 -1.130335,0.30526 -0.648265,0.0611 0.158134,0.87767 0.678678,0.66619 0.520562,-0.21147 0.703818,-0.5844 0.603275,-0.87346 -0.02513,-0.0722 -0.0774,-0.0991 -0.151618,-0.098 z" /></g><g
       id="g7580"
       transform="matrix(0.97611481,0,0,0.97611481,-3.1792985,-287.92479)"
       inkscape:export-filename="anat-voilegeneral.pdf"
       inkscape:export-xdpi="360"
       inkscape:export-ydpi="360"><path
         id="path1943"
         style="fill:none;stroke:#000000;stroke-width:0.5;stroke-linecap:round;stroke-linejoin:round;stroke-dasharray:none"
         d="m 138.35679,318.59023 c -1.98726,1.49689 -7.09152,-0.69979 -8.12387,-3.33225 -1.03233,-2.63246 -1.36783,-4.64552 -0.43874,-5.29072 0.92911,-0.64523 5.41977,0.36132 6.21983,5.49718 1.80659,-3.01958 -2.45179,-11.58798 -8.70521,-11.58798 -6.2534,0 -10.5118,8.5684 -8.7052,11.58798 0.80006,-5.13586 5.29072,-6.14241 6.21982,-5.49718 0.92911,0.6452 0.59359,2.65826 -0.43874,5.29072 -1.03233,2.63246 -6.09105,4.41917 -8.0783,2.92228"
         sodipodi:nodetypes="cssczcssc" /><path
         id="path1945"
         style="fill:none;stroke:#000000;stroke-width:0.3;stroke-linecap:round;stroke-linejoin:round;stroke-dasharray:none"
         d="m 136.04295,315.49079 c -0.45622,0.365 -5.96752,-0.65696 -6.55149,-5.1098 m -10.91681,5.1098 c 0.45623,0.365 5.96753,-0.65696 6.55151,-5.1098" /><path
         style="fill:none;stroke:#aa0000;stroke-width:0.25;stroke-linecap:butt;stroke-linejoin:round;stroke-dasharray:0, 27.5;stroke-dashoffset:0;marker-start:url(#Scissors)"
         d="m 138.51282,305.70638 -10.87887,5.1262"
         id="path1953"
         sodipodi:nodetypes="cc" /><path
         style="fill:none;stroke:#aa0000;stroke-width:0.25;stroke-linecap:butt;stroke-linejoin:round;stroke-dasharray:0, 27.5;stroke-dashoffset:0;marker-start:url(#Scissors)"
         d="m 134.96791,302.19954 -7.65282,7.8877"
         id="path1955"
         sodipodi:nodetypes="cc" /><path
         style="fill:none;stroke:#aa0000;stroke-width:0.25;stroke-linecap:butt;stroke-linejoin:round;stroke-dasharray:0, 27.5;stroke-dashoffset:0;marker-start:url(#Scissors)"
         d="m 130.26922,299.73857 -3.05892,10.23627"
         id="path1958"
         sodipodi:nodetypes="cc" /><path
         style="fill:none;stroke:#aa0000;stroke-width:0.25;stroke-linecap:butt;stroke-linejoin:round;stroke-dasharray:0, 27.5;stroke-dashoffset:0;marker-start:url(#Scissors)"
         d="m 123.81557,299.96027 2.95444,10.23627"
         id="path1960"
         sodipodi:nodetypes="cc" /><path
         style="fill:none;stroke:#aa0000;stroke-width:0.25;stroke-linecap:butt;stroke-linejoin:round;stroke-dasharray:0, 27.5;stroke-dashoffset:0;marker-start:url(#Scissors)"
         d="m 118.12249,303.37756 5.303,4.42938"
         id="path1962"
         sodipodi:nodetypes="cc" /><path
         style="fill:none;stroke:#aa0000;stroke-width:0.25;stroke-linecap:butt;stroke-linejoin:round;stroke-dasharray:0, 27.5;stroke-dashoffset:0;marker-start:url(#Scissors)"
         d="m 115.33518,307.74835 6.30953,2.6744"
         id="path1964"
         sodipodi:nodetypes="cc" /><path
         id="path2009"
         style="fill:none;stroke:#aa0000;stroke-width:1.2;stroke-linecap:round;stroke-linejoin:round;stroke-dasharray:none;stroke-dashoffset:0"
         d="m 137.8384,314.57823 c -0.18066,-0.77424 -0.18066,-1.10976 -0.36133,-1.5743 m 1.00761,5.5123 c -0.0402,-0.68455 -0.17512,-1.76215 -0.26824,-2.15537 m -0.27481,6.94063 c 0.12904,-0.46456 0.43875,-1.80973 0.40409,-2.61734 m -2.83009,6.90152 c 0.59361,-0.67101 1.36786,-1.54849 1.57432,-2.37436 m -17.65295,5.05845 c 3.42651,2.45971 10.61026,2.80644 14.40108,-1.16138 m -18.34977,-4.00031 c 0.0774,0.72263 1.30477,2.90048 2.10484,3.77797 m -2.05323,-9.14611 c -0.28389,0.72263 -0.43874,2.63244 -0.3355,3.32928 m 1.8324,-7.74253 c -0.28207,0.8222 -0.5313,1.65432 -0.9424,2.67781 m 19.66834,-9.88458 c 0.4059,0.41089 1.31173,2.72504 1.40297,3.18127 m -3.72285,-5.94373 c 0.63299,0.511 1.05899,1.21883 1.36923,1.60207 m -4.53393,-3.81335 c 0.63872,0.20075 1.57624,0.70784 1.92298,1.10932 m -6.81952,-1.41145 c 0.87598,-0.25554 2.7009,-0.21905 3.01114,-0.0548 m -7.15373,2.40891 c 0.52923,-0.62049 1.13147,-1.14971 2.50016,-1.64245 m -5.01857,4.70833 c 0.36499,-0.80297 0.82123,-1.36869 1.16797,-1.75193 m -2.64615,6.47851 c 0.10596,-0.85773 0.3936,-2.46367 0.76646,-2.95639"
         sodipodi:nodetypes="cccccccccccccccccccccccccccccc" /><path
         style="fill:none;stroke:#aa0000;stroke-width:0.25;stroke-linecap:butt;stroke-linejoin:round;stroke-dasharray:0, 27.5;stroke-dashoffset:0;marker-start:url(#Scissors)"
         d="m 114.34157,313.31704 13.0688,4.80144"
         id="path2025"
         sodipodi:nodetypes="cc" /><path
         style="fill:none;stroke:#aa0000;stroke-width:0.25;stroke-linecap:butt;stroke-linejoin:round;stroke-dasharray:0, 27.5;stroke-dashoffset:0;marker-start:url(#Scissors)"
         d="m 112.65981,318.32216 14.00356,0.98146"
         id="path2027"
         sodipodi:nodetypes="cc" /><path
         style="fill:none;stroke:#aa0000;stroke-width:0.25;stroke-linecap:butt;stroke-linejoin:round;stroke-dasharray:0, 27.5;stroke-dashoffset:0;marker-start:url(#Scissors)"
         d="m 112.34306,324.81521 13.97201,-2.93655"
         id="path2029"
         sodipodi:nodetypes="cc" /><path
         style="fill:none;stroke:#aa0000;stroke-width:0.25;stroke-linecap:butt;stroke-linejoin:round;stroke-dasharray:0, 27.5;stroke-dashoffset:0;marker-start:url(#Scissors)"
         d="m 116.20721,332.05979 10.30332,-10.51864"
         id="path2031"
         sodipodi:nodetypes="cc" /><path
         style="fill:none;stroke:#aa0000;stroke-width:0.25;stroke-linecap:butt;stroke-linejoin:round;stroke-dasharray:0, 27.5;stroke-dashoffset:0;marker-start:url(#Scissors)"
         d="M 140.69773,325.75856 126.54481,320.3805"
         id="path2033"
         sodipodi:nodetypes="cc" /><path
         style="fill:none;stroke:#aa0000;stroke-width:0.25;stroke-linecap:butt;stroke-linejoin:round;stroke-dasharray:0, 27.5;stroke-dashoffset:0;marker-start:url(#Scissors)"
         d="M 136.98857,330.78515 126.39116,321.9889"
         id="path2035"
         sodipodi:nodetypes="cc" /><path
         style="fill:none;stroke:#aa0000;stroke-width:0.25;stroke-linecap:butt;stroke-linejoin:round;stroke-dasharray:0, 27.5;stroke-dashoffset:0;marker-start:url(#Scissors)"
         d="m 141.54653,319.59057 -14.16225,0.27895"
         id="path2063"
         sodipodi:nodetypes="cc" /><path
         style="fill:none;stroke:#aa0000;stroke-width:0.25;stroke-linecap:butt;stroke-linejoin:round;stroke-dasharray:0, 27.5;stroke-dashoffset:0;marker-start:url(#Scissors)"
         d="m 141.19993,314.8183 -14.10764,2.09482"
         id="path2067"
         sodipodi:nodetypes="cc" /><path
         style="fill:none;stroke:#aa0000;stroke-width:0.25;stroke-linecap:butt;stroke-linejoin:round;stroke-dasharray:0, 27.5;stroke-dashoffset:0;marker-start:url(#Scissors)"
         d="m 140.36047,311.3331 -13.1137,3.16235"
         id="path2071"
         sodipodi:nodetypes="cc" /><path
         style="fill:#ffffff;stroke:#000000;stroke-width:0.5;stroke-linecap:round;stroke-linejoin:round;stroke-dasharray:none;stroke-dashoffset:0"
         d="m 151.73114,309.90258 c 0,0.62839 -0.96065,11.06199 -1.24687,12.21938 -0.67658,2.73587 -0.77964,6.55416 2.8607,5.45042 3.19072,-0.9674 2.64966,-5.71305 2.64316,-6.04197 -0.006,-0.3267 -0.31076,-10.49674 -0.23533,-11.15025 0.0754,-0.65353 -4.02164,-0.47758 -4.02164,-0.47758 z"
         id="path3918"
         sodipodi:nodetypes="ssssscs" /><path
         id="path3920"
         style="fill:#ffffff;stroke:#000000;stroke-width:0.5;stroke-linecap:round;stroke-linejoin:round;stroke-dasharray:none;stroke-dashoffset:0"
         d="m 152.1439,306.19697 c -0.11615,1.41946 -0.91621,2.91635 -1.35496,3.61318 -0.25298,0.40182 2.01018,0.65644 2.91395,0.65644 0.90376,0 3.33187,-0.0839 3.21556,-0.25641 -1.17428,-1.74207 -1.26461,-2.99378 -1.26461,-3.9874 m -14.50183,-5.44448 c 0,-1.35366 8.37298,-5.00031 11.93505,-5.00031 4.95571,0 13.83518,4.47943 13.83518,5.21305 0,1.31067 -5.0337,5.26205 -13.06871,5.26205 -8.87512,0 -12.70152,-5.13226 -12.70152,-5.47479 z"
         sodipodi:nodetypes="cssscsssss" /><g
         id="g4653"
         style="fill:#aa0000"
         transform="matrix(0.78034903,0,0,0.78034903,-12.937464,69.559586)"><path
           id="path3924"
           style="fill:#aa0000;stroke:none;stroke-width:0.750001;stroke-linecap:round;stroke-linejoin:round;stroke-dasharray:none;stroke-dashoffset:0;stroke-opacity:1"
           d="m 211.61292,289.60455 c -0.67502,0.005 -1.06254,0.14045 -0.94981,0.46457 0.12884,0.37041 0.8441,0.89169 1.67483,0.52348 0.83073,-0.3682 0.44175,-0.94737 -0.41858,-0.98237 -0.10754,-0.004 -0.21,-0.006 -0.30644,-0.006 z m 3.7729,0.0496 c -0.025,1.4e-4 -0.0512,4.6e-4 -0.078,0.002 -0.86033,0.035 -1.36817,0.45708 -0.53744,0.82528 0.83073,0.36824 1.0158,0.34612 1.14464,-0.0243 0.12481,-0.35884 0.24558,-0.80672 -0.52917,-0.80254 z m -7.01921,0.65061 c -0.0809,0.002 -0.15907,0.0169 -0.23203,0.0465 -0.66708,0.271 -0.99855,0.21714 -0.86971,0.58756 0.12884,0.37041 1.00533,0.85965 1.83606,0.49144 0.73987,-0.32792 -0.0759,-1.14267 -0.73432,-1.12551 z m 9.95185,0.185 c -0.54965,-0.005 -0.70581,0.798 0.0754,1.05834 0.86207,0.28727 1.52791,-0.0438 1.46141,-0.40205 -0.0665,-0.35826 -0.66455,-0.42123 -1.35444,-0.62735 -0.0647,-0.0193 -0.12555,-0.0284 -0.18241,-0.0289 z m -1.73478,0.49765 c -0.45831,0.008 -0.99039,0.1918 -1.45624,0.59841 -0.69335,0.60518 0.51719,1.93015 0.97668,1.10794 0.45951,-0.82219 1.6066,-1.36761 1.08159,-1.59628 -0.17227,-0.075 -0.37821,-0.11377 -0.60203,-0.11007 z m -5.00848,0.40514 c -0.30773,0.006 -0.45281,0.10545 -0.57206,0.29301 -0.2385,0.3751 -0.46911,0.8463 1.12345,0.8108 1.59256,-0.0354 2.53306,-0.46327 0.99528,-0.83613 -0.76888,-0.18646 -1.23895,-0.27363 -1.54667,-0.26768 z m -7.27036,0.17002 c -0.0788,0.001 -0.15596,0.0153 -0.22892,0.045 -0.66708,0.271 -0.90192,0.7489 -0.77308,1.11932 0.12884,0.3704 0.81206,-0.18783 1.64279,-0.26614 0.73988,-0.0697 9.2e-4,-0.9072 -0.64079,-0.89813 z m 18.28726,0.1142 c -0.63332,0.0198 -1.33358,0.82962 -0.60668,0.89814 0.83073,0.0783 1.51395,0.63602 1.64279,0.26561 0.12884,-0.37042 -0.106,-0.84831 -0.77308,-1.11931 -0.0834,-0.0339 -0.17256,-0.0473 -0.26303,-0.0444 z m -2.14561,0.92191 c -0.32262,-1.5e-4 -0.5341,0.1126 -0.50436,0.23202 0.0406,0.16261 0.40544,0.19166 0.82631,0.28526 0.42089,0.0936 0.59154,-0.33728 0.0656,-0.46767 -0.1397,-0.0346 -0.27088,-0.0496 -0.38758,-0.0496 z m -11.8215,0.0233 c -0.19418,1.2e-4 -0.28323,0.10795 -0.35605,0.3173 -0.14122,0.406 -0.27741,0.91638 0.66559,0.87798 0.943,-0.0384 1.49967,-0.50128 0.58912,-0.90486 -0.44106,-0.19549 -0.71624,-0.29053 -0.89866,-0.29042 z m 16.56437,0.4284 c -0.0827,0.003 -0.14169,0.0539 -0.19379,0.17828 -0.15155,0.36171 0.17401,1.31073 1.03818,1.59164 0.86415,0.28092 0.67921,-1.20456 0.002,-1.44849 -0.44457,-0.16009 -0.68866,-0.32739 -0.84646,-0.32143 z m -24.75973,0.11627 c -0.16692,0.002 -0.35807,0.0533 -0.55811,0.17518 -0.85345,0.51996 -0.79526,1.25199 -0.55604,1.3932 0.23932,0.14112 0.76123,-0.293 1.43196,-0.72192 0.51351,-0.32838 0.22744,-0.85223 -0.31781,-0.84646 z m 12.64935,0.48834 c -0.6881,0.003 -1.00861,0.44358 -0.94516,0.66921 0.0753,0.26742 0.75262,0.31485 1.53376,0.46871 0.78111,0.15386 0.80764,-0.87645 -0.16847,-1.09089 -0.15251,-0.0335 -0.2927,-0.0477 -0.42013,-0.047 z m 5.23844,0.0227 c -0.0864,-3.3e-4 -0.18436,0.0203 -0.29042,0.0687 -0.61706,0.28157 -0.81229,0.80133 -0.59376,0.96325 0.21858,0.16188 0.57711,-0.10791 1.05885,-0.34623 0.39893,-0.19734 0.24175,-0.68415 -0.17467,-0.68575 z m -13.61209,0.21963 c -0.38063,0.007 -0.62786,0.18916 -0.59221,0.38137 0.0497,0.26742 0.49634,0.31484 1.01131,0.4687 0.51495,0.15386 0.7236,-0.5545 0.0801,-0.76894 -0.18099,-0.0603 -0.35025,-0.084 -0.4992,-0.0811 z m 17.68213,0.35036 c -0.17945,0.006 -0.44656,0.11096 -0.84543,0.37569 -1.10992,0.73658 -1.54974,1.51598 -0.262,1.1498 1.28776,-0.36613 1.5188,-0.53741 1.4888,-0.96118 -0.0192,-0.27147 -0.0615,-0.57497 -0.38137,-0.56431 z m 5.8198,0.1478 c -0.10473,3.8e-4 -0.18312,0.0528 -0.23048,0.16588 -0.15155,0.36171 0.0324,1.22752 0.89659,1.50843 0.86415,0.28092 0.96153,-0.41005 0.34468,-1.01079 -0.42408,-0.41301 -0.78038,-0.66436 -1.01079,-0.66352 z m -26.81542,0.0713 c -0.093,-7.5e-4 -0.15057,0.0518 -0.16226,0.18552 -0.05,0.57046 0.32358,1.33122 1.11776,1.79627 0.79417,0.46503 1.66562,-1.10415 0.74001,-1.27847 -0.70867,-0.13349 -1.39185,-0.70086 -1.69551,-0.70332 z m 5.39605,0.81907 c -0.0534,0 -0.10838,0.003 -0.16484,0.009 -0.90348,0.0969 -0.70981,0.76748 0.0987,1.0635 v -5.1e-4 c 0.80855,0.29603 1.34592,0.33882 1.33635,-0.0532 -0.009,-0.36755 -0.46841,-1.01899 -1.27021,-1.01906 z m 19.81482,0.26355 c -0.0915,0.004 -0.20281,0.0892 -0.3266,0.2806 -0.38648,0.59765 -0.39173,0.74334 -0.12092,0.88832 0.27081,0.14499 0.61581,0.29832 0.69401,-0.37155 0.0531,-0.45531 -0.0523,-0.80671 -0.24649,-0.79737 z m -7.61401,0.21756 c -0.23416,-0.002 -0.41026,0.12948 -0.37052,0.4532 0.1106,0.90078 -0.41282,1.87206 0.0806,1.83296 0.49343,-0.0391 1.02961,-0.50647 1.19992,-1.32705 0.10911,-0.52568 -0.49261,-0.95519 -0.91002,-0.95911 z m -8.23774,0.003 c -0.201,1.5e-4 -0.4114,0.0387 -0.61908,0.13074 -0.83073,0.3682 0.29928,1.35001 0.96635,1.07901 0.66708,-0.271 0.99855,-0.21715 0.86971,-0.58757 -0.0966,-0.2778 -0.61399,-0.62262 -1.21698,-0.62218 z m 4.75682,0.14366 c -0.28543,0.004 -0.82545,0.33246 -1.44849,0.39119 -0.83074,0.0783 0.20264,1.1247 0.86971,0.8537 0.66708,-0.271 0.90192,-0.7489 0.77308,-1.11932 -0.0322,-0.0926 -0.0992,-0.127 -0.1943,-0.12557 z" /><path
           id="path4649"
           style="fill:#aa0000;stroke:none;stroke-width:0.429021;stroke-linecap:round;stroke-linejoin:round;stroke-dasharray:none;stroke-dashoffset:0;stroke-opacity:1"
           d="m 211.35016,318.99946 c 0,0.2538 -0.39945,0.12225 -0.35707,0.40436 0.0484,0.3224 0.31733,0.77612 0.62963,0.45563 0.3123,-0.32048 0.16607,-0.82458 -0.15736,-0.85505 -0.0404,-0.003 -0.1152,-0.0412 -0.1152,-0.005 z m 1.96595,-0.19838 c -0.009,1.2e-4 -0.0192,4e-4 -0.0293,0.002 -0.32343,0.0305 -0.51435,0.39784 -0.20205,0.71832 0.3123,0.32052 0.38188,0.30126 0.43032,-0.0212 0.0469,-0.31233 0.0923,-0.70217 -0.19894,-0.69853 z m -3.39574,1.51649 c -0.0254,-0.0169 -0.0598,0.0147 -0.0872,0.0405 -0.25078,0.23588 -0.37539,0.189 -0.32696,0.51141 0.0484,0.32241 0.37794,0.74824 0.69025,0.42775 0.27814,-0.28542 -0.0697,-0.84207 -0.27606,-0.97964 z m 4.49823,-0.78918 c -0.20663,-0.004 -0.26534,0.69458 0.0283,0.92118 0.32408,0.25004 0.57439,-0.0381 0.5494,-0.34994 -0.025,-0.31183 -0.24984,-0.36664 -0.50919,-0.54605 -0.0243,-0.0168 -0.0472,-0.0247 -0.0686,-0.0251 z m -0.65217,0.43316 c -0.1723,0.007 -0.37233,0.16694 -0.54746,0.52085 -0.26066,0.52675 0.19443,1.68 0.36718,0.96435 0.17274,-0.71563 0.60398,-1.19037 0.4066,-1.3894 -0.0648,-0.0653 -0.14218,-0.099 -0.22632,-0.0958 z m -2.63982,1.02904 c -0.11569,0.005 -0.17024,0.0918 -0.21506,0.25503 -0.0897,0.32649 -0.17636,0.73662 0.42234,0.70572 0.59871,-0.0308 0.95228,-0.40323 0.37417,-0.72776 -0.28905,-0.1623 -0.46577,-0.23817 -0.58145,-0.23299 z m 5.34956,-0.46124 c -0.23809,0.0172 -0.45825,0.42154 -0.45354,0.70121 0.006,0.3742 0.64967,0.77907 0.6981,0.45667 0.0484,-0.32241 0.10515,-0.88332 -0.14568,-1.1192 -0.0313,-0.0295 -0.0649,-0.0412 -0.0989,-0.0386 z m -1.25756,0.83464 c -0.12129,-1.3e-4 -0.20079,0.098 -0.18961,0.20195 0.0153,0.14154 0.15242,0.16682 0.31064,0.24829 0.15823,0.0815 0.22239,-0.29357 0.0247,-0.40706 -0.0525,-0.0301 -0.10183,-0.0432 -0.1457,-0.0432 z m -5.39436,-2.87862 c -0.073,1.1e-4 -0.10648,0.094 -0.13386,0.27618 -0.0531,0.35338 -0.10429,0.79761 0.25022,0.76419 0.35452,-0.0334 0.56379,-0.43631 0.22147,-0.78759 -0.1658,-0.17015 -0.26926,-0.25287 -0.33783,-0.25278 z m 2.62462,3.79805 c -0.25868,0.003 -0.37917,0.38609 -0.35532,0.58248 0.0283,0.23276 0.28294,0.27404 0.5766,0.40796 0.29365,0.13392 0.30363,-0.76286 -0.0633,-0.94951 -0.0573,-0.0292 -0.11004,-0.0415 -0.15795,-0.0409 z m 1.96934,0.0198 c -0.0325,-2.9e-4 -0.0693,0.0177 -0.10918,0.0598 -0.23198,0.24508 -0.30537,0.69748 -0.22322,0.83841 0.0822,0.1409 0.21696,-0.0939 0.39806,-0.30135 0.14998,-0.17177 0.0909,-0.59549 -0.0657,-0.59688 z m -5.02069,0.23948 c 0.0641,-0.1281 -0.23604,0.16465 -0.22263,0.33195 0.0187,0.23276 0.18659,0.27403 0.38019,0.40795 0.19359,0.13392 0.27203,-0.48263 0.0301,-0.66928 -0.068,-0.0525 -0.21274,-0.0205 -0.18767,-0.0706 z m 6.55078,0.25664 c -0.0675,0.005 -0.16788,0.0966 -0.31783,0.327 -0.41727,0.64111 -0.58261,1.3195 -0.0985,1.00078 0.48412,-0.31868 0.57098,-0.46776 0.5597,-0.83661 -0.007,-0.23629 -0.0231,-0.50045 -0.14337,-0.49117 z m 0.67401,1.03052 c -0.0394,0 -0.0688,0.046 -0.0866,0.14438 -0.057,0.31483 -0.14885,1.21338 0.17601,1.45789 0.32487,0.24451 0.45811,-0.38912 0.29063,-1.02474 -0.1002,-0.38028 -0.29337,-0.57753 -0.37999,-0.57753 z m -1.95174,0.29189 c -0.088,-0.002 -0.15423,0.1127 -0.13929,0.39447 0.0416,0.78403 -0.1552,1.62943 0.0303,1.5954 0.18549,-0.034 0.38706,-0.44083 0.45109,-1.15506 0.041,-0.45755 -0.18519,-0.8314 -0.34211,-0.83481 z m -3.90215,-0.85057 c -0.0756,1.3e-4 -0.15466,0.0337 -0.23274,0.1138 -0.3123,0.32048 0.11251,1.17504 0.36329,0.93917 0.25078,-0.23588 0.3754,-0.18901 0.32696,-0.51142 -0.0363,-0.2418 -0.23082,-0.54193 -0.45751,-0.54155 z m 1.73997,1.02694 c -0.10735,0 -0.31032,0.28937 -0.54455,0.34049 -0.31231,0.0682 0.0762,0.97893 0.32696,0.74305 0.25078,-0.23587 0.33907,-0.65184 0.29063,-0.97425 -0.0121,-0.0806 -0.0373,-0.10929 -0.073,-0.10929 z"
           sodipodi:nodetypes="ssscssccssccscsssscssscccsssccscsccsssccsssssssssssssssssscsssssssssscssccsssssssssssssssssssssss" /></g></g><text
       xml:space="preserve"
       transform="matrix(0.25826371,0,0,0.25826371,51.018031,10.308184)"
       id="text4905"
       style="font-style:normal;font-variant:normal;font-weight:normal;font-stretch:normal;font-size:13.3333px;line-height:1.25;font-family:'Liberation Sans';-inkscape-font-specification:'Liberation Sans';text-align:center;letter-spacing:0px;word-spacing:0px;white-space:pre;shape-inside:url(#rect4915);display:inline"
       x="27.320894"
       y="0"
       inkscape:export-filename="anat-voilegeneral.pdf"
       inkscape:export-xdpi="360"
       inkscape:export-ydpi="360"><tspan
         x="43.489704"
         y="119.1819"
         id="tspan768">Volve circoncise</tspan></text><text
       xml:space="preserve"
       transform="matrix(0.25826371,0,0,0.25826371,-1.1209985,10.408051)"
       id="text4909"
       style="font-size:13.3333px;line-height:1.25;font-family:sans-serif;text-align:center;letter-spacing:0px;word-spacing:0px;white-space:pre;shape-inside:url(#rect4917);display:inline"
       x="27.320894"
       y="0"
       inkscape:export-filename="anat-voilegeneral.pdf"
       inkscape:export-xdpi="360"
       inkscape:export-ydpi="360"><tspan
         x="53.486424"
         y="119.1819"
         id="tspan772"><tspan
           style="font-family:'Liberation Sans';-inkscape-font-specification:'Liberation Sans'"
           id="tspan770">Volve en sac</tspan></tspan></text><text
       xml:space="preserve"
       transform="matrix(0.25826371,0,0,0.25826371,108.39536,10.308184)"
       id="text4913"
       style="font-style:normal;font-variant:normal;font-weight:normal;font-stretch:normal;font-size:13.3333px;line-height:1.25;font-family:'Liberation Sans';-inkscape-font-specification:'Liberation Sans';text-align:center;letter-spacing:0px;word-spacing:0px;white-space:pre;shape-inside:url(#rect4919);display:inline"
       x="27.320894"
       y="0"
       inkscape:export-filename="anat-voilegeneral.pdf"
       inkscape:export-xdpi="360"
       inkscape:export-ydpi="360"><tspan
         x="56.823004"
         y="119.1819"
         id="tspan774">Floconneux</tspan></text><text
       xml:space="preserve"
       transform="scale(0.26458333)"
       id="text50656"
       style="font-size:10.6667px;line-height:1.25;font-family:sans-serif;letter-spacing:0px;word-spacing:0px;white-space:pre;shape-inside:url(#rect50658);display:inline" /></g></svg>
