<?xml version="1.0" encoding="UTF-8" standalone="no"?>
<!-- Created with Inkscape (http://www.inkscape.org/) -->

<svg
   width="160mm"
   height="30mm"
   viewBox="0 0 160 30"
   version="1.1"
   id="svg5"
   xml:space="preserve"
   inkscape:version="1.1.2 (0a00cf5339, 2022-02-04)"
   sodipodi:docname="anat-marge.svg"
   inkscape:export-filename="Anat-InsertionLames.pdf"
   inkscape:export-xdpi="360"
   inkscape:export-ydpi="360"
   xmlns:inkscape="http://www.inkscape.org/namespaces/inkscape"
   xmlns:sodipodi="http://sodipodi.sourceforge.net/DTD/sodipodi-0.dtd"
   xmlns="http://www.w3.org/2000/svg"
   xmlns:svg="http://www.w3.org/2000/svg"><sodipodi:namedview
     id="namedview7"
     pagecolor="#ffffff"
     bordercolor="#000000"
     borderopacity="0.25"
     inkscape:showpageshadow="2"
     inkscape:pageopacity="0.0"
     inkscape:pagecheckerboard="0"
     inkscape:deskcolor="#d1d1d1"
     inkscape:document-units="mm"
     showgrid="false"
     inkscape:zoom="0.5"
     inkscape:cx="456"
     inkscape:cy="457"
     inkscape:window-width="1883"
     inkscape:window-height="1062"
     inkscape:window-x="37"
     inkscape:window-y="0"
     inkscape:window-maximized="1"
     inkscape:current-layer="layer1"
     inkscape:pageshadow="2"
     inkscape:snap-global="false" /><defs
     id="defs2"><rect
       x="808.32562"
       y="620.8114"
       width="80.540253"
       height="28.767313"
       id="rect50658" /><inkscape:path-effect
       effect="roughen"
       id="path-effect5774"
       is_visible="true"
       lpeversion="1.2"
       method="size"
       max_segment_size="0.2"
       segments="11"
       displace_x="0.1;1"
       displace_y="0.1;1"
       global_randomize="1;1"
       handles="along"
       shift_nodes="true"
       fixed_displacement="false"
       spray_tool_friendly="false" /><rect
       x="563.56409"
       y="620.13263"
       width="54.44722"
       height="34.648232"
       id="rect25085" /><rect
       x="156.27058"
       y="563.56409"
       width="91.216774"
       height="33.58757"
       id="rect3751" /><rect
       x="21.270981"
       y="107.17227"
       width="140.03624"
       height="44.140839"
       id="rect6109" /><rect
       x="21.270981"
       y="107.17227"
       width="140.03624"
       height="44.140839"
       id="rect6558" /><rect
       x="21.270981"
       y="107.17227"
       width="140.03624"
       height="44.140839"
       id="rect6564" /><rect
       x="21.270981"
       y="107.17227"
       width="140.03624"
       height="44.140839"
       id="rect6570" /><rect
       x="21.270981"
       y="107.17227"
       width="140.03624"
       height="44.140839"
       id="rect6917" /><rect
       x="21.270981"
       y="107.17227"
       width="140.03624"
       height="44.140839"
       id="rect1273" /></defs><g
     inkscape:label="Calque 1"
     inkscape:groupmode="layer"
     id="layer1"><g
       id="g45051"
       transform="translate(3.0002226,0.71600161)"
       inkscape:export-filename="anat-insertionslames.pdf"
       inkscape:export-xdpi="360"
       inkscape:export-ydpi="360" /><text
       xml:space="preserve"
       transform="scale(0.26458333)"
       id="text3749"
       style="font-style:normal;font-variant:normal;font-weight:normal;font-stretch:normal;font-size:24px;font-family:'Liberation Sans';-inkscape-font-specification:'Liberation Sans';white-space:pre;shape-inside:url(#rect3751);display:inline;fill:#000000;stroke:none;stroke-width:1.88976;stroke-linejoin:round;stroke-dasharray:0.999999, 3" /><text
       xml:space="preserve"
       transform="scale(0.26458333)"
       id="text25083"
       style="font-style:normal;font-variant:normal;font-weight:normal;font-stretch:normal;font-size:24px;font-family:'Liberation Sans';-inkscape-font-specification:'Liberation Sans';text-align:end;white-space:pre;shape-inside:url(#rect25085);display:inline;fill:#ff2a2a;fill-opacity:1;stroke:none;stroke-width:1.88976;stroke-linejoin:round;stroke-dasharray:none" /><g
       id="g1795"
       transform="matrix(0.99999688,0,0,1,-5.2359269,-171.19015)"
       inkscape:export-filename="anat-marge.pdf"
       inkscape:export-xdpi="360"
       inkscape:export-ydpi="360"><path
         style="fill:none;stroke:#000000;stroke-width:0.5;stroke-linecap:round;stroke-linejoin:round;stroke-dasharray:1.5, 2.5;stroke-dashoffset:0"
         d="M 55.56958,192.553 H 32.732152 v -18.7816"
         id="path561" /><path
         style="fill:none;stroke:#000000;stroke-width:0.5;stroke-linecap:round;stroke-linejoin:round;stroke-dasharray:none"
         d="m 55.53838,192.52179 c 0,-1.38046 -0.859856,-1.42712 -1.265439,-2.19146 -0.405583,-0.7644 0.142292,-2.56633 -1.729631,-4.36024 -1.87192,-1.79393 -3.759441,-1.26356 -5.303776,-2.33992 -1.544335,-1.07635 -1.060754,-2.46471 -3.104267,-3.88425 -2.043512,-1.41954 -4.014868,-0.51109 -5.584562,-1.65353 -1.800535,-1.31041 -2.729193,-4.34476 -5.818553,-4.30541"
         id="path1182"
         sodipodi:nodetypes="cszzzsc" /></g><g
       id="g1799"
       transform="matrix(0.99999688,0,0,1,-4.8849108,-171.19015)"
       inkscape:export-filename="anat-marge.pdf"
       inkscape:export-xdpi="360"
       inkscape:export-ydpi="360"><path
         style="fill:none;stroke:#000000;stroke-width:0.5;stroke-linecap:round;stroke-linejoin:round;stroke-dasharray:1.5, 2.5;stroke-dashoffset:0"
         d="M 59.722853,192.553 H 82.56028 v -18.7816"
         id="path1280" /><path
         style="fill:none;stroke:#000000;stroke-width:0.5;stroke-linecap:round;stroke-linejoin:round;stroke-dasharray:none;stroke-dashoffset:0"
         d="m 82.502335,173.37696 c -0.352973,0 -3.338141,-0.0911 -3.253965,2.43773 -1.31197,-1.13704 -3.687331,0.0485 -3.253968,1.84208 -1.290365,-0.97543 -3.124452,-0.26144 -2.790692,1.36775 -1.452362,-0.44548 -3.215237,0.74334 -2.838043,1.99916 -1.52592,-0.49127 -3.257139,0.74836 -2.886733,1.92767 -1.478111,-0.13112 -2.925996,0.86312 -2.514926,2.44872 -1.688231,-0.0189 -2.523212,1.27985 -2.206081,2.41567 -1.553686,0.16868 -2.469722,1.45442 -1.842074,2.64729 -0.873701,0.0847 -1.841353,1.52475 -1.147163,2.08472"
         id="path1284"
         sodipodi:nodetypes="cccccccccc" /></g><g
       id="g1791"
       transform="matrix(0.99999688,0,0,1,-3.6579525,-171.19015)"
       inkscape:export-filename="anat-marge.pdf"
       inkscape:export-xdpi="360"
       inkscape:export-ydpi="360"><path
         style="fill:none;stroke:#000000;stroke-width:0.5;stroke-linecap:round;stroke-linejoin:round;stroke-dasharray:1.5, 2.5;stroke-dashoffset:0"
         d="M 3.9079639,192.55871 H 26.745396 v -18.78159"
         id="path1902" /><path
         style="fill:none;stroke:#000000;stroke-width:0.5;stroke-linecap:round;stroke-linejoin:round;stroke-dasharray:none"
         d="m 3.9391689,192.52751 c 0.636163,-3.20451 3.019143,-4.58669 4.542985,-6.74637 1.5238321,-2.15968 2.1885031,-5.09683 4.0054481,-6.41945 1.816954,-1.32265 3.755661,-2.44289 6.396195,-3.49325 2.640534,-1.05038 4.360545,-2.0621 7.861599,-2.07574"
         id="path1904"
         sodipodi:nodetypes="csssc" /></g><g
       id="g1808"
       transform="matrix(0.99999688,0,0,1,-6.0932383,-171.19015)"
       inkscape:export-filename="anat-marge.pdf"
       inkscape:export-xdpi="360"
       inkscape:export-ydpi="360"><path
         style="fill:none;stroke:#000000;stroke-width:0.5;stroke-linecap:round;stroke-linejoin:round;stroke-dasharray:1.5, 2.5;stroke-dashoffset:0"
         d="m 115.32808,192.55871 h 22.83744 v -18.78159"
         id="path1906" /><path
         style="fill:none;stroke:#000000;stroke-width:0.5;stroke-linecap:round;stroke-linejoin:round;stroke-dasharray:none"
         d="m 115.35929,192.52751 c 0.63616,-3.20451 1.30321,-5.46026 2.82704,-7.61993 1.52383,-2.15968 4.02925,-4.81604 5.8462,-6.13867 1.81694,-1.32264 3.63086,-1.85011 6.27139,-2.90047 2.64053,-1.05038 4.36055,-2.0621 7.8616,-2.07574"
         id="path1908"
         sodipodi:nodetypes="csssc" /><path
         id="path2598"
         style="fill:none;stroke:#000000;stroke-width:0.3;stroke-linecap:round;stroke-linejoin:round;stroke-dasharray:none;stroke-dashoffset:0"
         d="m 119.09997,183.76226 c 0.92655,0.5736 4.80927,2.93411 7.52274,4.80929 m -8.09633,-4.05923 c 0.90451,0.48536 2.86791,1.45605 3.52973,2.11787 m -4.03712,-1.4119 c 1.22938,0.69591 7.41784,4.25313 8.58166,4.67688 m -9.06699,-3.83858 c 1.36777,0.63978 4.63277,2.27226 5.80199,2.80173 m -6.22115,-2.13987 c 1.10304,0.83826 7.32419,3.64001 8.03014,3.83857 m -8.40517,-2.8238 c 0.70595,0.59563 6.19908,2.58111 6.64029,3.00027 m -7.05944,-1.91931 c 0.85618,0.61327 7.65214,2.65907 8.73606,3.35326 m -9.11109,-1.98545 c 1.27952,0.66181 3.42358,0.83803 5.2284,1.94131 m -5.58139,-0.81621 c 0.41917,0.24266 1.91931,0.88241 2.84585,0.99273 m 1.14165,-9.1194 c 0.57359,0.41915 4.26324,2.36879 4.94712,2.98649 m -4.37629,-3.64832 c 1.03685,0.6177 6.80299,4.46458 7.57511,4.94992 m -6.90502,-5.77993 c 0.81624,0.39708 5.2284,3.28703 6.37557,4.25773 m -5.66962,-4.98573 c 1.98545,0.97064 7.12562,4.78716 8.38309,5.80199 m -7.52272,-6.68445 c 0.55151,0.13244 4.34598,2.27226 6.46381,4.52246 m -3.79445,-6.57409 c 0.39708,0.48531 3.61795,3.4635 3.79445,3.81653 m -2.55904,-4.4122 c 0.90448,1.08098 4.98572,5.84613 5.38282,6.48588 m -3.81652,-7.01529 c 0.5115,0.60896 4.01025,4.72258 4.14742,5.69167 m -1.65454,-6.72858 c 0.61769,0.79419 1.30157,1.80902 1.5222,2.44877 M 132.16,175.2027 c 0.41916,0.48535 0.94862,1.27953 1.19129,2.11781 m 0.11037,-2.66931 c 0.41915,0.70593 1.08097,1.54424 1.54425,3.19882 m 2.0296,-4.08126 c 0.35297,0.6618 0.81624,3.50768 0.81624,4.14742 m -2.73555,-3.79446 c 0.4633,0.63975 1.38983,3.81648 1.43394,4.23564 m -0.41914,-4.45624 c 0.37503,0.59563 1.45601,6.64029 1.38983,7.58887 m -3.11056,-7.21382 c 0.41914,0.81622 1.83104,4.87541 1.98547,6.33143 m -6.99327,-4.30187 c 0.69111,0.44615 4.19862,6.38791 4.50041,7.74336 m -2.44875,-8.51549 c 0.60257,0.80931 2.86255,5.23374 3.0885,7.16976 m -1.61044,-7.83157 c 0.59564,0.61768 2.33844,5.71375 2.36052,6.24317 m -11.49223,-2.01507 c 0.59565,0.30885 4.97572,3.16355 6.77112,5.80954"
         sodipodi:nodetypes="cccccccccccccccccccccccccccccccccccccccccccccccccccccccc" /></g><g
       id="g1813"
       transform="matrix(0.99999688,0,0,1,-5.3447033,-171.19015)"
       inkscape:export-filename="anat-marge.pdf"
       inkscape:export-xdpi="360"
       inkscape:export-ydpi="360"><path
         style="fill:none;stroke:#000000;stroke-width:0.5;stroke-linecap:round;stroke-linejoin:round;stroke-dasharray:1.5, 2.5;stroke-dashoffset:0"
         d="M 164.43214,192.55339 H 141.59472 V 173.7718"
         id="path3960" /><path
         style="fill:none;stroke:#000000;stroke-width:0.5;stroke-linecap:round;stroke-linejoin:round;stroke-dasharray:none"
         d="m 164.43213,192.53819 c 0.0772,-1.89586 -2.66465,-5.56614 -4.77339,-7.67487 -2.10874,-2.10874 -7.07329,-4.4605 -9.21919,-5.88095 -2.14592,-1.42046 -4.10194,-5.37434 -8.81363,-5.17899"
         id="path3962"
         sodipodi:nodetypes="czzc" /><path
         id="path5739"
         style="fill:none;stroke:#000000;stroke-width:0.3;stroke-linecap:round;stroke-linejoin:round;stroke-dasharray:none;stroke-dashoffset:0"
         d="m 162.20144,187.7176 c -0.0181,-0.0223 0.0111,0.0108 0.002,-0.0231 0.0297,0.0133 -0.0969,-0.0922 -0.0936,-0.16118 -0.0773,-0.0357 -0.0337,-0.0413 -0.023,-0.10224 -0.0297,-0.009 0.0466,-0.141 0.0715,-0.22904 0.0321,-0.0484 0.0261,-0.11729 0.0497,-0.18776 0.0112,-0.0578 0.005,-0.12306 0.035,-0.20119 -0.0142,-0.059 0.11356,-0.0981 0.15132,-0.1877 0.0845,-0.0165 0.01,-0.15688 0.052,-0.25176 -0.0269,-0.0675 0.0849,-0.19351 0.13148,-0.29089 0.0363,-0.0825 0.0606,-0.15216 0.10126,-0.23323 0.0255,-0.0765 0.0987,-0.17658 0.14382,-0.26203 0.0521,-0.0819 0.0769,-0.15448 0.11868,-0.23042 0.0379,-0.0789 0.0688,-0.10529 0.11255,-0.18141 0.0334,-0.0385 0.0677,-0.10625 0.11945,-0.19231 0.0191,-0.0193 0.0754,-0.18332 0.1311,-0.27167 0.007,-0.0682 0.0725,-0.15375 0.11693,-0.21781 0.0223,-0.0718 0.0805,-0.11033 0.11875,-0.15863 0.0399,-0.0489 0.0763,-0.0884 0.11076,-0.12667 0.0369,-0.0365 0.12299,-0.0688 0.15233,-0.0972 0.08,-0.0199 0.0325,-0.0722 0.0417,-0.0885 0.0146,-0.0259 0.0298,-0.0167 0.0477,-0.0213 -0.0394,-0.0266 -0.0878,-0.0541 -0.13369,-0.0724 -0.0495,-0.0228 -0.10728,-0.0248 -0.15665,-0.0354 -0.0634,-0.003 -0.0965,-0.0165 -0.14765,-0.0208 -0.0566,-0.004 -0.11515,-0.0132 -0.17599,-0.0116 -0.061,-0.005 -0.14589,-0.0419 -0.2108,-0.0345 -0.0823,-0.0413 -0.10169,0.0466 -0.16497,0.0585 -0.0509,0.0437 -0.13984,0.0829 -0.21485,0.10148 -0.0604,0.0695 -0.10232,0.0718 -0.17066,0.0907 -0.0446,0.0586 -0.15407,0.0444 -0.23273,0.0669 -0.0707,0.0216 -0.1536,-0.006 -0.22575,0.0155 -0.0827,-0.0257 -0.1967,0.0601 -0.26882,0.0836 -0.10538,0.0337 -0.13314,0.0139 -0.18515,0.0318 -0.0908,8.2e-4 -0.14644,0.032 -0.20664,0.0556 -0.0827,0.0113 -0.0949,0.048 -0.15253,0.0743 -0.0389,0.028 -0.12301,0.0401 -0.19039,0.0703 -0.0465,0.004 -0.18079,0.0879 -0.24178,0.11725 -0.0534,0.0257 -0.0466,0.0157 -0.0933,0.0313 0.003,-0.11231 0.0126,-0.21622 0.003,-0.29178 0.004,-0.0857 0.0305,-0.13256 0.009,-0.1791 0.0278,-0.0628 -0.10684,-0.0661 -0.16325,-0.0997 -0.0671,0.015 -0.0526,-0.0361 -0.0863,-0.0626 -0.038,-0.0299 -0.0258,0.006 -0.0694,-0.0176 -0.0646,-0.0223 -0.0727,-0.10741 -0.15262,-0.11816 -0.0321,-0.0828 -0.17507,0.0742 -0.28737,0.0767 -0.0634,0.0926 -0.18022,-0.0248 -0.27748,-0.0243 -0.075,-0.0284 -0.17924,0.006 -0.26221,0.006 -0.0759,0.004 -0.15274,-0.0207 -0.21394,-0.0243 -0.0619,-0.0234 -0.10605,-0.005 -0.1404,-0.01 -0.0365,-0.005 -0.0583,0 -0.0603,-0.0187 -7.8e-4,-0.007 0.009,-0.0139 0.0113,-0.0367 0.0116,-0.0158 0.0558,-0.0672 0.0606,-0.10745 0.0541,-0.0433 -0.0238,-0.0651 -0.0185,-0.10765 -0.0259,-0.0459 0.007,-0.0395 0.0156,-0.10386 0.004,-0.009 0.0244,-0.17169 0.0377,-0.26829 0.0112,-0.0716 0.0772,-0.0967 0.0877,-0.1726 0.07,-0.0435 0.0557,-0.21581 0.0684,-0.31209 0.0402,-0.10585 -0.0346,-0.12931 -0.0252,-0.2039 -0.0417,-0.0789 0.0282,-0.18957 0.0405,-0.28735 0.0156,-0.0888 -0.007,-0.18941 0.004,-0.28112 -0.0189,-0.0972 0.0185,-0.186 0.0301,-0.27546 0.007,-0.0945 -0.0143,-0.23889 -0.003,-0.32548 -0.0282,-0.13142 0.0789,-0.10997 0.0889,-0.1762 0.0734,-0.0631 0.0484,-0.15968 0.06,-0.24394 0.0338,-0.0653 -0.0573,-0.2296 -0.0488,-0.30667 -0.0731,-0.11694 0.0867,-0.0493 0.0943,-0.0959 0.0866,-0.0241 0.10351,-0.12378 0.10807,-0.18918 0.088,-0.0414 0.0104,-0.0763 -0.008,-0.13103 0.007,0.0167 0.008,-0.14308 -0.009,-0.18543 -0.01,-0.0241 -0.0671,-0.008 -0.0675,-0.0143 -0.0253,-0.0171 -0.0109,-0.0368 -0.0434,-0.0463 -6.3e-4,-0.0194 -0.17913,-0.053 -0.23546,-0.0532 -0.0989,-0.034 -0.0291,-0.0333 -0.0441,-0.0325 -0.0487,-0.0312 -0.0868,0.0268 -0.14212,0.0372 -0.041,0.0281 -0.12648,0.0233 -0.18746,0.0406 -0.0658,0.0138 -0.0877,-0.004 -0.14408,0.0154 -0.0499,-0.0126 -0.14417,0.13304 -0.21856,0.16386 -0.0555,0.10293 -0.14012,0.0199 -0.19506,0.0441 -0.0934,0.001 -0.0818,0.0329 -0.14367,0.0621 -0.0416,0.0166 -0.16365,0.0777 -0.24766,0.12003 -0.0696,0.0341 -0.11135,0.12383 -0.18258,0.16123 -0.0419,0.0895 -0.23808,0.11311 -0.31046,0.15108 -0.13722,0.0601 -0.059,-0.004 -0.10067,0.0178 -0.0605,-0.003 -0.21015,0.14022 -0.29423,0.18601 -0.094,0.0792 -0.0936,0.0415 -0.14651,0.0702 -0.0622,0.0243 -0.16853,0.0824 -0.24276,0.12285 -0.0806,0.0347 -0.0902,0.0763 -0.15184,0.11048 -0.0357,0.0469 -0.11348,3.4e-4 -0.18718,0.0383 -0.0422,-0.0403 -0.15824,0.0727 -0.23874,0.12537 -0.0565,0.0188 -0.20536,0.11187 -0.25895,0.15089 -0.0531,0.0387 -0.0105,0.008 -0.0548,0.0306 -0.019,-0.0412 -0.0396,-0.11072 -0.0571,-0.15867 -0.0174,-0.0657 -0.0392,-0.0743 -0.0531,-0.11974 -0.0268,-0.0459 -0.11879,-0.0801 -0.13411,-0.14189 -0.10157,-0.0299 -0.0239,-0.12386 -0.0375,-0.19446 -0.006,-0.0595 -0.089,-0.17312 -0.0999,-0.2461 -0.0721,-0.09 -0.0127,-0.11697 -0.0196,-0.1752 -0.005,-0.0757 -0.0245,-0.22709 -0.0307,-0.30172 -0.0126,-0.13012 -0.009,-0.0993 -0.0121,-0.14838 -0.006,-0.0789 -0.0584,-0.15972 -0.0609,-0.23748 -0.0524,-0.0826 -0.0376,-0.14118 -0.0375,-0.2185 -0.0338,-0.0718 0.026,-0.18822 0.0296,-0.27288 0.027,-0.0911 -0.0473,-0.16654 -0.0421,-0.23835 -0.0492,-0.095 -0.006,-0.1618 0.002,-0.23362 -0.009,-0.0889 -0.0244,-0.18656 -0.0131,-0.2575 -0.0321,-0.106 0.0319,-0.13162 0.0452,-0.1937 0.0249,-0.0736 0.0243,-0.13798 0.0427,-0.20443 0.0112,-0.0672 0.11327,-0.13731 0.13532,-0.20124 0.0911,-0.0528 0.0151,-0.10409 0.0317,-0.15189 3.4e-4,-0.0607 0.0688,-0.0915 0.0892,-0.1434 0.0494,-0.0317 0.10515,-0.0551 0.12361,-0.10409 0.0859,-0.006 -0.0268,-0.0553 -0.0188,-0.11233 -0.0499,0.0112 0.0423,-0.14246 0.0705,-0.19893 0.0189,-0.0379 -0.0233,-0.0845 -0.008,-0.10236 0.0305,-0.0354 0.0841,-0.0502 0.0824,-0.10434 0.0396,-0.0323 -0.0197,-0.12282 -0.0562,-0.20145 -0.0245,-0.0482 -0.0698,-0.13934 -0.11341,-0.20519 -0.0381,-0.0629 -0.0825,-0.11487 -0.12322,-0.16329 -0.0419,-0.0481 -0.10388,-0.0391 -0.13685,-0.0675 -0.0334,-0.0288 -0.0446,-0.10321 -0.0599,-0.10034 -0.0401,0.008 -0.0946,0.008 -0.13696,0.022 -0.0532,0.003 -0.10863,0.0596 -0.15037,0.0774 -0.0615,0.0457 -0.0286,8.2e-4 -0.0633,0.0181 -0.0209,5.6e-4 -0.19644,0.004 -0.25982,0.0426 -0.11493,-0.0355 -0.14434,0.01 -0.18583,0.0374 -0.10668,-0.0114 -0.10611,0.0414 -0.15079,0.0736 -0.0702,0.0194 -0.17605,0.0864 -0.22927,0.128 -0.10921,0.0387 -0.12271,0.0955 -0.16107,0.12708 -0.0865,0.0679 -0.1299,0.006 -0.17009,0.0405 -0.1065,-0.012 -0.14465,0.0647 -0.20138,0.11634 -0.0874,0.0169 -0.10203,0.0889 -0.15799,0.14249 -0.0493,0.0422 -0.17869,0.0608 -0.23803,0.11978 -0.11422,-2.1e-4 -0.0886,0.1388 -0.14238,0.19426 -0.032,0.0833 -0.10585,0.0955 -0.15735,0.14934 -0.057,0.0453 -0.1166,0.13629 -0.17085,0.19318 -0.0552,0.0719 -0.11244,0.0919 -0.15962,0.14078 -0.0683,0.0452 -0.0444,0.16219 -0.0945,0.21311 0.005,0.11006 -0.0899,0.13321 -0.14167,0.18208 -0.0375,0.0781 -0.0665,0.12908 -0.11734,0.17256 -0.0219,0.0842 -0.17216,0.10124 -0.2299,0.14319 -0.10237,0.0399 -0.0932,0.0922 -0.13576,0.12 -0.0599,0.0657 -0.0924,0.057 -0.14394,0.085 -0.0521,0.0265 -0.0896,0.14684 -0.15393,0.17351 -0.0292,0.10965 -0.10158,0.0578 -0.17454,0.0676 -0.0318,0.0225 -0.1457,0.0104 -0.22338,0.009 -0.0566,-0.001 -0.11358,-0.002 -0.16885,-0.003 -0.0584,-0.002 -0.1045,-0.006 -0.15573,-0.004 -0.0248,-0.0331 -0.0428,-0.0643 -0.0612,-0.10753 -0.0158,-0.0381 0.0176,-0.14231 0.005,-0.19749 0.0432,-0.0876 -0.02,-0.0824 -0.0265,-0.12823 -0.0108,-0.0568 -0.0138,-0.10218 -0.0175,-0.16818 -0.004,-0.0521 -0.0134,-0.14052 -0.0125,-0.21929 -0.007,-0.0674 0.002,-0.15382 0.007,-0.2332 0.003,-0.0788 0.0771,-0.21162 0.0847,-0.29161 0.0721,-0.11733 -0.0164,-0.10668 -0.009,-0.16851 -0.0186,-0.0741 -0.002,-0.15406 0.0102,-0.24502 -0.0108,-0.0686 0.0361,-0.22067 0.0512,-0.3156 0.021,-0.10625 0.0207,-0.12874 0.0335,-0.2028 0.0123,-0.071 0.0222,-0.19563 0.0387,-0.2853 0.005,-0.0922 0.0654,-0.16565 0.0803,-0.24213 0.0506,-0.0833 0.0195,-0.15197 0.0332,-0.22329 0.005,-0.0791 0.0832,-0.19213 0.0966,-0.26246 0.0648,-0.0967 0.10607,-0.12636 0.11425,-0.17534 0.0963,-0.0788 0.0366,-0.14019 0.0406,-0.19022 0.0248,-0.0827 0.002,-0.10794 2.5e-4,-0.15157 -0.005,-0.0596 -0.0299,-0.10414 -0.0377,-0.14322 -0.0293,-0.0403 0.0236,-0.0778 0.017,-0.1019 0.0272,-0.0504 -0.10385,-0.0603 -0.12551,-0.0716 -0.0101,-0.005 0.0635,-0.0109 0.0582,-0.0141 -0.013,-0.008 -0.0178,7.6e-4 -0.0457,0.004 -0.0142,0.0142 -0.0839,0.007 -0.12954,0.0222 -0.0529,0.005 -0.0801,0.028 -0.12675,0.047 -0.0511,0.0202 -0.0768,0.0493 -0.13725,0.0762 -0.0357,0.0338 -0.13699,0.0568 -0.21331,0.0914 -0.0657,0.025 -0.11867,0.0943 -0.19215,0.12747 -0.0528,0.0641 -0.11949,0.0672 -0.19742,0.0993 -0.0522,0.0351 -0.16816,0.0674 -0.25515,0.0986 -0.0752,0.0274 -0.14396,0.0334 -0.22025,0.0573 -0.0686,0.005 -0.23252,-0.0179 -0.30873,0.005 -0.1408,-0.0478 -0.12269,0.0831 -0.16599,0.11343 -0.0515,0.036 -0.0859,0.0397 -0.14387,0.0463 -0.0318,-0.0547 0.0107,-0.17456 -0.0283,-0.22494 0.037,-0.12045 -0.0844,-0.10519 -0.13418,-0.15179 -0.0472,-0.049 -0.12435,-0.11722 -0.18106,-0.15764 -0.0672,-0.0602 -0.0751,-0.0801 -0.12447,-0.10851 -0.0424,-0.0519 -0.14153,-0.0514 -0.20743,-0.0794 -0.0729,-0.009 -0.0421,0.002 -0.10046,-0.0185 -0.007,0.0206 -0.14587,-0.0577 -0.23589,-0.086 -0.0395,-0.0195 -0.10946,0.005 -0.17519,-0.0125 -0.0425,0.0274 -0.16156,-0.0229 -0.22411,-0.0467 -0.0567,-0.0216 0.008,0.004 -0.0324,-0.002 0.006,-0.0931 -0.011,-0.18099 -0.005,-0.26999 -0.0164,-0.0875 0.0779,-0.21456 0.0836,-0.30111 0.0712,-0.10692 -6.7e-4,-0.17463 0.004,-0.24328 -0.006,-0.10352 0.009,-0.13403 0.0129,-0.2014 0.005,-0.0748 0.0107,-0.21968 0.0145,-0.29575 0.005,-0.11533 -0.0501,-0.1634 -0.0479,-0.21483 -0.053,-0.11025 -0.0493,-0.12676 -0.0473,-0.17715 -0.0512,-0.0847 -0.0354,-0.0997 -0.0328,-0.15834 -0.0372,-0.0524 0.008,-0.15624 0.0116,-0.22691 0.004,-0.0686 0.0507,-0.14452 0.0539,-0.20218 0.0468,-0.076 0.004,-0.0978 0.005,-0.14672 6.2e-4,-0.0562 0.0275,-0.0618 0.0266,-0.11896 0.0241,-0.0177 -0.0101,-0.1777 -0.0181,-0.25317 -0.009,-0.0736 -0.0468,-0.0563 -0.054,-0.10097 -0.0457,-0.0264 -0.0337,-0.14015 -0.0435,-0.20416 -0.0222,-0.0632 -0.0833,-0.17491 -0.0904,-0.22076 -0.0752,-0.11628 0.0117,-0.0528 0.0155,-0.0751 0.007,-0.0428 -0.0113,-0.0764 -0.0384,-0.14348 -0.0595,0.0439 -0.13328,0.0923 -0.19311,0.13876 -0.0706,0.047 -0.13992,0.0793 -0.19648,0.12485 -0.0831,0.0358 -0.0938,0.10292 -0.14976,0.14938 -0.0429,0.0626 -0.12039,0.146 -0.18149,0.19746 -0.0502,0.0878 -0.11863,0.0746 -0.17093,0.11823 -0.072,0.035 -0.0834,0.12284 -0.14122,0.1705 -0.0274,0.0756 -0.12109,0.10054 -0.18148,0.14804 -0.0572,0.0466 -0.16427,0.13948 -0.22131,0.18174 -0.087,0.0782 -0.0694,0.0609 -0.10656,0.0869 -0.0507,0.0454 -0.0901,0.1329 -0.14476,0.16683 -0.0319,0.09 -0.13325,0.0769 -0.1868,0.102 -0.0722,0.036 -0.0875,0.0351 -0.13305,0.0504 -0.0491,0.0127 -0.14058,-0.005 -0.19435,0.005 -0.0699,-0.031 -0.10212,0.0403 -0.13825,0.0479 -0.0616,0.0324 -0.14914,-0.0619 -0.18032,-0.0635 -0.0364,-0.002 0.002,0.0678 -0.0417,0.0597 -0.0579,-0.0446 -0.13602,-0.0769 -0.19345,-0.10172 -0.0718,-0.0203 -0.0274,-0.0307 -0.0779,-0.039 -0.003,-0.006 -0.20996,-0.002 -0.29539,0.0125 -0.0931,0.0153 -0.13561,-0.011 -0.1769,0.002 -0.10556,-0.0118 -0.12122,0.0274 -0.16868,0.0563 -0.0771,0.0227 -0.11,0.068 -0.16628,0.11935 -0.0528,0.0482 -0.18625,0.0901 -0.25641,0.1392 -0.0156,-0.0343 -0.0267,-0.0683 -0.0396,-0.11726 -0.0121,-0.0414 -0.0533,-0.12569 -0.0714,-0.18365 -0.0407,-0.0647 -0.022,-0.0946 -0.0416,-0.13782 -0.0158,-0.0539 -0.068,-0.11034 -0.11325,-0.14911 -0.0434,-0.0372 -0.1014,-0.0593 -0.17171,-0.0753 -0.064,0.0109 -0.10838,0.0481 -0.17272,0.0726 -0.0467,0.0442 -0.13454,0.0871 -0.20091,0.12374 -0.0593,0.0621 -0.1599,0.0667 -0.21698,0.10472 -0.0966,0.0342 -0.12806,0.11002 -0.17809,0.14889 -0.0728,0.0756 -0.0656,0.059 -0.1109,0.0982 -0.0339,0.0379 -0.092,0.16062 -0.1505,0.21749 -0.0139,0.0946 -0.0522,0.14187 -0.0988,0.18332 -0.006,0.0957 -0.0652,0.10971 -0.1175,0.13965 -0.007,0.0561 -0.13042,0.0377 -0.17919,0.0531 -0.0349,0.011 0.0351,0.0268 0.0225,0.0445 m 22.49181,17.6601 c 0.0193,-0.0291 0.0123,-0.0117 0.0338,-0.0537 0.001,-0.002 0.0737,-0.14434 0.10541,-0.21974 0.0343,-0.0684 0.0373,-0.12426 0.0574,-0.17668 0.0187,-0.0825 0.0327,-0.0816 0.054,-0.14102 0.0181,-0.0468 0.0496,-0.13702 0.0772,-0.22053 0.0201,-0.0577 0.0806,-0.16657 0.106,-0.24939 0.0502,-0.0767 0.035,-0.13533 0.0547,-0.20706 0.014,-0.071 0.005,-0.15386 0.0235,-0.23147 -0.0185,-0.0741 0.0836,-0.14328 0.10198,-0.21775 0.0627,-0.0587 0.0251,-0.11687 0.0359,-0.18284 0.006,-0.0483 -0.001,-0.10385 0.005,-0.16964 -0.0156,-0.0255 0.0544,-0.14189 0.0616,-0.20302 0.006,-0.0498 0.008,-0.0952 0.006,-0.12362 -0.0318,0.0105 -0.0599,0.016 -0.10071,0.0254 -0.0348,0.005 -0.0777,0.0174 -0.13006,0.0258 -0.0391,0.007 -0.15676,-0.043 -0.21787,-0.0361 -0.0914,-0.0543 -0.0196,-0.0402 -0.0669,-0.0348 -0.0125,-0.041 -0.15501,0.003 -0.25136,0.0161 -0.0534,-0.009 -0.17383,0.023 -0.25275,0.0336 -0.0885,0.0111 -0.12428,0.0164 -0.18835,0.0238 -0.0727,0.008 -0.11575,0.003 -0.19221,0.008 -0.0476,-0.007 -0.16426,0.0335 -0.25724,0.0364 -0.0827,0.003 -0.11831,-0.0833 -0.19221,-0.0909"
         inkscape:original-d="m 162.20144,187.7176 c -0.37982,-0.46807 1.32101,-3.61891 1.68472,-3.71264 -0.67077,-0.45242 -2.3243,0.34318 -3.16666,0.62397 0.0157,-0.56155 -0.14039,-0.60835 -0.37438,-0.73313 -0.45239,-0.15584 -1.31036,0.0936 -1.32595,-0.047 -0.0157,-0.14036 0.54598,-3.58786 0.53037,-3.80624 -0.53043,-0.35878 -2.72489,1.00159 -3.77503,1.54436 -0.4368,-0.94876 -0.48291,-3.79302 0,-4.35224 0.1832,-0.21221 -0.35498,-0.89186 -0.45238,-0.87356 -1.08272,0.20335 -3.01,2.69553 -4.49261,2.77667 -0.54538,-0.72744 0.53038,-4.0402 0.37439,-4.1338 -0.15602,-0.0936 -1.43514,0.70195 -2.12151,0.77999 -0.31762,-0.54704 -1.02646,-0.87878 -1.52874,-0.9516 0.0989,-1.67599 0.31199,-2.60508 -0.0468,-3.49422 -0.95154,0.70195 -1.9811,1.79389 -2.57387,1.68471 -0.40559,-0.31224 -0.79556,-0.10924 -1.26355,0.21837 -0.0779,-0.17149 -0.15603,-0.60835 -0.49917,-0.68636 -0.63958,0.10923 -1.34155,0.96716 -1.49754,1.18554 m 22.57223,17.65861 c 0.25081,-0.37864 0.71511,-1.93689 0.68638,-2.38669 -0.31779,0.10509 -1.07225,0.14414 -1.87192,0.0624"
         inkscape:path-effect="#path-effect5774" /></g><text
       xml:space="preserve"
       transform="matrix(0.26458333,0,0,0.26458333,14.680098,-3.4690097)"
       id="text6107"
       style="font-style:normal;font-variant:normal;font-weight:normal;font-stretch:normal;font-size:13.3333px;line-height:1.25;font-family:'Liberation Sans';-inkscape-font-specification:'Liberation Sans';text-align:center;letter-spacing:0px;word-spacing:0px;white-space:pre;shape-inside:url(#rect6109);display:inline"
       x="27.320894"
       y="0"
       inkscape:export-filename="anat-marge.pdf"
       inkscape:export-xdpi="360"
       inkscape:export-ydpi="360"><tspan
         x="60.530677"
         y="119.1819"
         id="tspan825">Flexueuse</tspan></text><text
       xml:space="preserve"
       transform="matrix(0.26458333,0,0,0.26458333,41.926219,-3.4584297)"
       id="text6556"
       style="font-style:normal;font-variant:normal;font-weight:normal;font-stretch:normal;font-size:13.3333px;line-height:1.25;font-family:'Liberation Sans';-inkscape-font-specification:'Liberation Sans';text-align:center;letter-spacing:0px;word-spacing:0px;white-space:pre;shape-inside:url(#rect6558);display:inline"
       x="27.320894"
       y="0"
       inkscape:export-filename="anat-marge.pdf"
       inkscape:export-xdpi="360"
       inkscape:export-ydpi="360"><tspan
         x="72.750698"
         y="119.1819"
         id="tspan827">Lobée</tspan></text><text
       xml:space="preserve"
       transform="matrix(0.26458333,0,0,0.26458333,-12.566025,-3.5095797)"
       id="text6562"
       style="font-style:normal;font-variant:normal;font-weight:normal;font-stretch:normal;font-size:13.3333px;line-height:1.25;font-family:'Liberation Sans';-inkscape-font-specification:'Liberation Sans';text-align:center;letter-spacing:0px;word-spacing:0px;white-space:pre;shape-inside:url(#rect6564);display:inline"
       x="27.320894"
       y="0"
       inkscape:export-filename="anat-marge.pdf"
       inkscape:export-xdpi="360"
       inkscape:export-ydpi="360"><tspan
         x="75.725951"
         y="119.1819"
         id="tspan829">Lisse</tspan></text><text
       xml:space="preserve"
       transform="matrix(0.26458333,0,0,0.26458333,96.4996,-3.4584297)"
       id="text6568"
       style="font-style:normal;font-variant:normal;font-weight:normal;font-stretch:normal;font-size:13.3333px;line-height:1.25;font-family:'Liberation Sans';-inkscape-font-specification:'Liberation Sans';text-align:center;letter-spacing:0px;word-spacing:0px;white-space:pre;shape-inside:url(#rect6570);display:inline"
       x="27.320894"
       y="0"
       inkscape:export-filename="anat-marge.pdf"
       inkscape:export-xdpi="360"
       inkscape:export-ydpi="360"><tspan
         x="73.873742"
         y="119.1819"
         id="tspan831">Striée</tspan></text><text
       xml:space="preserve"
       transform="matrix(0.26458333,0,0,0.26458333,123.83568,-3.8641197)"
       id="text6915"
       style="font-style:normal;font-variant:normal;font-weight:normal;font-stretch:normal;font-size:13.3333px;line-height:1.25;font-family:'Liberation Sans';-inkscape-font-specification:'Liberation Sans';text-align:center;letter-spacing:0px;word-spacing:0px;white-space:pre;shape-inside:url(#rect6917);display:inline"
       x="27.320894"
       y="0"
       inkscape:export-filename="anat-marge.pdf"
       inkscape:export-xdpi="360"
       inkscape:export-ydpi="360"><tspan
         x="50.885519"
         y="119.1819"
         id="tspan833">Appendiculée</tspan></text><g
       id="g1803"
       transform="matrix(0.99999688,0,0,1,-4.8880969,-171.19015)"
       inkscape:export-filename="anat-marge.pdf"
       inkscape:export-xdpi="360"
       inkscape:export-ydpi="360"><path
         style="fill:none;stroke:#000000;stroke-width:0.5;stroke-linecap:round;stroke-linejoin:round;stroke-dasharray:1.5, 2.5;stroke-dashoffset:0"
         d="M 109.45829,192.24474 H 86.620857 v -18.7816"
         id="path510" /><path
         id="path615"
         style="fill:none;stroke:#000000;stroke-width:0.5;stroke-linecap:round;stroke-linejoin:round;stroke-dasharray:none"
         d="m 109.26702,190.56239 c 0.87356,-0.10923 0.94842,1.63736 0.12943,1.69975 m -0.64887,-2.70496 c 0.82656,-0.31883 1.01941,0.84054 0.4773,1.01663 -0.52535,0.17055 -1.84016,0.64958 -3.30209,0.77996 m 2.41292,-3.25381 c 0.82213,-0.55641 1.10667,1.06683 0.58498,1.36631 -0.38159,0.21903 -2.66613,0.99717 -3.19788,1.06854 m 2.13322,-4.29374 c 0.66441,-0.4643 1.31459,1.26569 0.57716,1.79396 -0.41661,0.29846 -2.57834,1.31544 -4.33271,1.68083 m 2.87417,-5.31547 c 0.45595,-0.35261 1.7935,1.03199 0.83848,1.85242 -0.59321,0.50963 -2.30645,1.73457 -4.00123,2.23847 m 2.42569,-5.69374 c 0.44457,-0.19498 1.15975,1.07119 0.73318,1.59893 -0.35967,0.44495 -2.14479,1.91774 -3.26807,2.2463 m 1.39615,-5.31156 c 0.21839,-0.19498 1.71765,0.80283 1.16214,1.48189 -0.54568,0.66705 -1.95704,2.10187 -3.65805,3.01072 m 1.11536,-5.99014 c 0.21059,-0.26523 1.6644,1.06798 1.40394,1.49753 -0.27847,0.45929 -2.52586,2.52682 -3.44745,3.10424 m 0.63178,-5.91991 c 0.14037,-0.14037 1.82512,0.42893 1.46633,1.22453 -0.35878,0.79554 -3.07307,3.29927 -3.07307,3.29927 m -0.0321,-5.56499 c 0.58621,-0.80963 1.88254,0.33055 1.64651,1.05676 -0.15622,0.48068 -0.52131,1.19336 -1.89532,3.0965 m -1.158923,-5.12819 c 0.1813,-0.70169 1.683683,-0.10773 1.431903,0.84614 -0.1515,0.57363 -0.960733,2.2547 -1.450733,2.97167 m -1.4732,-4.45456 c 0.0572,-0.49473 1.60196,-0.462 1.4966,0.57034 -0.0668,0.65494 -0.39309,2.03635 -0.92817,3.16664 m -2.40909,-4.42044 c 0.371553,-0.98292 1.951972,-0.14221 1.83292,0.73529 -0.108542,0.80004 -0.32897,2.02812 -0.82916,3.52872 m -2.61422,-4.60559 c 0.12132,-0.728 1.71292,-0.5688 1.60131,0.38965 -0.0868,0.74511 -0.25814,1.91928 -0.68578,3.84082 m -2.38255,-4.30729 c -0.033,-1.41188 1.53157,-0.70246 1.45601,0.215 -0.0549,0.66783 -0.14546,1.9548 -0.59565,3.81653 m -2.11233,-4.69339 c 0.0551,-0.67284 1.28553,-0.62353 1.25197,0.72251 -0.0332,1.33483 -0.0743,1.73999 -0.35298,3.49664 m -2.36602,-4.40115 c 0.04954,-1.15253 1.46718,-0.66203 1.47255,0.33083 0.006,0.98933 0.0113,1.94191 -0.23163,3.09956 m -2.78679,-3.66046 c 0.026,-0.64993 1.478618,-1.17217 1.55072,0.13226 0.06248,1.13045 -0.10377,3.37376 -0.14263,3.38487 m -2.41113,-3.63389 c -0.0113,-0.80636 0.96276,-0.97646 1.01223,0.15942 0.0485,1.11511 0.0402,1.79121 -0.10132,2.91187 m -1.86409,-3.07748 c 0.0113,-0.5184 0.73511,-0.91061 0.90126,-0.28298 0.16244,0.61369 0.0466,2.291 -0.074,3.52594"
         sodipodi:nodetypes="cccsccsccsccsccsccsccsccsccsccsccsccsccsccsccsccsccsccsccsc" /></g><text
       xml:space="preserve"
       transform="matrix(0.26458333,0,0,0.26458333,69.235841,-3.4584297)"
       id="text1271"
       style="font-style:normal;font-variant:normal;font-weight:normal;font-stretch:normal;font-size:13.3333px;line-height:1.25;font-family:'Liberation Sans';-inkscape-font-specification:'Liberation Sans';text-align:center;letter-spacing:0px;word-spacing:0px;white-space:pre;shape-inside:url(#rect1273);display:inline"
       x="27.320894"
       y="0"
       inkscape:export-filename="anat-marge.pdf"
       inkscape:export-xdpi="360"
       inkscape:export-ydpi="360"><tspan
         x="62.747468"
         y="119.1819"
         id="tspan835">Cannelée</tspan></text><text
       xml:space="preserve"
       transform="scale(0.26458333)"
       id="text50656"
       style="font-size:10.6667px;line-height:1.25;font-family:sans-serif;letter-spacing:0px;word-spacing:0px;white-space:pre;shape-inside:url(#rect50658);display:inline" /></g></svg>
