<?xml version="1.0" encoding="UTF-8" standalone="no"?>
<!-- Created with Inkscape (http://www.inkscape.org/) -->

<svg
   version="1.1"
   id="svg2"
   xml:space="preserve"
   width="160mm"
   height="80mm"
   viewBox="0 0 604.72442 302.36221"
   sodipodi:docname="IntroChampisCART2Arbre+.svg"
   inkscape:version="1.1.2 (0a00cf5339, 2022-02-04)"
   xmlns:inkscape="http://www.inkscape.org/namespaces/inkscape"
   xmlns:sodipodi="http://sodipodi.sourceforge.net/DTD/sodipodi-0.dtd"
   xmlns="http://www.w3.org/2000/svg"
   xmlns:svg="http://www.w3.org/2000/svg"><defs
     id="defs6" /><sodipodi:namedview
     id="namedview4"
     pagecolor="#ffffff"
     bordercolor="#666666"
     borderopacity="1.0"
     inkscape:pageshadow="2"
     inkscape:pageopacity="0.0"
     inkscape:pagecheckerboard="0"
     showgrid="false"
     units="mm"
     inkscape:zoom="1.7000373"
     inkscape:cx="358.22743"
     inkscape:cy="200.28972"
     inkscape:window-width="1883"
     inkscape:window-height="1062"
     inkscape:window-x="37"
     inkscape:window-y="0"
     inkscape:window-maximized="1"
     inkscape:current-layer="g10"
     inkscape:document-units="mm" /><g
     id="g8"
     inkscape:groupmode="layer"
     inkscape:label="IntroChampisCART2Arbre"
     transform="matrix(1.3333333,0,0,1.3333333,0,1.66823e-5)"><g
       id="g10"><g
         id="g14"
         transform="matrix(0.90415741,0,0,-0.90415741,-32.316395,-48.818184)"><path
           d="m 210.352,-75.924164 0,16.736164 h 86.179"
           style="fill:none;stroke:#000000;stroke-width:0.35;stroke-linecap:butt;stroke-linejoin:round;stroke-miterlimit:10;stroke-dasharray:none;stroke-opacity:1"
           id="path16"
           sodipodi:nodetypes="ccc" /></g><g
         id="g18"
         transform="matrix(0.90415741,0,0,-0.90415741,-32.316395,-48.818184)"><path
           d="m 148.801,-128.5497 0,16.5417 h 61.551"
           style="fill:none;stroke:#000000;stroke-width:0.35;stroke-linecap:butt;stroke-linejoin:round;stroke-miterlimit:10;stroke-dasharray:none;stroke-opacity:1"
           id="path20"
           sodipodi:nodetypes="ccc" /></g><g
         id="g22"
         transform="matrix(0.90415741,0,0,-0.90415741,-32.316395,-48.818184)"><path
           d="m 99.562,-181.41978 0,16.59178 h 49.239"
           style="fill:none;stroke:#000000;stroke-width:0.35;stroke-linecap:butt;stroke-linejoin:round;stroke-miterlimit:10;stroke-dasharray:none;stroke-opacity:1"
           id="path24"
           sodipodi:nodetypes="ccc" /></g><g
         id="g26"
         transform="matrix(0.90415741,0,0,-0.90415741,-32.316395,-48.818184)"><path
           d="m 74.941,-234.24286 0,16.60586 h 24.621"
           style="fill:none;stroke:#000000;stroke-width:0.35;stroke-linecap:butt;stroke-linejoin:round;stroke-miterlimit:10;stroke-dasharray:none;stroke-opacity:1"
           id="path28"
           sodipodi:nodetypes="ccc" /></g><g
         id="g30"
         transform="matrix(0.90415741,0,0,-0.90415741,-32.316395,-48.818184)"><path
           d="m 124.18,-244.26799 0,26.63099 H 99.562"
           style="fill:none;stroke:#000000;stroke-width:0.35;stroke-linecap:butt;stroke-linejoin:round;stroke-miterlimit:10;stroke-dasharray:none;stroke-opacity:1"
           id="path32"
           sodipodi:nodetypes="ccc" /></g><g
         id="g34"
         transform="matrix(0.90415741,0,0,-0.90415741,-32.316395,-48.818184)"><path
           d="m 198.039,-191.52189 0,26.69389 h -49.238"
           style="fill:none;stroke:#000000;stroke-width:0.35;stroke-linecap:butt;stroke-linejoin:round;stroke-miterlimit:10;stroke-dasharray:none;stroke-opacity:1"
           id="path36"
           sodipodi:nodetypes="ccc" /></g><g
         id="g38"
         transform="matrix(0.90415741,0,0,-0.90415741,-32.316395,-48.818184)"><path
           d="m 173.422,-234.32701 0,16.69001 h 24.617"
           style="fill:none;stroke:#000000;stroke-width:0.35;stroke-linecap:butt;stroke-linejoin:round;stroke-miterlimit:10;stroke-dasharray:none;stroke-opacity:1"
           id="path40"
           sodipodi:nodetypes="ccc" /></g><g
         id="g42"
         transform="matrix(0.90415741,0,0,-0.90415741,-32.316395,-48.818184)"><path
           d="m 222.66,-244.29855 0,26.66155 h -24.621"
           style="fill:none;stroke:#000000;stroke-width:0.35;stroke-linecap:butt;stroke-linejoin:round;stroke-miterlimit:10;stroke-dasharray:none;stroke-opacity:1"
           id="path44"
           sodipodi:nodetypes="ccc" /></g><g
         id="g46"
         transform="matrix(0.90415741,0,0,-0.90415741,-32.316395,-48.818184)"><path
           d="m 271.91,-138.65348 0,26.49615 h -61.558"
           style="fill:none;stroke:#000000;stroke-width:0.35;stroke-linecap:butt;stroke-linejoin:round;stroke-miterlimit:10;stroke-dasharray:none;stroke-opacity:1"
           id="path48"
           sodipodi:nodetypes="ccc" /></g><g
         id="g50"
         transform="matrix(0.90415741,0,0,-0.90415741,-32.316395,-48.818184)"><path
           d="m 382.699,-85.871607 0,26.683607 h -86.168"
           style="fill:none;stroke:#000000;stroke-width:0.35;stroke-linecap:butt;stroke-linejoin:round;stroke-miterlimit:10;stroke-dasharray:none;stroke-opacity:1"
           id="path52"
           sodipodi:nodetypes="ccc" /></g><g
         id="g54"
         transform="matrix(0.90415741,0,0,-0.90415741,-32.316395,-48.818184)"><path
           d="m 321.152,-128.74518 0,16.73718 h 61.547"
           style="fill:none;stroke:#000000;stroke-width:0.35;stroke-linecap:butt;stroke-linejoin:round;stroke-miterlimit:10;stroke-dasharray:none;stroke-opacity:1"
           id="path56"
           sodipodi:nodetypes="ccc" /></g><g
         id="g58"
         transform="matrix(0.90415741,0,0,-0.90415741,-32.316395,-48.818184)"><path
           d="m 444.25,-138.7357 0,26.7277 h -61.551"
           style="fill:none;stroke:#000000;stroke-width:0.35;stroke-linecap:butt;stroke-linejoin:round;stroke-miterlimit:10;stroke-dasharray:none;stroke-opacity:1"
           id="path60"
           sodipodi:nodetypes="ccc" /></g><g
         id="g62"
         transform="matrix(0.90415741,0,0,-0.90415741,-32.316395,-48.818184)"><path
           d="m 395.012,-181.52996 0,16.70196 h 49.238"
           style="fill:none;stroke:#000000;stroke-width:0.35;stroke-linecap:butt;stroke-linejoin:round;stroke-miterlimit:10;stroke-dasharray:none;stroke-opacity:1"
           id="path64"
           sodipodi:nodetypes="ccc" /></g><g
         id="g66"
         transform="matrix(0.90415741,0,0,-0.90415741,-32.316395,-48.818184)"><path
           d="m 370.391,-234.29812 0,16.66112 h 24.621"
           style="fill:none;stroke:#000000;stroke-width:0.35;stroke-linecap:butt;stroke-linejoin:round;stroke-miterlimit:10;stroke-dasharray:none;stroke-opacity:1"
           id="path68"
           sodipodi:nodetypes="ccc" /></g><g
         id="g70"
         transform="matrix(0.90415741,0,0,-0.90415741,-32.316395,-48.818184)"><path
           d="m 419.633,-244.31578 0,26.67878 h -24.621"
           style="fill:none;stroke:#000000;stroke-width:0.35;stroke-linecap:butt;stroke-linejoin:round;stroke-miterlimit:10;stroke-dasharray:none;stroke-opacity:1"
           id="path72"
           sodipodi:nodetypes="ccc" /></g><g
         id="g74"
         transform="matrix(0.90415741,0,0,-0.90415741,-32.316395,-48.818184)"><path
           d="m 493.492,-191.53477 0,26.70677 H 444.25"
           style="fill:none;stroke:#000000;stroke-width:0.35;stroke-linecap:butt;stroke-linejoin:round;stroke-miterlimit:10;stroke-dasharray:none;stroke-opacity:1"
           id="path76"
           sodipodi:nodetypes="ccc" /></g><g
         id="g78"
         transform="matrix(0.90415741,0,0,-0.90415741,-32.316395,-48.818184)"><path
           d="m 468.871,-234.25611 0,16.61911 h 24.621"
           style="fill:none;stroke:#000000;stroke-width:0.35;stroke-linecap:butt;stroke-linejoin:round;stroke-miterlimit:10;stroke-dasharray:none;stroke-opacity:1"
           id="path80"
           sodipodi:nodetypes="ccc" /></g><g
         id="g82"
         transform="matrix(0.90415741,0,0,-0.90415741,-32.316395,-48.818184)"><path
           d="M 518.121,-244.26904 V -217.637 H 493.492"
           style="fill:none;stroke:#000000;stroke-width:0.35;stroke-linecap:butt;stroke-linejoin:round;stroke-miterlimit:10;stroke-dasharray:none;stroke-opacity:1"
           id="path84"
           sodipodi:nodetypes="ccc" /></g><text
         style="font-variant:normal;font-weight:bold;font-size:6.3291px;font-family:'Nimbus Sans';-inkscape-font-specification:NimbusSans-Bold;writing-mode:lr-tb;fill:#000000;fill-opacity:1;fill-rule:nonzero;stroke:none;stroke-width:0.904157"
         id="text122"
         x="109.4835"
         y="25.854313"><tspan
           x="109.4835 114.05312 117.57209 123.19868 126.71764 130.58472 134.4518 138.31888 142.18597 146.05304 148.51508 152.03404 155.55302 159.07202 162.93909 166.45807 168.56567 172.08464 175.54033 179.40741 182.92639 186.73018 188.48967 192.00865 195.52763 197.28714 200.98332 202.74281"
           y="25.854313"
           sodipodi:role="line"
           id="tspan104"
           style="stroke-width:0.904157">Hymenophore2_detachables = 0</tspan><tspan
           x="66.608353 71.177971 74.696945 80.323517 83.842506 87.709572 91.576668 95.443741 99.310822 103.1779 105.63994 127.10191 128.86139 132.55759 134.31709"
           y="73.62999"
           sodipodi:role="line"
           id="tspan106"
           style="stroke-width:0.904157">Hymenophore = 0</tspan><tspan
           x="28.326328 32.231384 37.155422 38.914921 42.402248 45.921234 49.788315 53.307293 56.826275 60.345257 63.674366 67.541451 69.300934 72.819923 76.338898 78.098389 81.794586 83.554085"
           y="121.41473"
           sodipodi:role="line"
           id="tspan108"
           style="stroke-width:0.904157">VG.Type2_volve = 0</tspan><tspan
           x="0.53253579 5.1021481 8.9692249 12.488211 16.355293 19.874271 23.39325 27.26033 29.019825 33.589432 35.348927 38.867905 44.494476 48.013462 50.121044 52.583073 56.102047 57.861546 61.557728 63.317226 66.836205"
           y="169.19943"
           sodipodi:role="line"
           id="tspan110"
           style="stroke-width:0.904157">Chapeau.Diametre &lt; 26</tspan><tspan
           x="88.054977 92.276482 94.035973 97.554955 101.42203 103.18153 107.04861 110.91569 113.37772 119.00428 151.94092 155.63712 157.39661"
           y="169.41643"
           sodipodi:role="line"
           id="tspan112"
           style="stroke-width:0.904157">Pied.Forme= 1</tspan><tspan
           x="214.58276 219.15239 223.01945 226.53841 230.40553 233.92451 237.4435 241.31058 243.07005 248.34221 251.86119 254.22826 258.15866 261.67764 265.19662 267.3042 269.06369 272.48776 276.00671 279.87381 283.39279 287.25986 290.77884 292.53833 296.23453 297.99405"
           y="73.657112"
           sodipodi:role="line"
           id="tspan114"
           style="stroke-width:0.904157">Chapeau.Marge_flexueux = 1</tspan><tspan
           x="287.65677 292.22641 296.09348 299.61246 303.47952 306.99854 310.51752 314.38458 316.14407 321.41623 324.93518 327.30228 331.23267 334.75162 338.2706 341.78958 343.5491 347.41614 351.28323 353.04276 356.73892 358.49844"
           y="121.40568"
           sodipodi:role="line"
           id="tspan116"
           style="stroke-width:0.904157">Chapeau.Marge_aigu = 1</tspan><tspan
           x="260.62247 264.84399 266.60349 270.12247 273.98953 275.74902 279.97055 283.83762 286.29965 288.40723 291.92624 295.44519 335.54639 339.24258 341.00208"
           y="169.19943"
           sodipodi:role="line"
           id="tspan118"
           style="stroke-width:0.904157">Pied.Surface= 0</tspan><tspan
           x="352.87366 356.74075 360.25974 365.88629 369.40527 372.92426 374.68375 379.25336 383.12045 386.98752 388.74701 392.26599 396.13306 398.59509 402.11407 404.44952 408.31659 412.18369 416.11404 419.63303 421.39255 425.08871 426.84824"
           y="169.16327"
           sodipodi:role="line"
           id="tspan120"
           style="stroke-width:0.904157">Lames.Couleur_rouge = 1</tspan></text><text
         style="font-variant:normal;font-weight:bold;font-size:6.3291px;font-family:'Nimbus Sans';-inkscape-font-specification:NimbusSans-Bold;writing-mode:lr-tb;fill:#000000;fill-opacity:1;fill-rule:nonzero;stroke:none;stroke-width:0.904157"
         id="text158"
         x="310.09433"
         y="35.592087"><tspan
           x="310.09433 313.79053 315.55002"
           y="35.592087"
           sodipodi:role="line"
           id="tspan142"
           style="stroke-width:0.904157">= 1</tspan><tspan
           x="209.92271 213.6189 215.3784"
           y="83.340637"
           sodipodi:role="line"
           id="tspan144"
           style="stroke-width:0.904157">= 1</tspan><tspan
           x="143.14163 146.83783 148.59732"
           y="131.09824"
           sodipodi:role="line"
           id="tspan146"
           style="stroke-width:0.904157">= 1</tspan><tspan
           x="72.743942 76.440163 80.13633 81.895821 85.414803 165.40199 169.09819 170.85767"
           y="178.79254"
           sodipodi:role="line"
           id="tspan148"
           style="stroke-width:0.904157">&gt;= 26= 0</tspan><tspan
           x="365.75427 369.45047 371.20996"
           y="83.286377"
           sodipodi:role="line"
           id="tspan150"
           style="stroke-width:0.904157">= 0</tspan><tspan
           x="410.27499 413.97119 415.73065"
           y="131.03494"
           sodipodi:role="line"
           id="tspan152"
           style="stroke-width:0.904157">= 0</tspan><tspan
           x="343.4939 347.19009 348.94958"
           y="178.85582"
           sodipodi:role="line"
           id="tspan154"
           style="stroke-width:0.904157">= 1</tspan><tspan
           x="432.53531 436.23154 437.991"
           y="178.79254"
           sodipodi:role="line"
           id="tspan156"
           style="stroke-width:0.904157">= 0</tspan></text><g
         id="g160"
         transform="matrix(0.90415741,0,0,-0.90415741,-32.316395,-48.818184)"><path
           d="m 282.332,-59.188 0.289,1.301 0.84,1.207 1.328,1.043 1.742,0.797 2.031,0.5 2.168,0.172 h 11.59 l 2.172,-0.172 2.028,-0.5 1.742,-0.797 1.34,-1.043 0.839,-1.207 0.282,-1.301 -0.282,-1.3 -0.839,-1.219 -1.34,-1.039 -1.742,-0.793 -2.028,-0.508 -2.172,-0.172 h -11.59 l -2.168,0.172 -2.031,0.508 -1.742,0.793 -1.328,1.039 -0.84,1.219 z"
           style="fill:#d2e3f3;fill-opacity:1;fill-rule:nonzero;stroke:#000000;stroke-width:0.35;stroke-linecap:round;stroke-linejoin:round;stroke-miterlimit:10;stroke-dasharray:none;stroke-opacity:1"
           id="path162" /></g><g
         id="g164"
         transform="matrix(0.90415741,0,0,-0.90415741,-32.316395,-48.818184)"><path
           d="m 196.16,-112.008 0.281,1.301 0.84,1.211 1.34,1.047 1.738,0.793 2.024,0.508 2.179,0.171 h 11.59 l 2.168,-0.171 2.032,-0.508 1.738,-0.793 1.332,-1.047 0.84,-1.211 0.289,-1.301 -0.289,-1.301 -0.84,-1.211 -1.332,-1.039 -1.738,-0.8 -2.032,-0.5 -2.168,-0.168 h -11.59 l -2.179,0.168 -2.024,0.5 -1.738,0.8 -1.34,1.039 -0.84,1.211 z"
           style="fill:#d2e3f3;fill-opacity:1;fill-rule:nonzero;stroke:#000000;stroke-width:0.35;stroke-linecap:round;stroke-linejoin:round;stroke-miterlimit:10;stroke-dasharray:none;stroke-opacity:1"
           id="path166" /></g><g
         id="g168"
         transform="matrix(0.90415741,0,0,-0.90415741,-32.316395,-48.818184)"><path
           d="m 134.602,-164.828 0.289,1.308 0.839,1.211 1.332,1.039 1.739,0.801 2.031,0.5 2.18,0.172 h 11.578 l 2.18,-0.172 2.031,-0.5 1.738,-0.801 1.332,-1.039 0.84,-1.211 0.289,-1.308 -0.289,-1.301 -0.84,-1.211 -1.332,-1.039 -1.738,-0.801 -2.031,-0.5 -2.18,-0.168 h -11.578 l -2.18,0.168 -2.031,0.5 -1.739,0.801 -1.332,1.039 -0.839,1.211 z"
           style="fill:#deebf7;fill-opacity:1;fill-rule:nonzero;stroke:#000000;stroke-width:0.35;stroke-linecap:round;stroke-linejoin:round;stroke-miterlimit:10;stroke-dasharray:none;stroke-opacity:1"
           id="path170" /></g><g
         id="g172"
         transform="matrix(0.90415741,0,0,-0.90415741,-32.316395,-48.818184)"><path
           d="m 85.359,-217.637 0.293,1.297 0.84,1.211 1.328,1.039 1.742,0.801 2.028,0.5 2.172,0.172 h 11.59 l 2.179,-0.172 2.02,-0.5 1.738,-0.801 1.344,-1.039 0.84,-1.211 0.277,-1.297 -0.277,-1.301 -0.84,-1.21 -1.344,-1.051 -1.738,-0.789 -2.02,-0.508 -2.179,-0.172 h -11.59 l -2.172,0.172 -2.028,0.508 -1.742,0.789 -1.328,1.051 -0.84,1.21 z"
           style="fill:#eaf3fb;fill-opacity:1;fill-rule:nonzero;stroke:#000000;stroke-width:0.35;stroke-linecap:round;stroke-linejoin:round;stroke-miterlimit:10;stroke-dasharray:none;stroke-opacity:1"
           id="path174" /></g><g
         id="g176"
         transform="matrix(0.90415741,0,0,-0.90415741,-32.316395,-48.818184)"><path
           d="m 60.742,-291.578 0.289,1.301 0.84,1.211 1.328,1.039 1.742,0.8 2.032,0.5 2.168,0.168 H 80.73 l 2.18,-0.168 2.02,-0.5 1.742,-0.8 1.34,-1.039 0.84,-1.211 0.281,-1.301 -0.281,-1.309 -0.84,-1.211 -1.34,-1.039 -1.742,-0.801 -2.02,-0.5 -2.18,-0.171 H 69.141 l -2.168,0.171 -2.032,0.5 -1.742,0.801 -1.328,1.039 -0.84,1.211 z"
           style="fill:#eaf3fb;fill-opacity:1;fill-rule:nonzero;stroke:#000000;stroke-width:0.35;stroke-linecap:round;stroke-linejoin:round;stroke-miterlimit:10;stroke-dasharray:none;stroke-opacity:1"
           id="path178" /></g><g
         id="g180"
         transform="matrix(0.90415741,0,0,-0.90415741,-32.316395,-48.818184)"><path
           d="m 105.102,-291.578 0.289,1.301 0.839,1.211 1.332,1.039 1.739,0.8 2.031,0.5 2.18,0.168 h 21.34 l 2.179,-0.168 2.02,-0.5 1.738,-0.8 1.344,-1.039 0.84,-1.211 0.277,-1.301 -0.277,-1.309 -0.84,-1.211 -1.344,-1.039 -1.738,-0.801 -2.02,-0.5 -2.179,-0.171 h -21.34 l -2.18,0.171 -2.031,0.5 -1.739,0.801 -1.332,1.039 -0.839,1.211 z"
           style="fill:#c6dbef;fill-opacity:1;fill-rule:nonzero;stroke:#000000;stroke-width:0.35;stroke-linecap:round;stroke-linejoin:round;stroke-miterlimit:10;stroke-dasharray:none;stroke-opacity:1"
           id="path182" /></g><g
         id="g184"
         transform="matrix(0.90415741,0,0,-0.90415741,-32.316395,-48.818184)"><path
           d="m 178.973,-217.637 0.277,1.297 0.84,1.211 1.34,1.039 1.742,0.801 2.019,0.5 2.18,0.172 h 21.352 l 2.168,-0.172 2.031,-0.5 1.738,-0.801 1.332,-1.039 0.84,-1.211 0.289,-1.297 -0.289,-1.301 -0.84,-1.21 -1.332,-1.051 -1.738,-0.789 -2.031,-0.508 -2.168,-0.172 h -21.352 l -2.18,0.172 -2.019,0.508 -1.742,0.789 -1.34,1.051 -0.84,1.21 z"
           style="fill:#b2d2e8;fill-opacity:1;fill-rule:nonzero;stroke:#000000;stroke-width:0.35;stroke-linecap:round;stroke-linejoin:round;stroke-miterlimit:10;stroke-dasharray:none;stroke-opacity:1"
           id="path186" /></g><g
         id="g188"
         transform="matrix(0.90415741,0,0,-0.90415741,-32.316395,-48.818184)"><path
           d="m 159.23,-291.578 0.282,1.301 0.84,1.211 1.339,1.039 1.739,0.8 2.019,0.5 2.184,0.168 h 11.59 l 2.168,-0.168 2.031,-0.5 1.738,-0.8 1.332,-1.039 0.84,-1.211 0.289,-1.301 -0.289,-1.309 -0.84,-1.211 -1.332,-1.039 -1.738,-0.801 -2.031,-0.5 -2.168,-0.171 h -11.59 l -2.184,0.171 -2.019,0.5 -1.739,0.801 -1.339,1.039 -0.84,1.211 z"
           style="fill:#f7fbff;fill-opacity:1;fill-rule:nonzero;stroke:#000000;stroke-width:0.35;stroke-linecap:round;stroke-linejoin:round;stroke-miterlimit:10;stroke-dasharray:none;stroke-opacity:1"
           id="path190" /></g><g
         id="g192"
         transform="matrix(0.90415741,0,0,-0.90415741,-32.316395,-48.818184)"><path
           d="m 203.59,-291.578 0.281,1.301 0.84,1.211 1.34,1.039 1.738,0.8 2.031,0.5 2.172,0.168 h 21.348 l 2.172,-0.168 2.027,-0.5 1.742,-0.8 1.328,-1.039 0.84,-1.211 0.293,-1.301 -0.293,-1.309 -0.84,-1.211 -1.328,-1.039 -1.742,-0.801 -2.027,-0.5 -2.172,-0.171 h -21.348 l -2.172,0.171 -2.031,0.5 -1.738,0.801 -1.34,1.039 -0.84,1.211 z"
           style="fill:#84bcdb;fill-opacity:1;fill-rule:nonzero;stroke:#000000;stroke-width:0.35;stroke-linecap:round;stroke-linejoin:round;stroke-miterlimit:10;stroke-dasharray:none;stroke-opacity:1"
           id="path194" /></g><g
         id="g196"
         transform="matrix(0.90415741,0,0,-0.90415741,-32.316395,-48.818184)"><path
           d="m 252.832,-291.578 0.289,1.301 0.84,1.211 1.328,1.039 1.742,0.8 2.031,0.5 2.168,0.168 h 21.352 l 2.168,-0.168 2.031,-0.5 1.739,-0.8 1.332,-1.039 0.839,-1.211 0.289,-1.301 -0.289,-1.309 -0.839,-1.211 -1.332,-1.039 -1.739,-0.801 -2.031,-0.5 -2.168,-0.171 H 261.23 l -2.168,0.171 -2.031,0.5 -1.742,0.801 -1.328,1.039 -0.84,1.211 z"
           style="fill:#84bcdb;fill-opacity:1;fill-rule:nonzero;stroke:#000000;stroke-width:0.35;stroke-linecap:round;stroke-linejoin:round;stroke-miterlimit:10;stroke-dasharray:none;stroke-opacity:1"
           id="path198" /></g><g
         id="g200"
         transform="matrix(0.90415741,0,0,-0.90415741,-32.316395,-48.818184)"><path
           d="m 363.621,-112.008 0.289,1.301 0.84,1.211 1.34,1.047 1.742,0.793 2.02,0.508 2.179,0.171 h 21.34 l 2.18,-0.171 2.019,-0.508 1.742,-0.793 1.34,-1.047 0.84,-1.211 0.278,-1.301 -0.278,-1.301 -0.84,-1.211 -1.34,-1.039 -1.742,-0.8 -2.019,-0.5 -2.18,-0.168 h -21.34 l -2.179,0.168 -2.02,0.5 -1.742,0.8 -1.34,1.039 -0.84,1.211 z"
           style="fill:#b2d2e8;fill-opacity:1;fill-rule:nonzero;stroke:#000000;stroke-width:0.35;stroke-linecap:round;stroke-linejoin:round;stroke-miterlimit:10;stroke-dasharray:none;stroke-opacity:1"
           id="path202" /></g><g
         id="g204"
         transform="matrix(0.90415741,0,0,-0.90415741,-32.316395,-48.818184)"><path
           d="m 306.949,-291.578 0.293,1.301 0.84,1.211 1.328,1.039 1.742,0.8 2.028,0.5 2.172,0.168 h 11.589 l 2.18,-0.168 2.02,-0.5 1.742,-0.8 1.34,-1.039 0.839,-1.211 0.278,-1.301 -0.278,-1.309 -0.839,-1.211 -1.34,-1.039 -1.742,-0.801 -2.02,-0.5 -2.18,-0.171 h -11.589 l -2.172,0.171 -2.028,0.5 -1.742,0.801 -1.328,1.039 -0.84,1.211 z"
           style="fill:#f7fbff;fill-opacity:1;fill-rule:nonzero;stroke:#000000;stroke-width:0.35;stroke-linecap:round;stroke-linejoin:round;stroke-miterlimit:10;stroke-dasharray:none;stroke-opacity:1"
           id="path206" /></g><g
         id="g208"
         transform="matrix(0.90415741,0,0,-0.90415741,-32.316395,-48.818184)"><path
           d="m 425.18,-164.828 0.281,1.308 0.84,1.211 1.34,1.039 1.742,0.801 2.019,0.5 2.18,0.172 h 21.348 l 2.172,-0.172 2.031,-0.5 1.738,-0.801 1.328,-1.039 0.84,-1.211 0.293,-1.308 -0.293,-1.301 -0.84,-1.211 -1.328,-1.039 -1.738,-0.801 -2.031,-0.5 -2.172,-0.168 h -21.348 l -2.18,0.168 -2.019,0.5 -1.742,0.801 -1.34,1.039 -0.84,1.211 z"
           style="fill:#9ecae1;fill-opacity:1;fill-rule:nonzero;stroke:#000000;stroke-width:0.35;stroke-linecap:round;stroke-linejoin:round;stroke-miterlimit:10;stroke-dasharray:none;stroke-opacity:1"
           id="path210" /></g><g
         id="g212"
         transform="matrix(0.90415741,0,0,-0.90415741,-32.316395,-48.818184)"><path
           d="m 380.812,-217.637 0.29,1.297 0.839,1.211 1.329,1.039 1.742,0.801 2.027,0.5 2.184,0.172 h 11.578 l 2.179,-0.172 2.032,-0.5 1.738,-0.801 1.332,-1.039 0.84,-1.211 0.289,-1.297 -0.289,-1.301 -0.84,-1.21 -1.332,-1.051 -1.738,-0.789 -2.032,-0.508 -2.179,-0.172 h -11.578 l -2.184,0.172 -2.027,0.508 -1.742,0.789 -1.329,1.051 -0.839,1.21 z"
           style="fill:#c6dbef;fill-opacity:1;fill-rule:nonzero;stroke:#000000;stroke-width:0.35;stroke-linecap:round;stroke-linejoin:round;stroke-miterlimit:10;stroke-dasharray:none;stroke-opacity:1"
           id="path214" /></g><g
         id="g216"
         transform="matrix(0.90415741,0,0,-0.90415741,-32.316395,-48.818184)"><path
           d="m 356.191,-291.578 0.289,1.301 0.84,1.211 1.332,1.039 1.739,0.8 2.031,0.5 2.168,0.168 h 11.59 l 2.179,-0.168 2.024,-0.5 1.738,-0.8 1.34,-1.039 0.84,-1.211 0.289,-1.301 -0.289,-1.309 -0.84,-1.211 -1.34,-1.039 -1.738,-0.801 -2.024,-0.5 -2.179,-0.171 h -11.59 l -2.168,0.171 -2.031,0.5 -1.739,0.801 -1.332,1.039 -0.84,1.211 z"
           style="fill:#f7fbff;fill-opacity:1;fill-rule:nonzero;stroke:#000000;stroke-width:0.35;stroke-linecap:round;stroke-linejoin:round;stroke-miterlimit:10;stroke-dasharray:none;stroke-opacity:1"
           id="path218" /></g><g
         id="g220"
         transform="matrix(0.90415741,0,0,-0.90415741,-32.316395,-48.818184)"><path
           d="m 400.562,-291.578 0.278,1.301 0.84,1.211 1.34,1.039 1.742,0.8 2.019,0.5 2.18,0.168 h 21.34 l 2.179,-0.168 2.032,-0.5 1.738,-0.8 1.332,-1.039 0.84,-1.211 0.289,-1.301 -0.289,-1.309 -0.84,-1.211 -1.332,-1.039 -1.738,-0.801 -2.032,-0.5 -2.179,-0.171 h -21.34 l -2.18,0.171 -2.019,0.5 -1.742,0.801 -1.34,1.039 -0.84,1.211 z"
           style="fill:#84bcdb;fill-opacity:1;fill-rule:nonzero;stroke:#000000;stroke-width:0.35;stroke-linecap:round;stroke-linejoin:round;stroke-miterlimit:10;stroke-dasharray:none;stroke-opacity:1"
           id="path222" /></g><g
         id="g224"
         transform="matrix(0.90415741,0,0,-0.90415741,-32.316395,-48.818184)"><path
           d="m 474.422,-217.637 0.289,1.297 0.828,1.211 1.344,1.039 1.738,0.801 2.031,0.5 2.168,0.172 h 21.352 l 2.168,-0.172 2.031,-0.5 1.738,-0.801 1.332,-1.039 0.84,-1.211 0.289,-1.297 -0.289,-1.301 -0.84,-1.21 -1.332,-1.051 -1.738,-0.789 -2.031,-0.508 -2.168,-0.172 H 482.82 l -2.168,0.172 -2.031,0.508 -1.738,0.789 -1.344,1.051 -0.828,1.21 z"
           style="fill:#84bcdb;fill-opacity:1;fill-rule:nonzero;stroke:#000000;stroke-width:0.35;stroke-linecap:round;stroke-linejoin:round;stroke-miterlimit:10;stroke-dasharray:none;stroke-opacity:1"
           id="path226" /></g><g
         id="g228"
         transform="matrix(0.90415741,0,0,-0.90415741,-32.316395,-48.818184)"><path
           d="m 454.68,-291.578 0.281,1.301 0.84,1.211 1.34,1.039 1.742,0.8 2.019,0.5 2.18,0.168 h 11.59 l 2.168,-0.168 2.031,-0.5 1.738,-0.8 1.332,-1.039 0.84,-1.211 0.289,-1.301 -0.289,-1.309 -0.84,-1.211 -1.332,-1.039 -1.738,-0.801 -2.031,-0.5 -2.168,-0.171 h -11.59 l -2.18,0.171 -2.019,0.5 -1.742,0.801 -1.34,1.039 -0.84,1.211 z"
           style="fill:#deebf7;fill-opacity:1;fill-rule:nonzero;stroke:#000000;stroke-width:0.35;stroke-linecap:round;stroke-linejoin:round;stroke-miterlimit:10;stroke-dasharray:none;stroke-opacity:1"
           id="path230" /></g><g
         id="g232"
         transform="matrix(0.90415741,0,0,-0.90415741,-32.316395,-48.818184)"><path
           d="m 499.039,-291.578 0.293,1.301 0.84,1.211 1.328,1.039 1.742,0.8 2.028,0.5 2.171,0.168 h 21.348 l 2.172,-0.168 2.031,-0.5 1.738,-0.8 1.332,-1.039 0.84,-1.211 0.289,-1.301 -0.289,-1.309 -0.84,-1.211 -1.332,-1.039 -1.738,-0.801 -2.031,-0.5 -2.172,-0.171 h -21.348 l -2.171,0.171 -2.028,0.5 -1.742,0.801 -1.328,1.039 -0.84,1.211 z"
           style="fill:#84bcdb;fill-opacity:1;fill-rule:nonzero;stroke:#000000;stroke-width:0.35;stroke-linecap:round;stroke-linejoin:round;stroke-miterlimit:10;stroke-dasharray:none;stroke-opacity:1"
           id="path234" /></g><text
         style="font-variant:normal;font-weight:normal;font-size:5.42494px;font-family:'Nimbus Sans';-inkscape-font-specification:NimbusSans-Regular;writing-mode:lr-tb;fill:#000000;fill-opacity:1;fill-rule:nonzero;stroke:none;stroke-width:0.904157"
         id="text302"
         x="218.44348"
         y="15.41129"><tspan
           x="218.44348 221.45976 224.47603 227.49231 230.50859 233.52487 235.033 236.54112 238.04926 241.06554 244.0818 247.09807 250.11433"
           y="15.41129"
           sodipodi:role="line"
           id="tspan274"
           style="stroke-width:0.904157">57228 / 75177</tspan><tspan
           x="140.53224 143.54852 146.56477 149.58104 152.59732 155.61359 157.12173 158.62987 160.13799 163.15427 166.17053 169.1868 172.20308"
           y="63.16888"
           sodipodi:role="line"
           id="tspan276"
           style="stroke-width:0.904157">55341 / 68945</tspan><tspan
           x="84.881355 87.897621 90.913902 93.930176 96.946442 99.962708 101.47085 102.97898 104.48711 107.50339 110.51965 113.53591 116.55219"
           y="110.91743"
           sodipodi:role="line"
           id="tspan278"
           style="stroke-width:0.904157">55341 / 68190</tspan><tspan
           x="40.360653 43.376915 46.393188 49.409451 52.425724 55.44199 56.950123 58.458256 59.966389 62.982655 65.998924 69.015198 72.031479"
           y="158.67503"
           sodipodi:role="line"
           id="tspan280"
           style="stroke-width:0.904157">54963 / 66679</tspan><tspan
           x="18.100285 21.116554 24.132835 27.149101 30.165367 33.181637 34.689774 36.197903 37.706039 40.722309 43.738575 46.754845 49.771111 67.141792 70.158058 73.174332 76.190598 77.69873 79.206856 80.714996 83.731277 86.747551 89.763802"
           y="225.52844"
           sodipodi:role="line"
           id="tspan282"
           style="stroke-width:0.904157">54532 / 65384864 / 1295</tspan><tspan
           x="132.42195 135.43822 138.4545 141.47075 144.48705 145.99516 147.5033 149.01144 152.02769 155.04396 158.06024"
           y="158.67503"
           sodipodi:role="line"
           id="tspan284"
           style="stroke-width:0.904157">1133 / 1511</tspan><tspan
           x="113.17245 116.18871 119.20499 122.22126 123.72939 125.23753 126.74566 129.76193 132.7782 154.68411 157.70039 160.71666 163.73293 166.74919 168.25732 169.76546 171.27361 174.28986 177.30614 180.3224 202.22292 205.23918 208.25543 211.27173 212.77985 214.28798 215.79611 218.81239 221.82866"
           y="225.52844"
           sodipodi:role="line"
           id="tspan286"
           style="stroke-width:0.904157">378 / 3781133 / 1133755 / 755</tspan><tspan
           x="299.37463 302.3909 305.4072 308.42343 311.43973 312.94785 314.45599 315.96411 318.98041 321.99664 325.01294"
           y="63.16888"
           sodipodi:role="line"
           id="tspan288"
           style="stroke-width:0.904157">4345 / 6232</tspan><tspan
           x="246.74361 249.75987 252.77617 255.79243 257.3006 258.80872 260.31686 263.3331 266.3494"
           y="225.52844"
           sodipodi:role="line"
           id="tspan290"
           style="stroke-width:0.904157">565 / 651</tspan><tspan
           x="355.03458 358.05081 361.06711 364.08337 367.09967 368.60779 370.11591 371.62405 374.64032 377.65659 380.67288"
           y="110.91743"
           sodipodi:role="line"
           id="tspan292"
           style="stroke-width:0.904157">4259 / 5581</tspan><tspan
           x="313.52472 316.54099 319.55725 322.57352 324.08163 325.58978 327.09793 330.1142 333.13043"
           y="158.67503"
           sodipodi:role="line"
           id="tspan294"
           style="stroke-width:0.904157">566 / 754</tspan><tspan
           x="291.26434 294.28064 297.29688 300.31317 301.82129 303.32944 304.83755 307.85382 310.87012 335.78687 338.80313 341.8194 344.83569 346.34381 347.85196 349.36008 352.37637 355.39261"
           y="225.52841"
           sodipodi:role="line"
           id="tspan296"
           style="stroke-width:0.904157">566 / 566188 / 188</tspan><tspan
           x="399.55527 402.57153 405.58783 408.6041 411.62036 413.12851 414.63663 416.14478 419.16104 422.17731 425.19357"
           y="158.67503"
           sodipodi:role="line"
           id="tspan298"
           style="stroke-width:0.904157">4071 / 4827</tspan><tspan
           x="380.30576 383.32205 386.33832 389.35455 390.86273 392.37085 393.87897 396.89526 399.91153 421.81747 424.83371 427.85001 430.86627 433.88251 435.39066 436.8988 438.40692 441.42322 444.43948 447.45572"
           y="225.52841"
           sodipodi:role="line"
           id="tspan300"
           style="stroke-width:0.904157">265 / 3274009 / 4500</tspan></text><text
         style="font-variant:normal;font-weight:normal;font-size:6.3291px;font-family:'Nimbus Sans';-inkscape-font-specification:NimbusSans-Regular;writing-mode:lr-tb;fill:#000000;fill-opacity:1;fill-rule:nonzero;stroke:none;stroke-width:0.904157"
         id="text340"
         x="225.59537"
         y="6.3064275"><tspan
           x="225.59537 230.16501 233.68399 235.08904 238.60802 240.36749 243.88649"
           y="6.3064275"
           sodipodi:role="line"
           id="tspan304"
           style="stroke-width:0.904157">Rejeter</tspan><tspan
           x="147.67508 152.24469 155.76367 157.16873 160.68773 162.4472 165.96619"
           y="54.06403"
           sodipodi:role="line"
           id="tspan306"
           style="stroke-width:0.904157">Rejeter</tspan><tspan
           x="92.024208 96.593811 100.11281 101.51787 105.03683 106.79633 110.31532"
           y="101.81256"
           sodipodi:role="line"
           id="tspan308"
           style="stroke-width:0.904157">Rejeter</tspan><tspan
           x="47.503487 52.073101 55.592083 56.997143 60.516109 62.275623 65.794617"
           y="149.57018"
           sodipodi:role="line"
           id="tspan310"
           style="stroke-width:0.904157">Rejeter</tspan><tspan
           x="25.243122 29.812737 33.331715 34.736778 38.255772 40.015259 43.534237"
           y="216.42355"
           sodipodi:role="line"
           id="tspan312"
           style="stroke-width:0.904157">Rejeter</tspan><tspan
           x="65.351555 69.921165 73.440163 76.959137 80.123688 83.64267 85.940132 88.946442 92.465431"
           y="217.09264"
           sodipodi:role="line"
           id="tspan314"
           style="stroke-width:0.904157">Conserver</tspan><tspan
           x="132.13261 136.70224 140.22121 143.7402 146.90475 150.42374 152.72119 155.72752 159.24651"
           y="150.23019"
           sodipodi:role="line"
           id="tspan316"
           style="stroke-width:0.904157">Conserver</tspan><tspan
           x="114.28457 118.85418 122.37316 123.77822 127.2972 129.05667 132.57565"
           y="216.42355"
           sodipodi:role="line"
           id="tspan318"
           style="stroke-width:0.904157">Rejeter</tspan><tspan
           x="154.39299 158.9626 162.48157 166.00055 169.1651 172.68408 174.98155 177.98787 181.50685 198.92455 203.49416 207.01314 210.53212 213.69667 217.21565 219.51311 222.51942 226.03841"
           y="217.09261"
           sodipodi:role="line"
           id="tspan320"
           style="stroke-width:0.904157">ConserverConserver</tspan><tspan
           x="299.09436 303.664 307.18295 310.70193 313.86649 317.38547 319.68292 322.68927 326.20822"
           y="54.724041"
           sodipodi:role="line"
           id="tspan322"
           style="stroke-width:0.904157">Conserver</tspan><tspan
           x="247.85576 252.42534 255.94432 257.34943 260.86841 262.6279 266.14688"
           y="216.42355"
           sodipodi:role="line"
           id="tspan324"
           style="stroke-width:0.904157">Rejeter</tspan><tspan
           x="354.74524 359.31488 362.83386 366.35281 369.51736 373.03635 375.33383 378.34015 381.85913"
           y="102.48161"
           sodipodi:role="line"
           id="tspan326"
           style="stroke-width:0.904157">Conserver</tspan><tspan
           x="314.63681 319.20645 322.72543 324.13046 327.64944 329.40894 332.92792"
           y="149.57014"
           sodipodi:role="line"
           id="tspan328"
           style="stroke-width:0.904157">Rejeter</tspan><tspan
           x="292.37646 296.94608 300.46506 301.87012 305.38913 307.14859 310.66757"
           y="216.42355"
           sodipodi:role="line"
           id="tspan330"
           style="stroke-width:0.904157">Rejeter</tspan><tspan
           x="332.48489 337.0545 340.57349 344.09247 347.25702 350.77597 353.07346 356.07977 359.59875"
           y="217.09261"
           sodipodi:role="line"
           id="tspan332"
           style="stroke-width:0.904157">Conserver</tspan><tspan
           x="399.26596 403.83557 407.35458 410.87357 414.03812 417.55707 419.85455 422.86087 426.37985"
           y="150.23019"
           sodipodi:role="line"
           id="tspan334"
           style="stroke-width:0.904157">Conserver</tspan><tspan
           x="381.41791 385.98752 389.50647 390.91156 394.43054 396.19 399.70901"
           y="216.42355"
           sodipodi:role="line"
           id="tspan336"
           style="stroke-width:0.904157">Rejeter</tspan><tspan
           x="421.53534 426.10498 429.62396 433.14294 436.3075 439.82645 442.12393 445.13025 448.64923"
           y="217.09261"
           sodipodi:role="line"
           id="tspan338"
           style="stroke-width:0.904157">Conserver</tspan></text><path
         d="m 109.6327,68.612875 h 17.54608 v 6.914993 H 109.6327 Z"
         style="fill:#000000;fill-opacity:1;fill-rule:nonzero;stroke:none;stroke-width:0.904157"
         id="path342" /><path
         d="m 123.19145,163.98702 h 27.64732 v 6.91228 h -27.64732 z"
         style="fill:#000000;fill-opacity:1;fill-rule:nonzero;stroke:none;stroke-width:0.904157"
         id="path344" /><path
         d="m 299.56905,163.99426 h 35.02164 v 6.91499 h -35.02164 z"
         style="fill:#000000;fill-opacity:1;fill-rule:nonzero;stroke:none;stroke-width:0.904157"
         id="path346" /><g
         id="g1256"
         transform="matrix(0.90415741,0,0,-0.90415741,-32.316395,-48.818184)"><path
           d="m 210.352,-106.977 0,21.127668"
           style="fill:none;stroke:#000000;stroke-width:0.35;stroke-linecap:butt;stroke-linejoin:round;stroke-miterlimit:10;stroke-dasharray:none;stroke-opacity:1"
           id="path1254"
           sodipodi:nodetypes="cc" /></g><g
         id="g1897"
         transform="matrix(0.90415741,0,0,-0.90415741,-32.316395,-48.818184)"><path
           d="m 148.801,-159.797 0,21.09643"
           style="fill:none;stroke:#000000;stroke-width:0.35;stroke-linecap:butt;stroke-linejoin:round;stroke-miterlimit:10;stroke-dasharray:none;stroke-opacity:1"
           id="path1895"
           sodipodi:nodetypes="cc" /></g><g
         id="g2350"
         transform="matrix(0.90415741,0,0,-0.90415741,-32.316395,-48.818184)"><path
           d="m 198.039,-212.617 0,11.15603"
           style="fill:none;stroke:#000000;stroke-width:0.35;stroke-linecap:butt;stroke-linejoin:round;stroke-miterlimit:10;stroke-dasharray:none;stroke-opacity:1"
           id="path2348"
           sodipodi:nodetypes="cc" /></g><g
         id="g3565"
         transform="matrix(0.90415741,0,0,-0.90415741,-32.316395,-48.818184)"><path
           d="m 271.91,-286.559 0,137.87553"
           style="fill:none;stroke:#000000;stroke-width:0.35;stroke-linecap:butt;stroke-linejoin:round;stroke-miterlimit:10;stroke-dasharray:none;stroke-opacity:1"
           id="path3563"
           sodipodi:nodetypes="cc" /></g><g
         id="g4090"
         transform="matrix(0.90415741,0,0,-0.90415741,-32.316395,-48.818184)"><path
           d="m 99.562,-212.4481 0,20.96932"
           style="fill:none;stroke:#000000;stroke-width:0.35;stroke-linecap:butt;stroke-linejoin:round;stroke-miterlimit:10;stroke-dasharray:none;stroke-opacity:1"
           id="path4088"
           sodipodi:nodetypes="cc" /></g><g
         id="g4782"
         transform="matrix(0.90415741,0,0,-0.90415741,-32.316395,-48.818184)"><path
           d="m 74.941,-286.559 0,42.24553"
           style="fill:none;stroke:#000000;stroke-width:0.35;stroke-linecap:butt;stroke-linejoin:round;stroke-miterlimit:10;stroke-dasharray:none;stroke-opacity:1"
           id="path4780"
           sodipodi:nodetypes="cc" /></g><g
         id="g5383"
         transform="matrix(0.90415741,0,0,-0.90415741,-32.316395,-48.818184)"><path
           d="m 124.18,-286.559 0,32.20885"
           style="fill:none;stroke:#000000;stroke-width:0.35;stroke-linecap:butt;stroke-linejoin:round;stroke-miterlimit:10;stroke-dasharray:none;stroke-opacity:1"
           id="path5381"
           sodipodi:nodetypes="cc" /></g><g
         id="g5996"
         transform="matrix(0.90415741,0,0,-0.90415741,-32.316395,-48.818184)"><path
           d="m 173.422,-285.92128 0,41.63775"
           style="fill:none;stroke:#000000;stroke-width:0.35;stroke-linecap:butt;stroke-linejoin:round;stroke-miterlimit:10;stroke-dasharray:none;stroke-opacity:1"
           id="path5994"
           sodipodi:nodetypes="cc" /></g><g
         id="g6331"
         transform="matrix(0.90415741,0,0,-0.90415741,-32.316395,-48.818184)"><path
           d="m 222.66,-286.559 0,32.20505"
           style="fill:none;stroke:#000000;stroke-width:0.35;stroke-linecap:butt;stroke-linejoin:round;stroke-miterlimit:10;stroke-dasharray:none;stroke-opacity:1"
           id="path6329"
           sodipodi:nodetypes="cc" /></g><g
         id="g6984"
         transform="matrix(0.90415741,0,0,-0.90415741,-32.316395,-48.818184)"><path
           d="m 382.699,-106.977 0,11.07408"
           style="fill:none;stroke:#000000;stroke-width:0.35;stroke-linecap:butt;stroke-linejoin:round;stroke-miterlimit:10;stroke-dasharray:none;stroke-opacity:1"
           id="path6982"
           sodipodi:nodetypes="cc" /></g><g
         id="g7319"
         transform="matrix(0.90415741,0,0,-0.90415741,-32.316395,-48.818184)"><path
           d="m 444.25,-159.797 0,10.95275"
           style="fill:none;stroke:#000000;stroke-width:0.35;stroke-linecap:butt;stroke-linejoin:round;stroke-miterlimit:10;stroke-dasharray:none;stroke-opacity:1"
           id="path7317"
           sodipodi:nodetypes="cc" /></g><g
         id="g7734"
         transform="matrix(0.90415741,0,0,-0.90415741,-32.316395,-48.818184)"><path
           d="m 321.152,-286.559 0,147.70214"
           style="fill:none;stroke:#000000;stroke-width:0.35;stroke-linecap:butt;stroke-linejoin:round;stroke-miterlimit:10;stroke-dasharray:none;stroke-opacity:1"
           id="path7732"
           sodipodi:nodetypes="cc" /></g><g
         id="g8328"
         transform="matrix(0.90415741,0,0,-0.90415741,-32.316395,-48.818184)"><path
           d="m 395.012,-212.617 0,20.93778"
           style="fill:none;stroke:#000000;stroke-width:0.35;stroke-linecap:butt;stroke-linejoin:round;stroke-miterlimit:10;stroke-dasharray:none;stroke-opacity:1"
           id="path8326"
           sodipodi:nodetypes="cc" /></g><g
         id="g8587"
         transform="matrix(0.90415741,0,0,-0.90415741,-32.316395,-48.818184)"><path
           d="m 493.492,-212.617 0,10.95691"
           style="fill:none;stroke:#000000;stroke-width:0.35;stroke-linecap:butt;stroke-linejoin:round;stroke-miterlimit:10;stroke-dasharray:none;stroke-opacity:1"
           id="path8585"
           sodipodi:nodetypes="cc" /></g><g
         id="g9090"
         transform="matrix(0.90415741,0,0,-0.90415741,-32.316395,-48.818184)"><path
           d="m 370.391,-286.559 0,41.91139"
           style="fill:none;stroke:#000000;stroke-width:0.35;stroke-linecap:butt;stroke-linejoin:round;stroke-miterlimit:10;stroke-dasharray:none;stroke-opacity:1"
           id="path9088"
           sodipodi:nodetypes="cc" /></g><g
         id="g9273"
         transform="matrix(0.90415741,0,0,-0.90415741,-32.316395,-48.818184)"><path
           d="m 419.633,-286.559 0,32.09351"
           style="fill:none;stroke:#000000;stroke-width:0.35;stroke-linecap:butt;stroke-linejoin:round;stroke-miterlimit:10;stroke-dasharray:none;stroke-opacity:1"
           id="path9271"
           sodipodi:nodetypes="cc" /></g><g
         id="g9532"
         transform="matrix(0.90415741,0,0,-0.90415741,-32.316395,-48.818184)"><path
           d="m 468.871,-286.559 0,41.97618"
           style="fill:none;stroke:#000000;stroke-width:0.35;stroke-linecap:butt;stroke-linejoin:round;stroke-miterlimit:10;stroke-dasharray:none;stroke-opacity:1"
           id="path9530"
           sodipodi:nodetypes="cc" /></g><g
         id="g9829"
         transform="matrix(0.90415741,0,0,-0.90415741,-32.316395,-48.818184)"><path
           d="m 518.121,-286.559 v 32.08019"
           style="fill:none;stroke:#000000;stroke-width:0.35;stroke-linecap:butt;stroke-linejoin:round;stroke-miterlimit:10;stroke-dasharray:none;stroke-opacity:1"
           id="path9827"
           sodipodi:nodetypes="cc" /></g></g></g></svg>
